  0
SECTION
  2
HEADER
  9
$ACADVER
  1
AC1032
  9
$ACADMAINTVER
 90
4
  9
$DWGCODEPAGE
  3
ANSI_1251
  9
$LASTSAVEDBY
  1
Пользователь
  9
$REQUIREDVERSIONS
160
0
  9
$INSBASE
 10
0.0
 20
0.0
 30
0.0
  9
$EXTMIN
 10
1182.9013000000268
 20
256.33499999996275
 30
409.68
  9
$EXTMAX
 10
1267.4159999999683
 20
443.1176999999443
 30
423.0031
  9
$LIMMIN
 10
0.0
 20
0.0
  9
$LIMMAX
 10
12.0
 20
9.0
  9
$ORTHOMODE
 70
0
  9
$REGENMODE
 70
1
  9
$FILLMODE
 70
1
  9
$QTEXTMODE
 70
0
  9
$MIRRTEXT
 70
0
  9
$LTSCALE
 40
1.0
  9
$ATTMODE
 70
1
  9
$TEXTSIZE
 40
2.5
  9
$TRACEWID
 40
1.0
  9
$TEXTSTYLE
  7
Standard
  9
$CLAYER
  8
0
  9
$CELTYPE
  6
ByLayer
  9
$CECOLOR
 62
0
  9
$CELTSCALE
 40
1.0
  9
$DISPSILH
 70
0
  9
$DIMSCALE
 40
1.0
  9
$DIMASZ
 40
2.5
  9
$DIMEXO
 40
0.625
  9
$DIMDLI
 40
3.75
  9
$DIMRND
 40
0.0
  9
$DIMDLE
 40
0.0
  9
$DIMEXE
 40
1.25
  9
$DIMTP
 40
0.0
  9
$DIMTM
 40
0.0
  9
$DIMTXT
 40
2.5
  9
$DIMCEN
 40
2.5
  9
$DIMTSZ
 40
0.0
  9
$DIMTOL
 70
0
  9
$DIMLIM
 70
0
  9
$DIMTIH
 70
0
  9
$DIMTOH
 70
0
  9
$DIMSE1
 70
0
  9
$DIMSE2
 70
0
  9
$DIMTAD
 70
1
  9
$DIMZIN
 70
8
  9
$DIMBLK
  1

  9
$DIMASO
 70
1
  9
$DIMSHO
 70
1
  9
$DIMPOST
  1

  9
$DIMAPOST
  1

  9
$DIMALT
 70
0
  9
$DIMALTD
 70
3
  9
$DIMALTF
 40
0.03937007874016
  9
$DIMLFAC
 40
1.0
  9
$DIMTOFL
 70
1
  9
$DIMTVP
 40
0.0
  9
$DIMTIX
 70
0
  9
$DIMSOXD
 70
0
  9
$DIMSAH
 70
0
  9
$DIMBLK1
  1

  9
$DIMBLK2
  1

  9
$DIMSTYLE
  2
ISO-25
  9
$DIMCLRD
 70
0
  9
$DIMCLRE
 70
0
  9
$DIMCLRT
 70
0
  9
$DIMTFAC
 40
1.0
  9
$DIMGAP
 40
0.625
  9
$DIMJUST
 70
0
  9
$DIMSD1
 70
0
  9
$DIMSD2
 70
0
  9
$DIMTOLJ
 70
0
  9
$DIMTZIN
 70
8
  9
$DIMALTZ
 70
0
  9
$DIMALTTZ
 70
0
  9
$DIMUPT
 70
0
  9
$DIMDEC
 70
2
  9
$DIMTDEC
 70
2
  9
$DIMALTU
 70
2
  9
$DIMALTTD
 70
3
  9
$DIMTXSTY
  7
Standard
  9
$DIMAUNIT
 70
0
  9
$DIMADEC
 70
0
  9
$DIMALTRND
 40
0.0
  9
$DIMAZIN
 70
0
  9
$DIMDSEP
 70
44
  9
$DIMATFIT
 70
3
  9
$DIMFRAC
 70
0
  9
$DIMLDRBLK
  1

  9
$DIMLUNIT
 70
2
  9
$DIMLWD
 70
-2
  9
$DIMLWE
 70
-2
  9
$DIMTMOVE
 70
0
  9
$DIMFXL
 40
1.0
  9
$DIMFXLON
 70
0
  9
$DIMJOGANG
 40
0.7853981633974483
  9
$DIMTFILL
 70
0
  9
$DIMTFILLCLR
 70
0
  9
$DIMARCSYM
 70
0
  9
$DIMLTYPE
  6

  9
$DIMLTEX1
  6

  9
$DIMLTEX2
  6

  9
$DIMTXTDIRECTION
 70
0
  9
$LUNITS
 70
2
  9
$LUPREC
 70
4
  9
$SKETCHINC
 40
1.0
  9
$FILLETRAD
 40
0.0
  9
$AUNITS
 70
0
  9
$AUPREC
 70
0
  9
$MENU
  1
.
  9
$ELEVATION
 40
0.0
  9
$PELEVATION
 40
0.0
  9
$THICKNESS
 40
0.0
  9
$LIMCHECK
 70
0
  9
$CHAMFERA
 40
0.0
  9
$CHAMFERB
 40
0.0
  9
$CHAMFERC
 40
0.0
  9
$CHAMFERD
 40
0.0
  9
$SKPOLY
 70
0
  9
$TDCREATE
 40
2461314.4549074075
  9
$TDUCREATE
 40
2461312.34652
  9
$TDUPDATE
 40
2461314.4549074075
  9
$TDUUPDATE
 40
2461312.34675
  9
$TDINDWG
 40
0.00023
  9
$TDUSRTIMER
 40
0.00023
  9
$USRTIMER
 70
1
  9
$ANGBASE
 50
0.0
  9
$ANGDIR
 70
0
  9
$PDMODE
 70
0
  9
$PDSIZE
 40
0.0
  9
$PLINEWID
 40
0.0
  9
$SPLFRAME
 70
0
  9
$SPLINETYPE
 70
6
  9
$SPLINESEGS
 70
8
  9
$HANDSEED
  5
78C
  9
$SURFTAB1
 70
6
  9
$SURFTAB2
 70
6
  9
$SURFTYPE
 70
6
  9
$SURFU
 70
6
  9
$SURFV
 70
6
  9
$UCSBASE
  2

  9
$UCSORG
 10
0.0
 20
0.0
 30
0.0
  9
$UCSXDIR
 10
1.0
 20
0.0
 30
0.0
  9
$UCSYDIR
 10
0.0
 20
1.0
 30
0.0
  9
$UCSORTHOREF
  2

  9
$UCSORTHOVIEW
 70
0
  9
$UCSORGTOP
 10
0.0
 20
0.0
 30
0.0
  9
$UCSORGBOTTOM
 10
0.0
 20
0.0
 30
0.0
  9
$UCSORGLEFT
 10
0.0
 20
0.0
 30
0.0
  9
$UCSORGRIGHT
 10
0.0
 20
0.0
 30
0.0
  9
$UCSORGFRONT
 10
0.0
 20
0.0
 30
0.0
  9
$UCSORGBACK
 10
0.0
 20
0.0
 30
0.0
  9
$PUCSBASE
  2

  9
$PUCSORG
 10
0.0
 20
0.0
 30
0.0
  9
$PUCSXDIR
 10
1.0
 20
0.0
 30
0.0
  9
$PUCSYDIR
 10
0.0
 20
1.0
 30
0.0
  9
$PUCSORTHOREF
  2

  9
$PUCSORTHOVIEW
 70
0
  9
$PUCSORGTOP
 10
0.0
 20
0.0
 30
0.0
  9
$PUCSORGBOTTOM
 10
0.0
 20
0.0
 30
0.0
  9
$PUCSORGLEFT
 10
0.0
 20
0.0
 30
0.0
  9
$PUCSORGRIGHT
 10
0.0
 20
0.0
 30
0.0
  9
$PUCSORGFRONT
 10
0.0
 20
0.0
 30
0.0
  9
$PUCSORGBACK
 10
0.0
 20
0.0
 30
0.0
  9
$USERI1
 70
0
  9
$USERI2
 70
0
  9
$USERI3
 70
0
  9
$USERI4
 70
0
  9
$USERI5
 70
0
  9
$USERR1
 40
0.0
  9
$USERR2
 40
0.0
  9
$USERR3
 40
0.0
  9
$USERR4
 40
0.0
  9
$USERR5
 40
0.0
  9
$WORLDVIEW
 70
1
  9
$SHADEDGE
 70
3
  9
$SHADEDIF
 70
70
  9
$TILEMODE
 70
1
  9
$MAXACTVP
 70
64
  9
$PINSBASE
 10
0.0
 20
0.0
 30
0.0
  9
$PLIMCHECK
 70
0
  9
$PEXTMIN
 10
0.0
 20
0.0
 30
0.0
  9
$PEXTMAX
 10
0.0
 20
0.0
 30
0.0
  9
$PLIMMIN
 10
0.0
 20
0.0
  9
$PLIMMAX
 10
12.0
 20
9.0
  9
$UNITMODE
 70
0
  9
$VISRETAIN
 70
1
  9
$PLINEGEN
 70
0
  9
$PSLTSCALE
 70
1
  9
$TREEDEPTH
 70
3020
  9
$CMLSTYLE
  2
S
  9
$CMLJUST
 70
0
  9
$CMLSCALE
 40
20.0
  9
$PROXYGRAPHICS
 70
1
  9
$MEASUREMENT
 70
1
  9
$CELWEIGHT
370
-1
  9
$ENDCAPS
280
0
  9
$JOINSTYLE
280
0
  9
$LWDISPLAY
290
0
  9
$INSUNITS
 70
4
  9
$HYPERLINKBASE
  1

  9
$STYLESHEET
  1

  9
$XEDIT
290
1
  9
$CEPSNTYPE
380
0
  9
$PSTYLEMODE
290
1
  9
$FINGERPRINTGUID
  2
{EBE79B87-C4E1-E149-A67D-796B73166DE4}
  9
$VERSIONGUID
  2
{38928F39-93B8-4322-8627-B0E42C53C4E4}
  9
$EXTNAMES
290
1
  9
$PSVPSCALE
 40
0.0
  9
$OLESTARTUP
290
0
  9
$SORTENTS
280
127
  9
$INDEXCTL
280
0
  9
$HIDETEXT
280
1
  9
$XCLIPFRAME
280
2
  9
$HALOGAP
280
0
  9
$OBSCOLOR
 70
257
  9
$OBSLTYPE
280
0
  9
$INTERSECTIONDISPLAY
280
0
  9
$INTERSECTIONCOLOR
 70
257
  9
$DIMASSOC
280
2
  9
$PROJECTNAME
  1

  9
$CAMERADISPLAY
290
0
  9
$LENSLENGTH
 40
50.0
  9
$CAMERAHEIGHT
 40
0.0
  9
$STEPSPERSEC
 40
2.0
  9
$STEPSIZE
 40
6.0
  9
$3DDWFPREC
 40
2.0
  9
$PSOLWIDTH
 40
5.0
  9
$PSOLHEIGHT
 40
80.0
  9
$LOFTANG1
 40
1.570796326794897
  9
$LOFTANG2
 40
1.570796326794897
  9
$LOFTMAG1
 40
0.0
  9
$LOFTMAG2
 40
0.0
  9
$LOFTPARAM
 70
7
  9
$LOFTNORMALS
280
1
  9
$LATITUDE
 40
37.795
  9
$LONGITUDE
 40
-122.394
  9
$NORTHDIRECTION
 40
0.0
  9
$TIMEZONE
 70
-8000
  9
$LIGHTGLYPHDISPLAY
280
1
  9
$TILEMODELIGHTSYNCH
280
1
  9
$CMATERIAL
347
785
  9
$SOLIDHIST
280
0
  9
$SHOWHIST
280
1
  9
$DWFFRAME
280
2
  9
$DGNFRAME
280
0
  9
$REALWORLDSCALE
290
1
  9
$INTERFERECOLOR
 62
256
  9
$CSHADOW
280
0
  9
$SHADOWPLANELOCATION
 40
0.0
  0
ENDSEC
  0
SECTION
  2
CLASSES
  0
CLASS
  1
ACDBDICTIONARYWDFLT
  2
AcDbDictionaryWithDefault
  3
ObjectDBX Classes
 90
0
 91
1
280
0
281
0
  0
CLASS
  1
DICTIONARYVAR
  2
AcDbDictionaryVar
  3
ObjectDBX Classes
 90
0
 91
35
280
0
281
0
  0
CLASS
  1
TABLESTYLE
  2
AcDbTableStyle
  3
ObjectDBX Classes
 90
4095
 91
1
280
0
281
0
  0
CLASS
  1
MATERIAL
  2
AcDbMaterial
  3
ObjectDBX Classes
 90
1153
 91
3
280
0
281
0
  0
CLASS
  1
VISUALSTYLE
  2
AcDbVisualStyle
  3
ObjectDBX Classes
 90
4095
 91
24
280
0
281
0
  0
CLASS
  1
SCALE
  2
AcDbScale
  3
ObjectDBX Classes
 90
1153
 91
17
280
0
281
0
  0
CLASS
  1
MLEADERSTYLE
  2
AcDbMLeaderStyle
  3
ACDB_MLEADERSTYLE_CLASS
 90
4095
 91
2
280
0
281
0
  0
CLASS
  1
CELLSTYLEMAP
  2
AcDbCellStyleMap
  3
ObjectDBX Classes
 90
1152
 91
0
280
0
281
0
  0
CLASS
  1
EXACXREFPANELOBJECT
  2
ExAcXREFPanelObject
  3
EXAC_ESW
 90
1025
 91
0
280
0
281
0
  0
CLASS
  1
NPOCOLLECTION
  2
AcDbImpNonPersistentObjectsCollection
  3
ObjectDBX Classes
 90
1153
 91
0
280
0
281
0
  0
CLASS
  1
LAYER_INDEX
  2
AcDbLayerIndex
  3
ObjectDBX Classes
 90
0
 91
0
280
0
281
0
  0
CLASS
  1
SPATIAL_INDEX
  2
AcDbSpatialIndex
  3
AutoCAD 2000
 90
0
 91
0
280
0
281
0
  0
CLASS
  1
IDBUFFER
  2
AcDbIdBuffer
  3
ObjectDBX Classes
 90
0
 91
0
280
0
281
0
  0
CLASS
  1
ACDBSECTIONVIEWSTYLE
  2
AcDbSectionViewStyle
  3
ObjectDBX Classes
 90
1025
 91
1
280
0
281
0
  0
CLASS
  1
ACDBDETAILVIEWSTYLE
  2
AcDbDetailViewStyle
  3
ObjectDBX Classes
 90
1025
 91
1
280
0
281
0
  0
CLASS
  1
SUN
  2
AcDbSun
  3
SCENEOE
 90
1153
 91
0
280
0
281
0
  0
CLASS
  1
MENTALRAYRENDERSETTINGS
  2
AcDbMentalRayRenderSettings
  3
SCENEOE
 90
1024
 91
0
280
0
281
0
  0
CLASS
  1
RASTERVARIABLES
  2
AcDbRasterVariables
  3
ISM
 90
0
 91
0
280
0
281
0
  0
CLASS
  1
ACDBPLACEHOLDER
  2
AcDbPlaceHolder
  3
ObjectDBX Classes
 90
0
 91
0
280
0
281
0
  0
CLASS
  1
LAYOUT
  2
AcDbLayout
  3
ObjectDBX Classes
 90
0
 91
0
280
0
281
0
  0
ENDSEC
  0
SECTION
  2
TABLES
  0
TABLE
  2
VPORT
  5
8
330
0
100
AcDbSymbolTable
 70
1
  0
VPORT
  5
EA
330
8
100
AcDbSymbolTableRecord
100
AcDbViewportTableRecord
  2
*Active
 70
0
 10
0.0
 20
0.0
 11
1.0
 21
1.0
 12
1219.8596249448601
 22
359.0330170696834
 13
0.0
 23
0.0
 14
10.0
 24
10.0
 15
10.0
 25
10.0
 16
0.0
 26
0.0
 36
1.0
 17
0.0
 27
0.0
 37
0.0
 40
300.837005767622
 41
1.73953013278856
 42
50.0
 43
0.0
 44
0.0
 50
0.0
 51
0.0
 71
0
 72
1000
 73
1
 74
3
 75
0
 76
1
 77
0
 78
0
281
0
 65
1
110
0.0
120
0.0
130
0.0
111
1.0
121
0.0
131
0.0
112
0.0
122
1.0
132
0.0
 79
0
146
0.0
 60
3
 61
5
348
F5
292
1
282
1
141
0.0
142
0.0
 63
250
421
3258135347
1001
ACAD_NAV_VCDISPLAY
1070
3
  0
ENDTAB
  0
TABLE
  2
LTYPE
  5
5
330
0
100
AcDbSymbolTable
 70
3
  0
LTYPE
  5
14
330
5
100
AcDbSymbolTableRecord
100
AcDbLinetypeTableRecord
  2
ByBlock
 70
0
  3

 72
65
 73
0
 40
0.0
  0
LTYPE
  5
15
330
5
100
AcDbSymbolTableRecord
100
AcDbLinetypeTableRecord
  2
ByLayer
 70
0
  3

 72
65
 73
0
 40
0.0
  0
LTYPE
  5
16
330
5
100
AcDbSymbolTableRecord
100
AcDbLinetypeTableRecord
  2
Continuous
 70
0
  3
Solid line
 72
65
 73
0
 40
0.0
  0
ENDTAB
  0
TABLE
  2
LAYER
  5
2
102
{ACAD_XDICTIONARY
360
1FF
102
}
330
0
100
AcDbSymbolTable
 70
6
  0
LAYER
  5
10
102
{ACAD_XDICTIONARY
360
13C
102
}
330
2
100
AcDbSymbolTableRecord
100
AcDbLayerTableRecord
  2
0
 70
0
 62
7
  6
Continuous
370
-3
390
F
347
EE
348
0
  0
LAYER
  5
2A2
102
{ACAD_XDICTIONARY
360
2A3
102
}
330
2
100
AcDbSymbolTableRecord
100
AcDbLayerTableRecord
  2
Отметка
 70
0
 62
7
  6
Continuous
370
-3
390
F
347
EE
348
0
  0
LAYER
  5
2A4
102
{ACAD_XDICTIONARY
360
2A5
102
}
330
2
100
AcDbSymbolTableRecord
100
AcDbLayerTableRecord
  2
Горизонт +410
 70
0
 62
7
  6
Continuous
370
-3
390
F
347
EE
348
0
1001
AcCmTransparency
1071
0
  0
LAYER
  5
2A6
102
{ACAD_XDICTIONARY
360
2A7
102
}
330
2
100
AcDbSymbolTableRecord
100
AcDbLayerTableRecord
  2
Отвал вскрышных пород
 70
0
 62
7
  6
Continuous
370
-3
390
F
347
EE
348
0
1001
AcAecLayerStandard
1000

1000

1001
AcCmTransparency
1071
0
  0
LAYER
  5
2A8
330
2
100
AcDbSymbolTableRecord
100
AcDbLayerTableRecord
  2
блок 66 вар 2
 70
0
 62
7
  6
Continuous
370
-3
390
F
347
EE
348
0
1001
AcAecLayerStandard
1000

1000

1001
AcCmTransparency
1071
0
  0
LAYER
  5
783
330
2
100
AcDbSymbolTableRecord
100
AcDbLayerTableRecord
  2
Defpoints
 70
0
 62
7
  6
Continuous
290
0
370
-3
390
F
347
EE
  0
ENDTAB
  0
TABLE
  2
STYLE
  5
3
330
0
100
AcDbSymbolTable
 70
4
  0
STYLE
  5
11
330
3
100
AcDbSymbolTableRecord
100
AcDbTextStyleTableRecord
  2
Standard
 70
0
 40
0.0
 41
1.0
 50
0.0
 71
0
 42
2.5
  3
arial.ttf
  4

1001
ACAD
1000
Arial
1071
34
  0
STYLE
  5
132
330
3
100
AcDbSymbolTableRecord
100
AcDbTextStyleTableRecord
  2
Аннотативный
 70
0
 40
0.0
 41
1.0
 50
0.0
 71
0
 42
2.5
  3
arial.ttf
  4

1001
AcadAnnotative
1000
AnnotativeData
1002
{
1070
1
1070
1
1002
}
1001
ACAD
1000
Arial
1071
34
  0
STYLE
  5
2A9
330
3
100
AcDbSymbolTableRecord
100
AcDbTextStyleTableRecord
  2
СПДС
 70
0
 40
0.0
 41
1.0
 50
0.0
 71
0
 42
0.2
  3
isocpeur.ttf
  4

1001
ACAD
1000
ISOCPEUR
1071
34
  0
STYLE
  5
2AA
330
3
100
AcDbSymbolTableRecord
100
AcDbTextStyleTableRecord
  2
eskd
 70
0
 40
0.0
 41
1.2
 50
15.0
 71
0
 42
1e-05
  3
ESKD1.shx
  4

  0
ENDTAB
  0
TABLE
  2
VIEW
  5
6
330
0
100
AcDbSymbolTable
 70
0
  0
ENDTAB
  0
TABLE
  2
UCS
  5
7
330
0
100
AcDbSymbolTable
 70
0
  0
ENDTAB
  0
TABLE
  2
APPID
  5
9
330
0
100
AcDbSymbolTable
 70
12
  0
APPID
  5
12
330
9
100
AcDbSymbolTableRecord
100
AcDbRegAppTableRecord
  2
ACAD
 70
0
  0
APPID
  5
9E
330
9
100
AcDbSymbolTableRecord
100
AcDbRegAppTableRecord
  2
ACAD_PSEXT
 70
0
  0
APPID
  5
133
330
9
100
AcDbSymbolTableRecord
100
AcDbRegAppTableRecord
  2
AcadAnnoPO
 70
0
  0
APPID
  5
134
330
9
100
AcDbSymbolTableRecord
100
AcDbRegAppTableRecord
  2
AcadAnnotative
 70
0
  0
APPID
  5
135
330
9
100
AcDbSymbolTableRecord
100
AcDbRegAppTableRecord
  2
ACAD_DSTYLE_DIMJAG
 70
0
  0
APPID
  5
136
330
9
100
AcDbSymbolTableRecord
100
AcDbRegAppTableRecord
  2
ACAD_DSTYLE_DIMTALN
 70
0
  0
APPID
  5
165
330
9
100
AcDbSymbolTableRecord
100
AcDbRegAppTableRecord
  2
ACAD_MLEADERVER
 70
0
  0
APPID
  5
217
330
9
100
AcDbSymbolTableRecord
100
AcDbRegAppTableRecord
  2
ACAD_NAV_VCDISPLAY
 70
0
  0
APPID
  5
2AB
330
9
100
AcDbSymbolTableRecord
100
AcDbRegAppTableRecord
  2
AcAecLayerStandard
 70
0
  0
APPID
  5
2AC
330
9
100
AcDbSymbolTableRecord
100
AcDbRegAppTableRecord
  2
AcCmTransparency
 70
0
  0
APPID
  5
788
330
9
100
AcDbSymbolTableRecord
100
AcDbRegAppTableRecord
  2
HATCHBACKGROUNDCOLOR
 70
0
  0
APPID
  5
789
330
9
100
AcDbSymbolTableRecord
100
AcDbRegAppTableRecord
  2
EZDXF
 70
0
  0
ENDTAB
  0
TABLE
  2
DIMSTYLE
  5
A
330
0
100
AcDbSymbolTable
 70
3
100
AcDbDimStyleTable
  0
DIMSTYLE
105
1B0
330
A
100
AcDbSymbolTableRecord
100
AcDbDimStyleTableRecord
  2
Standard
 70
0
 40
1.0
 41
0.18
 42
0.0625
 43
0.38
 44
0.18
 45
0.0
 46
0.0
 47
0.0
 48
0.0
 49
1.0
 50
45.0
140
0.18
141
0.09
142
0.0
143
25.4
144
1.0
145
0.0
146
1.0
147
0.09
148
0.0
 69
0
 70
0
 71
0
 72
0
 73
1
 74
1
 75
0
 76
0
 77
1
 78
8
 79
3
170
0
171
2
172
1
173
0
174
0
175
0
176
-1056964608
177
-1056964608
178
-1056964608
179
2
271
4
272
4
273
2
274
2
275
0
276
0
277
2
278
46
279
0
280
0
281
0
282
0
283
1
284
8
285
0
286
0
288
0
289
3
290
0
340
11
371
-2
372
-2
  0
DIMSTYLE
105
137
330
A
100
AcDbSymbolTableRecord
100
AcDbDimStyleTableRecord
  2
Аннотативный
 70
0
 40
0.0
 41
2.5
 42
0.625
 43
3.75
 44
1.25
 45
0.0
 46
0.0
 47
0.0
 48
0.0
 49
1.0
 50
45.0
140
2.5
141
2.5
142
0.0
143
0.03937007874016
144
1.0
145
0.0
146
1.0
147
0.625
148
0.0
 69
0
 70
0
 71
0
 72
0
 73
0
 74
0
 75
0
 76
0
 77
1
 78
8
 79
3
170
0
171
3
172
1
173
0
174
0
175
0
176
-1056964608
177
-1056964608
178
-1056964608
179
2
271
2
272
2
273
2
274
3
275
0
276
0
277
2
278
44
279
0
280
0
281
0
282
0
283
0
284
8
285
0
286
0
288
0
289
3
290
0
340
11
371
-2
372
-2
1001
AcadAnnotative
1000
AnnotativeData
1002
{
1070
1
1070
1
1002
}
1001
ACAD_DSTYLE_DIMJAG
1070
388
1040
1.5
1001
ACAD_DSTYLE_DIMTALN
1070
392
1070
0
  0
DIMSTYLE
105
27
330
A
100
AcDbSymbolTableRecord
100
AcDbDimStyleTableRecord
  2
ISO-25
 70
0
 40
1.0
 41
2.5
 42
0.625
 43
3.75
 44
1.25
 45
0.0
 46
0.0
 47
0.0
 48
0.0
 49
1.0
 50
45.0
140
2.5
141
2.5
142
0.0
143
0.03937007874016
144
1.0
145
0.0
146
1.0
147
0.625
148
0.0
 69
0
 70
0
 71
0
 72
0
 73
0
 74
0
 75
0
 76
0
 77
1
 78
8
 79
3
170
0
171
3
172
1
173
0
174
0
175
0
176
-1056964608
177
-1056964608
178
-1056964608
179
2
271
2
272
2
273
2
274
3
275
0
276
0
277
2
278
44
279
0
280
0
281
0
282
0
283
0
284
8
285
0
286
0
288
0
289
3
290
0
340
11
371
-2
372
-2
  0
ENDTAB
  0
TABLE
  2
BLOCK_RECORD
  5
1
330
0
100
AcDbSymbolTable
 70
3
  0
BLOCK_RECORD
  5
1F
102
{ACAD_XDICTIONARY
360
1CE
102
}
330
1
100
AcDbSymbolTableRecord
100
AcDbBlockTableRecord
  2
*Model_Space
340
22
 70
0
280
1
281
0
  0
BLOCK_RECORD
  5
D2
330
1
100
AcDbSymbolTableRecord
100
AcDbBlockTableRecord
  2
*Paper_Space
340
D3
 70
0
280
1
281
0
  0
BLOCK_RECORD
  5
D6
330
1
100
AcDbSymbolTableRecord
100
AcDbBlockTableRecord
  2
*Paper_Space0
340
D7
 70
0
280
1
281
0
  0
ENDTAB
  0
ENDSEC
  0
SECTION
  2
BLOCKS
  0
BLOCK
  5
20
330
1F
100
AcDbEntity
  8
0
100
AcDbBlockBegin
  2
*Model_Space
 70
0
 10
0.0
 20
0.0
 30
0.0
  3
*Model_Space
  1

  0
ENDBLK
  5
21
330
1F
100
AcDbEntity
  8
0
100
AcDbBlockEnd
  0
BLOCK
  5
D4
330
D2
100
AcDbEntity
 67
1
  8
0
100
AcDbBlockBegin
  2
*Paper_Space
 70
0
 10
0.0
 20
0.0
 30
0.0
  3
*Paper_Space
  1

  0
ENDBLK
  5
D5
330
D2
100
AcDbEntity
 67
1
  8
0
100
AcDbBlockEnd
  0
BLOCK
  5
D8
330
D6
100
AcDbEntity
  8
0
100
AcDbBlockBegin
  2
*Paper_Space0
 70
0
 10
0.0
 20
0.0
 30
0.0
  3
*Paper_Space0
  1

  0
ENDBLK
  5
D9
330
D6
100
AcDbEntity
  8
0
100
AcDbBlockEnd
  0
ENDSEC
  0
SECTION
  2
ENTITIES
  0
POINT
  5
51C
330
1F
100
AcDbEntity
  8
Отметка
 62
1
100
AcDbPoint
 10
1249.0489999998827
 20
431.8717999999644
 30
410.839
  0
POINT
  5
51D
330
1F
100
AcDbEntity
  8
Отметка
 62
1
100
AcDbPoint
 10
1229.2247999999672
 20
433.8045999999158
 30
411.7291
  0
POINT
  5
51E
330
1F
100
AcDbEntity
  8
Отметка
 62
1
100
AcDbPoint
 10
1225.5090999999084
 20
427.6493999999948
 30
411.5265
  0
POINT
  5
51F
330
1F
100
AcDbEntity
  8
Отметка
 62
1
100
AcDbPoint
 10
1226.4479999998584
 20
417.7738999999128
 30
410.0317
  0
POINT
  5
520
330
1F
100
AcDbEntity
  8
Отметка
 62
1
100
AcDbPoint
 10
1229.4523999998346
 20
410.3717000000179
 30
410.5567
  0
POINT
  5
521
330
1F
100
AcDbEntity
  8
Отметка
 62
1
100
AcDbPoint
 10
1229.153199999826
 20
404.70959999994375
 30
410.722
  0
POINT
  5
522
330
1F
100
AcDbEntity
  8
Отметка
 62
1
100
AcDbPoint
 10
1200.2097999998368
 20
377.79449999995995
 30
421.5864
  0
POINT
  5
523
330
1F
100
AcDbEntity
  8
Отметка
 62
1
100
AcDbPoint
 10
1204.3765999998432
 20
363.92909999995027
 30
420.1851
  0
POINT
  5
524
330
1F
100
AcDbEntity
  8
Отметка
 62
1
100
AcDbPoint
 10
1207.7353000000585
 20
365.6760999999242
 30
419.8106
  0
POINT
  5
525
330
1F
100
AcDbEntity
  8
Отметка
 62
1
100
AcDbPoint
 10
1208.9805999998935
 20
355.79899999999907
 30
419.1716
  0
POINT
  5
526
330
1F
100
AcDbEntity
  8
Отметка
 62
1
100
AcDbPoint
 10
1209.2112999998499
 20
348.10149999998976
 30
419.6687
  0
POINT
  5
527
330
1F
100
AcDbEntity
  8
Отметка
 62
1
100
AcDbPoint
 10
1209.3995999998879
 20
336.71549999993294
 30
420.0526
  0
POINT
  5
528
330
1F
100
AcDbEntity
  8
Отметка
 62
1
100
AcDbPoint
 10
1207.5204999998678
 20
336.2444999999134
 30
420.0935
  0
POINT
  5
529
330
1F
100
AcDbEntity
  8
Отметка
 62
1
100
AcDbPoint
 10
1205.7626999998465
 20
333.19899999990594
 30
419.7567
  0
POINT
  5
52A
330
1F
100
AcDbEntity
  8
Отметка
 62
1
100
AcDbPoint
 10
1205.0176999999676
 20
329.89629999990575
 30
419.5553
  0
POINT
  5
52B
330
1F
100
AcDbEntity
  8
Отметка
 62
1
100
AcDbPoint
 10
1205.0198999999557
 20
329.89689999993425
 30
419.5576
  0
POINT
  5
52C
330
1F
100
AcDbEntity
  8
Отметка
 62
1
100
AcDbPoint
 10
1206.6602999998722
 20
326.8876000000164
 30
419.1998
  0
POINT
  5
52D
330
1F
100
AcDbEntity
  8
Отметка
 62
1
100
AcDbPoint
 10
1207.3596999999136
 20
320.1827999999514
 30
418.954
  0
POINT
  5
52E
330
1F
100
AcDbEntity
  8
Отметка
 62
1
100
AcDbPoint
 10
1208.2859999998473
 20
316.7267999999458
 30
418.7559
  0
POINT
  5
52F
330
1F
100
AcDbEntity
  8
Отметка
 62
1
100
AcDbPoint
 10
1218.3787999998312
 20
316.0054999999702
 30
419.8607
  0
POINT
  5
530
330
1F
100
AcDbEntity
  8
Отметка
 62
1
100
AcDbPoint
 10
1214.4573999999557
 20
316.294799999916
 30
419.857
  0
POINT
  5
531
330
1F
100
AcDbEntity
  8
Отметка
 62
1
100
AcDbPoint
 10
1216.342900000047
 20
311.1925999999512
 30
419.6963
  0
POINT
  5
532
330
1F
100
AcDbEntity
  8
Отметка
 62
1
100
AcDbPoint
 10
1218.684899999993
 20
306.9814999999944
 30
419.5965
  0
POINT
  5
533
330
1F
100
AcDbEntity
  8
Отметка
 62
1
100
AcDbPoint
 10
1219.7238000000361
 20
305.6565999999875
 30
420.0976
  0
POINT
  5
534
330
1F
100
AcDbEntity
  8
Отметка
 62
1
100
AcDbPoint
 10
1222.342900000047
 20
306.52980000001844
 30
420.9039
  0
POINT
  5
535
330
1F
100
AcDbEntity
  8
Отметка
 62
1
100
AcDbPoint
 10
1222.6613999998663
 20
306.23300000000745
 30
420.9952
  0
POINT
  5
536
330
1F
100
AcDbEntity
  8
Отметка
 62
1
100
AcDbPoint
 10
1222.6929999999702
 20
305.5424999999814
 30
420.9928
  0
POINT
  5
537
330
1F
100
AcDbEntity
  8
Отметка
 62
1
100
AcDbPoint
 10
1221.995299999835
 20
304.6880999999121
 30
420.7316
  0
POINT
  5
538
330
1F
100
AcDbEntity
  8
Отметка
 62
1
100
AcDbPoint
 10
1221.0234999998938
 20
303.8175999999512
 30
420.3618
  0
POINT
  5
539
330
1F
100
AcDbEntity
  8
Отметка
 62
1
100
AcDbPoint
 10
1220.562399999937
 20
305.9684000000125
 30
420.2002
  0
POINT
  5
53A
330
1F
100
AcDbEntity
  8
Отметка
 62
1
100
AcDbPoint
 10
1218.4542999998666
 20
305.39220000000205
 30
419.6531
  0
POINT
  5
53B
330
1F
100
AcDbEntity
  8
Отметка
 62
1
100
AcDbPoint
 10
1217.7131000000518
 20
303.2097000000067
 30
419.2555
  0
POINT
  5
53C
330
1F
100
AcDbEntity
  8
Отметка
 62
1
100
AcDbPoint
 10
1220.1062999998685
 20
301.4030999999959
 30
418.9188
  0
POINT
  5
53D
330
1F
100
AcDbEntity
  8
Отметка
 62
1
100
AcDbPoint
 10
1222.2016999998596
 20
302.92399999999907
 30
419.4082
  0
POINT
  5
53E
330
1F
100
AcDbEntity
  8
Отметка
 62
1
100
AcDbPoint
 10
1223.5973999998532
 20
305.2844000000041
 30
419.7335
  0
POINT
  5
53F
330
1F
100
AcDbEntity
  8
Отметка
 62
1
100
AcDbPoint
 10
1221.9580999999307
 20
307.65949999995064
 30
419.7704
  0
POINT
  5
540
330
1F
100
AcDbEntity
  8
Отметка
 62
1
100
AcDbPoint
 10
1218.8012999999337
 20
307.0577999999514
 30
419.5912
  0
POINT
  5
541
330
1F
100
AcDbEntity
  8
Отметка
 62
1
100
AcDbPoint
 10
1215.6451999999117
 20
318.4340999999549
 30
419.9795
  0
POINT
  5
542
330
1F
100
AcDbEntity
  8
Отметка
 62
1
100
AcDbPoint
 10
1220.7619999998715
 20
322.52350000001024
 30
420.1214
  0
POINT
  5
543
330
1F
100
AcDbEntity
  8
Отметка
 62
1
100
AcDbPoint
 10
1222.656500000041
 20
329.61819999990985
 30
420.5816
  0
POINT
  5
544
330
1F
100
AcDbEntity
  8
Отметка
 62
1
100
AcDbPoint
 10
1230.9329999999609
 20
327.52049999998417
 30
420.3266
  0
POINT
  5
545
330
1F
100
AcDbEntity
  8
Отметка
 62
1
100
AcDbPoint
 10
1230.1687000000384
 20
317.8759999999311
 30
420.0201
  0
POINT
  5
546
330
1F
100
AcDbEntity
  8
Отметка
 62
1
100
AcDbPoint
 10
1228.4949000000488
 20
304.28590000001714
 30
419.4562
  0
POINT
  5
547
330
1F
100
AcDbEntity
  8
Отметка
 62
1
100
AcDbPoint
 10
1225.847300000023
 20
298.7383999999147
 30
419.0307
  0
POINT
  5
548
330
1F
100
AcDbEntity
  8
Отметка
 62
1
100
AcDbPoint
 10
1228.3216999999713
 20
297.4305999999633
 30
419.1203
  0
POINT
  5
549
330
1F
100
AcDbEntity
  8
Отметка
 62
1
100
AcDbPoint
 10
1190.2982999999076
 20
356.4297999999253
 30
421.8532
  0
POINT
  5
54A
330
1F
100
AcDbEntity
  8
Отметка
 62
1
100
AcDbPoint
 10
1193.1071999999695
 20
359.5264999999199
 30
421.6059
  0
POINT
  5
54B
330
1F
100
AcDbEntity
  8
Отметка
 62
1
100
AcDbPoint
 10
1190.497399999993
 20
373.8043999999063
 30
421.3738
  0
POINT
  5
54C
330
1F
100
AcDbEntity
  8
Отметка
 62
1
100
AcDbPoint
 10
1199.0485999998637
 20
363.6978999999119
 30
421.4194
  0
POINT
  5
54D
330
1F
100
AcDbEntity
  8
Отметка
 62
1
100
AcDbPoint
 10
1203.7080999999307
 20
367.3548999999184
 30
421.2392
  0
POINT
  5
54E
330
1F
100
AcDbEntity
  8
Отметка
 62
1
100
AcDbPoint
 10
1208.9224999998696
 20
372.0015999999596
 30
421.3081
  0
POINT
  5
54F
330
1F
100
AcDbEntity
  8
Отметка
 62
1
100
AcDbPoint
 10
1210.874700000044
 20
383.7049999999581
 30
421.3035
  0
POINT
  5
550
330
1F
100
AcDbEntity
  8
Отметка
 62
1
100
AcDbPoint
 10
1210.5467999998946
 20
388.0396999999648
 30
420.8285
  0
POINT
  5
551
330
1F
100
AcDbEntity
  8
Отметка
 62
1
100
AcDbPoint
 10
1197.4007999999449
 20
396.1614999999292
 30
420.9704
  0
POINT
  5
552
330
1F
100
AcDbEntity
  8
Отметка
 62
1
100
AcDbPoint
 10
1192.4375999998301
 20
396.1474000000162
 30
420.9044
  0
POINT
  5
553
330
1F
100
AcDbEntity
  8
Отметка
 62
1
100
AcDbPoint
 10
1192.7705999999307
 20
404.0699999999488
 30
420.7377
  0
POINT
  5
554
330
1F
100
AcDbEntity
  8
Отметка
 62
1
100
AcDbPoint
 10
1202.623399999924
 20
403.07559999998193
 30
420.8473
  0
POINT
  5
555
330
1F
100
AcDbEntity
  8
Отметка
 62
1
100
AcDbPoint
 10
1210.5058999999892
 20
402.04749999998603
 30
420.8256
  0
POINT
  5
556
330
1F
100
AcDbEntity
  8
Отметка
 62
1
100
AcDbPoint
 10
1210.278299999889
 20
420.0477999999421
 30
420.9578
  0
POINT
  5
557
330
1F
100
AcDbEntity
  8
Отметка
 62
1
100
AcDbPoint
 10
1202.1147999998648
 20
422.5217999999877
 30
420.7796
  0
POINT
  5
558
330
1F
100
AcDbEntity
  8
Отметка
 62
1
100
AcDbPoint
 10
1192.6765999998897
 20
425.9663999999175
 30
420.4455
  0
POINT
  5
559
330
1F
100
AcDbEntity
  8
Отметка
 62
1
100
AcDbPoint
 10
1184.2025999999605
 20
427.74439999996684
 30
420.2052
  0
POINT
  5
55A
330
1F
100
AcDbEntity
  8
Отметка
 62
1
100
AcDbPoint
 10
1185.9645000000019
 20
442.6176999999443
 30
420.9467
  0
POINT
  5
55B
330
1F
100
AcDbEntity
  8
Отметка
 62
1
100
AcDbPoint
 10
1196.6358000000473
 20
441.7094999999972
 30
420.6787
  0
POINT
  5
55C
330
1F
100
AcDbEntity
  8
Отметка
 62
1
100
AcDbPoint
 10
1206.1528000000399
 20
441.85389999998733
 30
420.58
  0
POINT
  5
55D
330
1F
100
AcDbEntity
  8
Отметка
 62
1
100
AcDbPoint
 10
1209.436699999962
 20
435.95649999997113
 30
420.6471
  0
POINT
  5
55E
330
1F
100
AcDbEntity
  8
Отметка
 62
1
100
AcDbPoint
 10
1211.8192000000272
 20
439.9035000000149
 30
420.5651
  0
POINT
  5
55F
330
1F
100
AcDbEntity
  8
Отметка
 62
1
100
AcDbPoint
 10
1210.9320000000298
 20
435.48199999995995
 30
420.5841
  0
POINT
  5
560
330
1F
100
AcDbEntity
  8
Отметка
 62
1
100
AcDbPoint
 10
1205.4494000000414
 20
419.01519999990705
 30
420.843
  0
POINT
  5
561
330
1F
100
AcDbEntity
  8
Отметка
 62
1
100
AcDbPoint
 10
1204.1905999998562
 20
412.98670000000857
 30
420.7973
  0
TEXT
  5
562
330
1F
100
AcDbEntity
  8
Отметка
 62
7
100
AcDbText
 10
1249.2221999999601
 20
431.7717999999877
 30
410.839
 40
0.4
  1
410.84
  7
СПДС
100
AcDbText
  0
TEXT
  5
563
330
1F
100
AcDbEntity
  8
Отметка
 62
7
100
AcDbText
 10
1229.3980000000447
 20
433.7045999999391
 30
411.7291
 40
0.4
  1
411.73
  7
СПДС
100
AcDbText
  0
TEXT
  5
564
330
1F
100
AcDbEntity
  8
Отметка
 62
7
100
AcDbText
 10
1225.6822999999858
 20
427.54940000001807
 30
411.5265
 40
0.4
  1
411.53
  7
СПДС
100
AcDbText
  0
TEXT
  5
565
330
1F
100
AcDbEntity
  8
Отметка
 62
7
100
AcDbText
 10
1226.621199999936
 20
417.6738999999361
 30
410.0317
 40
0.4
  1
410.03
  7
СПДС
100
AcDbText
  0
TEXT
  5
566
330
1F
100
AcDbEntity
  8
Отметка
 62
7
100
AcDbText
 10
1229.625599999912
 20
410.27170000004116
 30
410.5567
 40
0.4
  1
410.56
  7
СПДС
100
AcDbText
  0
TEXT
  5
567
330
1F
100
AcDbEntity
  8
Отметка
 62
7
100
AcDbText
 10
1229.3263999999035
 20
404.60959999996703
 30
410.722
 40
0.4
  1
410.72
  7
СПДС
100
AcDbText
  0
TEXT
  5
568
330
1F
100
AcDbEntity
  8
Отметка
 62
7
100
AcDbText
 10
1200.3829999999143
 20
377.69449999998324
 30
421.5864
 40
0.4
  1
421.59
  7
СПДС
100
AcDbText
  0
TEXT
  5
569
330
1F
100
AcDbEntity
  8
Отметка
 62
7
100
AcDbText
 10
1204.5497999999207
 20
363.82909999997355
 30
420.1851
 40
0.4
  1
420.19
  7
СПДС
100
AcDbText
  0
TEXT
  5
56A
330
1F
100
AcDbEntity
  8
Отметка
 62
7
100
AcDbText
 10
1207.9084999999031
 20
365.5760999999475
 30
419.8106
 40
0.4
  1
419.81
  7
СПДС
100
AcDbText
  0
TEXT
  5
56B
330
1F
100
AcDbEntity
  8
Отметка
 62
7
100
AcDbText
 10
1209.153799999971
 20
355.69900000002235
 30
419.1716
 40
0.4
  1
419.17
  7
СПДС
100
AcDbText
  0
TEXT
  5
56C
330
1F
100
AcDbEntity
  8
Отметка
 62
7
100
AcDbText
 10
1209.3844999999274
 20
348.00150000001304
 30
419.6687
 40
0.4
  1
419.67
  7
СПДС
100
AcDbText
  0
TEXT
  5
56D
330
1F
100
AcDbEntity
  8
Отметка
 62
7
100
AcDbText
 10
1209.5727999999654
 20
336.6154999999562
 30
420.0526
 40
0.4
  1
420.05
  7
СПДС
100
AcDbText
  0
TEXT
  5
56E
330
1F
100
AcDbEntity
  8
Отметка
 62
7
100
AcDbText
 10
1207.6936999999452
 20
336.14449999993667
 30
420.0935
 40
0.4
  1
420.09
  7
СПДС
100
AcDbText
  0
TEXT
  5
56F
330
1F
100
AcDbEntity
  8
Отметка
 62
7
100
AcDbText
 10
1205.935899999924
 20
333.0989999999292
 30
419.7567
 40
0.4
  1
419.76
  7
СПДС
100
AcDbText
  0
TEXT
  5
570
330
1F
100
AcDbEntity
  8
Отметка
 62
7
100
AcDbText
 10
1205.190900000045
 20
329.79629999992903
 30
419.5553
 40
0.4
  1
419.56
  7
СПДС
100
AcDbText
  0
TEXT
  5
571
330
1F
100
AcDbEntity
  8
Отметка
 62
7
100
AcDbText
 10
1205.1931000000332
 20
329.79689999995753
 30
419.5576
 40
0.4
  1
419.56
  7
СПДС
100
AcDbText
  0
TEXT
  5
572
330
1F
100
AcDbEntity
  8
Отметка
 62
7
100
AcDbText
 10
1206.8334999999497
 20
326.7876000000397
 30
419.1998
 40
0.4
  1
419.2
  7
СПДС
100
AcDbText
  0
TEXT
  5
573
330
1F
100
AcDbEntity
  8
Отметка
 62
7
100
AcDbText
 10
1207.532899999991
 20
320.08279999997467
 30
418.954
 40
0.4
  1
418.95
  7
СПДС
100
AcDbText
  0
TEXT
  5
574
330
1F
100
AcDbEntity
  8
Отметка
 62
7
100
AcDbText
 10
1208.4591999999247
 20
316.6267999999691
 30
418.7559
 40
0.4
  1
418.76
  7
СПДС
100
AcDbText
  0
TEXT
  5
575
330
1F
100
AcDbEntity
  8
Отметка
 62
7
100
AcDbText
 10
1218.5519999999087
 20
315.9054999999935
 30
419.8607
 40
0.4
  1
419.86
  7
СПДС
100
AcDbText
  0
TEXT
  5
576
330
1F
100
AcDbEntity
  8
Отметка
 62
7
100
AcDbText
 10
1214.6306000000332
 20
316.1947999999393
 30
419.857
 40
0.4
  1
419.86
  7
СПДС
100
AcDbText
  0
TEXT
  5
577
330
1F
100
AcDbEntity
  8
Отметка
 62
7
100
AcDbText
 10
1216.5160999998916
 20
311.0925999999745
 30
419.6963
 40
0.4
  1
419.7
  7
СПДС
100
AcDbText
  0
TEXT
  5
578
330
1F
100
AcDbEntity
  8
Отметка
 62
7
100
AcDbText
 10
1218.8580999998376
 20
306.8815000000177
 30
419.5965
 40
0.4
  1
419.6
  7
СПДС
100
AcDbText
  0
TEXT
  5
579
330
1F
100
AcDbEntity
  8
Отметка
 62
7
100
AcDbText
 10
1219.8969999998808
 20
305.5566000000108
 30
420.0976
 40
0.4
  1
420.1
  7
СПДС
100
AcDbText
  0
TEXT
  5
57A
330
1F
100
AcDbEntity
  8
Отметка
 62
7
100
AcDbText
 10
1222.5160999998916
 20
306.4298000000417
 30
420.9039
 40
0.4
  1
420.9
  7
СПДС
100
AcDbText
  0
TEXT
  5
57B
330
1F
100
AcDbEntity
  8
Отметка
 62
7
100
AcDbText
 10
1222.8345999999437
 20
306.13300000003073
 30
420.9952
 40
0.4
  1
421
  7
СПДС
100
AcDbText
  0
TEXT
  5
57C
330
1F
100
AcDbEntity
  8
Отметка
 62
7
100
AcDbText
 10
1222.8662000000477
 20
305.44250000000466
 30
420.9928
 40
0.4
  1
420.99
  7
СПДС
100
AcDbText
  0
TEXT
  5
57D
330
1F
100
AcDbEntity
  8
Отметка
 62
7
100
AcDbText
 10
1222.1684999999125
 20
304.58809999993537
 30
420.7316
 40
0.4
  1
420.73
  7
СПДС
100
AcDbText
  0
TEXT
  5
57E
330
1F
100
AcDbEntity
  8
Отметка
 62
7
100
AcDbText
 10
1221.1966999999713
 20
303.7175999999745
 30
420.3618
 40
0.4
  1
420.36
  7
СПДС
100
AcDbText
  0
TEXT
  5
57F
330
1F
100
AcDbEntity
  8
Отметка
 62
7
100
AcDbText
 10
1220.7356000000145
 20
305.86840000003576
 30
420.2002
 40
0.4
  1
420.2
  7
СПДС
100
AcDbText
  0
TEXT
  5
580
330
1F
100
AcDbEntity
  8
Отметка
 62
7
100
AcDbText
 10
1218.6274999999441
 20
305.29220000002533
 30
419.6531
 40
0.4
  1
419.65
  7
СПДС
100
AcDbText
  0
TEXT
  5
581
330
1F
100
AcDbEntity
  8
Отметка
 62
7
100
AcDbText
 10
1217.8862999998964
 20
303.10970000003
 30
419.2555
 40
0.4
  1
419.26
  7
СПДС
100
AcDbText
  0
TEXT
  5
582
330
1F
100
AcDbEntity
  8
Отметка
 62
7
100
AcDbText
 10
1220.279499999946
 20
301.3031000000192
 30
418.9188
 40
0.4
  1
418.92
  7
СПДС
100
AcDbText
  0
TEXT
  5
583
330
1F
100
AcDbEntity
  8
Отметка
 62
7
100
AcDbText
 10
1222.374899999937
 20
302.82400000002235
 30
419.4082
 40
0.4
  1
419.41
  7
СПДС
100
AcDbText
  0
TEXT
  5
584
330
1F
100
AcDbEntity
  8
Отметка
 62
7
100
AcDbText
 10
1223.7705999999307
 20
305.1844000000274
 30
419.7335
 40
0.4
  1
419.73
  7
СПДС
100
AcDbText
  0
TEXT
  5
585
330
1F
100
AcDbEntity
  8
Отметка
 62
7
100
AcDbText
 10
1222.1313000000082
 20
307.5594999999739
 30
419.7704
 40
0.4
  1
419.77
  7
СПДС
100
AcDbText
  0
TEXT
  5
586
330
1F
100
AcDbEntity
  8
Отметка
 62
7
100
AcDbText
 10
1218.9745000000112
 20
306.95779999997467
 30
419.5912
 40
0.4
  1
419.59
  7
СПДС
100
AcDbText
  0
TEXT
  5
587
330
1F
100
AcDbEntity
  8
Отметка
 62
7
100
AcDbText
 10
1215.8183999999892
 20
318.3340999999782
 30
419.9795
 40
0.4
  1
419.98
  7
СПДС
100
AcDbText
  0
TEXT
  5
588
330
1F
100
AcDbEntity
  8
Отметка
 62
7
100
AcDbText
 10
1220.935199999949
 20
322.4235000000335
 30
420.1214
 40
0.4
  1
420.12
  7
СПДС
100
AcDbText
  0
TEXT
  5
589
330
1F
100
AcDbEntity
  8
Отметка
 62
7
100
AcDbText
 10
1222.8296999998856
 20
329.51819999993313
 30
420.5816
 40
0.4
  1
420.58
  7
СПДС
100
AcDbText
  0
TEXT
  5
58A
330
1F
100
AcDbEntity
  8
Отметка
 62
7
100
AcDbText
 10
1231.1062000000384
 20
327.42050000000745
 30
420.3266
 40
0.4
  1
420.33
  7
СПДС
100
AcDbText
  0
TEXT
  5
58B
330
1F
100
AcDbEntity
  8
Отметка
 62
7
100
AcDbText
 10
1230.341899999883
 20
317.77599999995437
 30
420.0201
 40
0.4
  1
420.02
  7
СПДС
100
AcDbText
  0
TEXT
  5
58C
330
1F
100
AcDbEntity
  8
Отметка
 62
7
100
AcDbText
 10
1228.6680999998935
 20
304.1859000000404
 30
419.4562
 40
0.4
  1
419.46
  7
СПДС
100
AcDbText
  0
TEXT
  5
58D
330
1F
100
AcDbEntity
  8
Отметка
 62
7
100
AcDbText
 10
1226.0204999998678
 20
298.638399999938
 30
419.0307
 40
0.4
  1
419.03
  7
СПДС
100
AcDbText
  0
TEXT
  5
58E
330
1F
100
AcDbEntity
  8
Отметка
 62
7
100
AcDbText
 10
1228.4949000000488
 20
297.3305999999866
 30
419.1203
 40
0.4
  1
419.12
  7
СПДС
100
AcDbText
  0
TEXT
  5
58F
330
1F
100
AcDbEntity
  8
Отметка
 62
7
100
AcDbText
 10
1190.471499999985
 20
356.3297999999486
 30
421.8532
 40
0.4
  1
421.85
  7
СПДС
100
AcDbText
  0
TEXT
  5
590
330
1F
100
AcDbEntity
  8
Отметка
 62
7
100
AcDbText
 10
1193.280400000047
 20
359.4264999999432
 30
421.6059
 40
0.4
  1
421.61
  7
СПДС
100
AcDbText
  0
TEXT
  5
591
330
1F
100
AcDbEntity
  8
Отметка
 62
7
100
AcDbText
 10
1190.6705999998376
 20
373.7043999999296
 30
421.3738
 40
0.4
  1
421.37
  7
СПДС
100
AcDbText
  0
TEXT
  5
592
330
1F
100
AcDbEntity
  8
Отметка
 62
7
100
AcDbText
 10
1199.2217999999411
 20
363.5978999999352
 30
421.4194
 40
0.4
  1
421.42
  7
СПДС
100
AcDbText
  0
TEXT
  5
593
330
1F
100
AcDbEntity
  8
Отметка
 62
7
100
AcDbText
 10
1203.8813000000082
 20
367.2548999999417
 30
421.2392
 40
0.4
  1
421.24
  7
СПДС
100
AcDbText
  0
TEXT
  5
594
330
1F
100
AcDbEntity
  8
Отметка
 62
7
100
AcDbText
 10
1209.095699999947
 20
371.90159999998286
 30
421.3081
 40
0.4
  1
421.31
  7
СПДС
100
AcDbText
  0
TEXT
  5
595
330
1F
100
AcDbEntity
  8
Отметка
 62
7
100
AcDbText
 10
1211.0478999998886
 20
383.6049999999814
 30
421.3035
 40
0.4
  1
421.3
  7
СПДС
100
AcDbText
  0
TEXT
  5
596
330
1F
100
AcDbEntity
  8
Отметка
 62
7
100
AcDbText
 10
1210.719999999972
 20
387.9396999999881
 30
420.8285
 40
0.4
  1
420.83
  7
СПДС
100
AcDbText
  0
TEXT
  5
597
330
1F
100
AcDbEntity
  8
Отметка
 62
7
100
AcDbText
 10
1197.5740000000224
 20
396.0614999999525
 30
420.9704
 40
0.4
  1
420.97
  7
СПДС
100
AcDbText
  0
TEXT
  5
598
330
1F
100
AcDbEntity
  8
Отметка
 62
7
100
AcDbText
 10
1192.6107999999076
 20
396.0474000000395
 30
420.9044
 40
0.4
  1
420.9
  7
СПДС
100
AcDbText
  0
TEXT
  5
599
330
1F
100
AcDbEntity
  8
Отметка
 62
7
100
AcDbText
 10
1192.9438000000082
 20
403.96999999997206
 30
420.7377
 40
0.4
  1
420.74
  7
СПДС
100
AcDbText
  0
TEXT
  5
59A
330
1F
100
AcDbEntity
  8
Отметка
 62
7
100
AcDbText
 10
1202.7966000000015
 20
402.9756000000052
 30
420.8473
 40
0.4
  1
420.85
  7
СПДС
100
AcDbText
  0
TEXT
  5
59B
330
1F
100
AcDbEntity
  8
Отметка
 62
7
100
AcDbText
 10
1210.6790999998339
 20
401.9475000000093
 30
420.8256
 40
0.4
  1
420.83
  7
СПДС
100
AcDbText
  0
TEXT
  5
59C
330
1F
100
AcDbEntity
  8
Отметка
 62
7
100
AcDbText
 10
1210.4514999999665
 20
419.94779999996535
 30
420.9578
 40
0.4
  1
420.96
  7
СПДС
100
AcDbText
  0
TEXT
  5
59D
330
1F
100
AcDbEntity
  8
Отметка
 62
7
100
AcDbText
 10
1202.2879999999423
 20
422.421800000011
 30
420.7796
 40
0.4
  1
420.78
  7
СПДС
100
AcDbText
  0
TEXT
  5
59E
330
1F
100
AcDbEntity
  8
Отметка
 62
7
100
AcDbText
 10
1192.8497999999672
 20
425.86639999994077
 30
420.4455
 40
0.4
  1
420.45
  7
СПДС
100
AcDbText
  0
TEXT
  5
59F
330
1F
100
AcDbEntity
  8
Отметка
 62
7
100
AcDbText
 10
1184.375800000038
 20
427.6443999999901
 30
420.2052
 40
0.4
  1
420.21
  7
СПДС
100
AcDbText
  0
TEXT
  5
5A0
330
1F
100
AcDbEntity
  8
Отметка
 62
7
100
AcDbText
 10
1186.1376999998465
 20
442.5176999999676
 30
420.9467
 40
0.4
  1
420.95
  7
СПДС
100
AcDbText
  0
TEXT
  5
5A1
330
1F
100
AcDbEntity
  8
Отметка
 62
7
100
AcDbText
 10
1196.808999999892
 20
441.6095000000205
 30
420.6787
 40
0.4
  1
420.68
  7
СПДС
100
AcDbText
  0
TEXT
  5
5A2
330
1F
100
AcDbEntity
  8
Отметка
 62
7
100
AcDbText
 10
1206.3259999998845
 20
441.7539000000106
 30
420.58
 40
0.4
  1
420.58
  7
СПДС
100
AcDbText
  0
TEXT
  5
5A3
330
1F
100
AcDbEntity
  8
Отметка
 62
7
100
AcDbText
 10
1209.6099000000395
 20
435.8564999999944
 30
420.6471
 40
0.4
  1
420.65
  7
СПДС
100
AcDbText
  0
TEXT
  5
5A4
330
1F
100
AcDbEntity
  8
Отметка
 62
7
100
AcDbText
 10
1211.9923999998719
 20
439.8035000000382
 30
420.5651
 40
0.4
  1
420.57
  7
СПДС
100
AcDbText
  0
TEXT
  5
5A5
330
1F
100
AcDbEntity
  8
Отметка
 62
7
100
AcDbText
 10
1211.1051999998745
 20
435.38199999998324
 30
420.5841
 40
0.4
  1
420.58
  7
СПДС
100
AcDbText
  0
TEXT
  5
5A6
330
1F
100
AcDbEntity
  8
Отметка
 62
7
100
AcDbText
 10
1205.622599999886
 20
418.91519999993034
 30
420.843
 40
0.4
  1
420.84
  7
СПДС
100
AcDbText
  0
TEXT
  5
5A7
330
1F
100
AcDbEntity
  8
Отметка
 62
7
100
AcDbText
 10
1204.3637999999337
 20
412.88670000003185
 30
420.7973
 40
0.4
  1
420.8
  7
СПДС
100
AcDbText
  0
POINT
  5
5A8
330
1F
100
AcDbEntity
  8
Отметка
 62
1
100
AcDbPoint
 10
1199.689800000051
 20
442.36939999996684
 30
420.5769
  0
POINT
  5
5A9
330
1F
100
AcDbEntity
  8
Отметка
 62
1
100
AcDbPoint
 10
1203.5460999999195
 20
438.1720000000205
 30
420.5318
  0
POINT
  5
5AA
330
1F
100
AcDbEntity
  8
Отметка
 62
1
100
AcDbPoint
 10
1207.315500000026
 20
437.16849999991246
 30
420.7041
  0
POINT
  5
5AB
330
1F
100
AcDbEntity
  8
Отметка
 62
1
100
AcDbPoint
 10
1210.4346000000369
 20
438.11149999999907
 30
420.9176
  0
POINT
  5
5AC
330
1F
100
AcDbEntity
  8
Отметка
 62
1
100
AcDbPoint
 10
1210.747800000012
 20
435.60129999998026
 30
420.7038
  0
POINT
  5
5AD
330
1F
100
AcDbEntity
  8
Отметка
 62
1
100
AcDbPoint
 10
1210.6282999999821
 20
429.9172999999719
 30
420.746
  0
POINT
  5
5AE
330
1F
100
AcDbEntity
  8
Отметка
 62
1
100
AcDbPoint
 10
1210.4491999999154
 20
423.03249999997206
 30
421.0857
  0
POINT
  5
5AF
330
1F
100
AcDbEntity
  8
Отметка
 62
1
100
AcDbPoint
 10
1210.1115999999456
 20
418.1272999999346
 30
421.0086
  0
POINT
  5
5B0
330
1F
100
AcDbEntity
  8
Отметка
 62
1
100
AcDbPoint
 10
1209.7728999999817
 20
413.3647999999812
 30
420.7298
  0
POINT
  5
5B1
330
1F
100
AcDbEntity
  8
Отметка
 62
1
100
AcDbPoint
 10
1210.031599999871
 20
408.5100000000093
 30
420.7611
  0
POINT
  5
5B2
330
1F
100
AcDbEntity
  8
Отметка
 62
1
100
AcDbPoint
 10
1210.782600000035
 20
402.1408999999985
 30
420.6741
  0
POINT
  5
5B3
330
1F
100
AcDbEntity
  8
Отметка
 62
1
100
AcDbPoint
 10
1210.7293999998365
 20
396.2163999999175
 30
420.4963
  0
POINT
  5
5B4
330
1F
100
AcDbEntity
  8
Отметка
 62
1
100
AcDbPoint
 10
1210.3478999999352
 20
391.30329999991227
 30
420.7685
  0
POINT
  5
5B5
330
1F
100
AcDbEntity
  8
Отметка
 62
1
100
AcDbPoint
 10
1211.3320999999996
 20
384.98549999995157
 30
421.0362
  0
POINT
  5
5B6
330
1F
100
AcDbEntity
  8
Отметка
 62
1
100
AcDbPoint
 10
1207.463899999857
 20
393.5080999999773
 30
421.0191
  0
POINT
  5
5B7
330
1F
100
AcDbEntity
  8
Отметка
 62
1
100
AcDbPoint
 10
1203.7708000000566
 20
398.5311999999685
 30
420.9799
  0
POINT
  5
5B8
330
1F
100
AcDbEntity
  8
Отметка
 62
1
100
AcDbPoint
 10
1201.088599999901
 20
402.64509999996517
 30
420.9282
  0
POINT
  5
5B9
330
1F
100
AcDbEntity
  8
Отметка
 62
1
100
AcDbPoint
 10
1196.8046999999788
 20
403.5865999999223
 30
420.8968
  0
POINT
  5
5BA
330
1F
100
AcDbEntity
  8
Отметка
 62
1
100
AcDbPoint
 10
1193.559899999993
 20
402.7695999999996
 30
420.6343
  0
POINT
  5
5BB
330
1F
100
AcDbEntity
  8
Отметка
 62
1
100
AcDbPoint
 10
1189.3273999998346
 20
401.2870999999577
 30
420.3188
  0
POINT
  5
5BC
330
1F
100
AcDbEntity
  8
Отметка
 62
1
100
AcDbPoint
 10
1189.716000000015
 20
396.28129999991506
 30
420.8196
  0
POINT
  5
5BD
330
1F
100
AcDbEntity
  8
Отметка
 62
1
100
AcDbPoint
 10
1192.2308999998495
 20
396.19739999994636
 30
420.9638
  0
POINT
  5
5BE
330
1F
100
AcDbEntity
  8
Отметка
 62
1
100
AcDbPoint
 10
1195.0778999999166
 20
395.7174999999115
 30
421.0182
  0
POINT
  5
5BF
330
1F
100
AcDbEntity
  8
Отметка
 62
1
100
AcDbPoint
 10
1197.8788999998942
 20
395.01309999998193
 30
421.1047
  0
POINT
  5
5C0
330
1F
100
AcDbEntity
  8
Отметка
 62
1
100
AcDbPoint
 10
1199.8854999998584
 20
393.5807999999961
 30
421.0846
  0
POINT
  5
5C1
330
1F
100
AcDbEntity
  8
Отметка
 62
1
100
AcDbPoint
 10
1201.05709999986
 20
390.9329999999609
 30
421.2131
  0
POINT
  5
5C2
330
1F
100
AcDbEntity
  8
Отметка
 62
1
100
AcDbPoint
 10
1199.9558999999426
 20
387.6893999999156
 30
421.3469
  0
POINT
  5
5C3
330
1F
100
AcDbEntity
  8
Отметка
 62
1
100
AcDbPoint
 10
1199.1366999999154
 20
385.05039999994915
 30
421.5404
  0
POINT
  5
5C4
330
1F
100
AcDbEntity
  8
Отметка
 62
1
100
AcDbPoint
 10
1201.27649999992
 20
381.4118000000017
 30
421.4155
  0
POINT
  5
5C5
330
1F
100
AcDbEntity
  8
Отметка
 62
1
100
AcDbPoint
 10
1204.9279999998398
 20
381.7198999999091
 30
421.4039
  0
POINT
  5
5C6
330
1F
100
AcDbEntity
  8
Отметка
 62
1
100
AcDbPoint
 10
1209.7324999999255
 20
380.3068000000203
 30
421.3034
  0
POINT
  5
5C7
330
1F
100
AcDbEntity
  8
Отметка
 62
1
100
AcDbPoint
 10
1199.1307999999262
 20
371.139199999976
 30
421.3618
  0
POINT
  5
5C8
330
1F
100
AcDbEntity
  8
Отметка
 62
1
100
AcDbPoint
 10
1188.4912000000477
 20
365.4258999999147
 30
421.4414
  0
POINT
  5
5C9
330
1F
100
AcDbEntity
  8
Отметка
 62
1
100
AcDbPoint
 10
1192.0474999998696
 20
366.7017999999225
 30
421.4698
  0
POINT
  5
5CA
330
1F
100
AcDbEntity
  8
Отметка
 62
1
100
AcDbPoint
 10
1197.8667999999598
 20
369.07909999997355
 30
421.3684
  0
POINT
  5
5CB
330
1F
100
AcDbEntity
  8
Отметка
 62
1
100
AcDbPoint
 10
1203.2086999998428
 20
370.6777999999467
 30
421.3184
  0
POINT
  5
5CC
330
1F
100
AcDbEntity
  8
Отметка
 62
1
100
AcDbPoint
 10
1208.2356999998447
 20
366.28109999990556
 30
419.9861
  0
POINT
  5
5CD
330
1F
100
AcDbEntity
  8
Отметка
 62
1
100
AcDbPoint
 10
1207.9416999998502
 20
366.4157000000123
 30
420.0821
  0
POINT
  5
5CE
330
1F
100
AcDbEntity
  8
Отметка
 62
1
100
AcDbPoint
 10
1204.7611999998335
 20
363.60959999996703
 30
420.0926
  0
POINT
  5
5CF
330
1F
100
AcDbEntity
  8
Отметка
 62
1
100
AcDbPoint
 10
1201.282099999953
 20
360.66579999995884
 30
419.5309
  0
POINT
  5
5D0
330
1F
100
AcDbEntity
  8
Отметка
 62
1
100
AcDbPoint
 10
1199.1178999999538
 20
359.951699999976
 30
419.3727
  0
POINT
  5
5D1
330
1F
100
AcDbEntity
  8
Отметка
 62
1
100
AcDbPoint
 10
1196.9801999998745
 20
357.7666999999201
 30
419.1421
  0
POINT
  5
5D2
330
1F
100
AcDbEntity
  8
Отметка
 62
1
100
AcDbPoint
 10
1194.0067000000272
 20
355.2245999999577
 30
419.3757
  0
POINT
  5
5D3
330
1F
100
AcDbEntity
  8
Отметка
 62
1
100
AcDbPoint
 10
1191.1293999999762
 20
351.43519999994896
 30
419.868
  0
POINT
  5
5D4
330
1F
100
AcDbEntity
  8
Отметка
 62
1
100
AcDbPoint
 10
1188.0109999999404
 20
345.27350000001024
 30
419.0279
  0
POINT
  5
5D5
330
1F
100
AcDbEntity
  8
Отметка
 62
1
100
AcDbPoint
 10
1188.4492999999784
 20
343.5492999999551
 30
418.7547
  0
POINT
  5
5D6
330
1F
100
AcDbEntity
  8
Отметка
 62
1
100
AcDbPoint
 10
1192.719999999972
 20
347.2369999999646
 30
419.9079
  0
POINT
  5
5D7
330
1F
100
AcDbEntity
  8
Отметка
 62
1
100
AcDbPoint
 10
1196.3947999998927
 20
350.16559999994934
 30
419.9798
  0
POINT
  5
5D8
330
1F
100
AcDbEntity
  8
Отметка
 62
1
100
AcDbPoint
 10
1198.0556999999098
 20
350.33539999998175
 30
419.9815
  0
POINT
  5
5D9
330
1F
100
AcDbEntity
  8
Отметка
 62
1
100
AcDbPoint
 10
1199.4894999999087
 20
352.9678999999305
 30
419.8595
  0
POINT
  5
5DA
330
1F
100
AcDbEntity
  8
Отметка
 62
1
100
AcDbPoint
 10
1201.2458999999799
 20
355.56809999991674
 30
419.5553
  0
POINT
  5
5DB
330
1F
100
AcDbEntity
  8
Отметка
 62
1
100
AcDbPoint
 10
1203.4006000000518
 20
354.7664999999106
 30
419.3205
  0
POINT
  5
5DC
330
1F
100
AcDbEntity
  8
Отметка
 62
1
100
AcDbPoint
 10
1205.6318999999203
 20
356.40279999992345
 30
419.1413
  0
POINT
  5
5DD
330
1F
100
AcDbEntity
  8
Отметка
 62
1
100
AcDbPoint
 10
1206.9254999998957
 20
360.96919999993406
 30
419.7533
  0
POINT
  5
5DE
330
1F
100
AcDbEntity
  8
Отметка
 62
1
100
AcDbPoint
 10
1208.5518000000156
 20
363.5416999999434
 30
419.7012
  0
POINT
  5
5DF
330
1F
100
AcDbEntity
  8
Отметка
 62
1
100
AcDbPoint
 10
1210.4146000000183
 20
359.6770999999717
 30
420.1777
  0
POINT
  5
5E0
330
1F
100
AcDbEntity
  8
Отметка
 62
1
100
AcDbPoint
 10
1209.7972999999765
 20
357.9258999999147
 30
419.5362
  0
POINT
  5
5E1
330
1F
100
AcDbEntity
  8
Отметка
 62
1
100
AcDbPoint
 10
1209.0711999998894
 20
354.13059999991674
 30
419.6588
  0
POINT
  5
5E2
330
1F
100
AcDbEntity
  8
Отметка
 62
1
100
AcDbPoint
 10
1209.531299999915
 20
349.97299999999814
 30
419.9157
  0
POINT
  5
5E3
330
1F
100
AcDbEntity
  8
Отметка
 62
1
100
AcDbPoint
 10
1210.9240999999456
 20
339.9405999999726
 30
420.2892
  0
POINT
  5
5E4
330
1F
100
AcDbEntity
  8
Отметка
 62
1
100
AcDbPoint
 10
1210.8914999999106
 20
336.3660999999847
 30
420.2875
  0
POINT
  5
5E5
330
1F
100
AcDbEntity
  8
Отметка
 62
1
100
AcDbPoint
 10
1212.1961999998894
 20
329.04799999995157
 30
421.7964
  0
POINT
  5
5E6
330
1F
100
AcDbEntity
  8
Отметка
 62
1
100
AcDbPoint
 10
1212.2680999999866
 20
330.637999999919
 30
421.9641
  0
POINT
  5
5E7
330
1F
100
AcDbEntity
  8
Отметка
 62
1
100
AcDbPoint
 10
1211.8870999999344
 20
332.1734999999171
 30
421.8717
  0
POINT
  5
5E8
330
1F
100
AcDbEntity
  8
Отметка
 62
1
100
AcDbPoint
 10
1210.3044999998529
 20
334.06869999994524
 30
421.6616
  0
POINT
  5
5E9
330
1F
100
AcDbEntity
  8
Отметка
 62
1
100
AcDbPoint
 10
1208.0992000000551
 20
333.73609999998007
 30
420.9782
  0
POINT
  5
5EA
330
1F
100
AcDbEntity
  8
Отметка
 62
1
100
AcDbPoint
 10
1207.0069999999832
 20
337.155700000003
 30
420.2049
  0
POINT
  5
5EB
330
1F
100
AcDbEntity
  8
Отметка
 62
1
100
AcDbPoint
 10
1205.372699999949
 20
339.99809999996796
 30
420.161
  0
POINT
  5
5EC
330
1F
100
AcDbEntity
  8
Отметка
 62
1
100
AcDbPoint
 10
1201.9777999999933
 20
341.14339999994263
 30
420.0452
  0
POINT
  5
5ED
330
1F
100
AcDbEntity
  8
Отметка
 62
1
100
AcDbPoint
 10
1200.3617000000086
 20
335.2876999999862
 30
419.6416
  0
POINT
  5
5EE
330
1F
100
AcDbEntity
  8
Отметка
 62
1
100
AcDbPoint
 10
1196.8629999998957
 20
337.1035999999149
 30
419.5064
  0
POINT
  5
5EF
330
1F
100
AcDbEntity
  8
Отметка
 62
1
100
AcDbPoint
 10
1193.5213999999687
 20
338.18880000000354
 30
419.0752
  0
POINT
  5
5F0
330
1F
100
AcDbEntity
  8
Отметка
 62
1
100
AcDbPoint
 10
1190.3011000000406
 20
338.98769999993965
 30
418.8053
  0
POINT
  5
5F1
330
1F
100
AcDbEntity
  8
Отметка
 62
1
100
AcDbPoint
 10
1192.7038000000175
 20
333.2055999999866
 30
418.9365
  0
POINT
  5
5F2
330
1F
100
AcDbEntity
  8
Отметка
 62
1
100
AcDbPoint
 10
1198.431399999885
 20
332.186699999962
 30
419.3487
  0
POINT
  5
5F3
330
1F
100
AcDbEntity
  8
Отметка
 62
1
100
AcDbPoint
 10
1200.9921999999788
 20
327.87939999997616
 30
418.9792
  0
POINT
  5
5F4
330
1F
100
AcDbEntity
  8
Отметка
 62
1
100
AcDbPoint
 10
1195.558999999892
 20
326.8532000000123
 30
419.0486
  0
POINT
  5
5F5
330
1F
100
AcDbEntity
  8
Отметка
 62
1
100
AcDbPoint
 10
1197.874499999918
 20
322.43759999994654
 30
418.3948
  0
POINT
  5
5F6
330
1F
100
AcDbEntity
  8
Отметка
 62
1
100
AcDbPoint
 10
1199.96809999994
 20
318.6781999999657
 30
418.3922
  0
POINT
  5
5F7
330
1F
100
AcDbEntity
  8
Отметка
 62
1
100
AcDbPoint
 10
1202.3543000000063
 20
314.6884999999311
 30
418.5831
  0
POINT
  5
5F8
330
1F
100
AcDbEntity
  8
Отметка
 62
1
100
AcDbPoint
 10
1207.028599999845
 20
311.31929999997374
 30
419.3788
  0
POINT
  5
5F9
330
1F
100
AcDbEntity
  8
Отметка
 62
1
100
AcDbPoint
 10
1190.1492999999318
 20
391.66949999995995
 30
422.6933
  0
POINT
  5
5FA
330
1F
100
AcDbEntity
  8
Отметка
 62
1
100
AcDbPoint
 10
1192.2378999998327
 20
392.1931999999797
 30
422.7018
  0
POINT
  5
5FB
330
1F
100
AcDbEntity
  8
Отметка
 62
1
100
AcDbPoint
 10
1195.3830999999773
 20
392.80550000001676
 30
422.9164
  0
POINT
  5
5FC
330
1F
100
AcDbEntity
  8
Отметка
 62
1
100
AcDbPoint
 10
1195.9919000000227
 20
390.02579999994487
 30
422.9631
  0
POINT
  5
5FD
330
1F
100
AcDbEntity
  8
Отметка
 62
1
100
AcDbPoint
 10
1194.782899999991
 20
386.6350000000093
 30
423.0031
  0
POINT
  5
5FE
330
1F
100
AcDbEntity
  8
Отметка
 62
1
100
AcDbPoint
 10
1191.6154000000097
 20
386.5551999999443
 30
422.698
  0
POINT
  5
5FF
330
1F
100
AcDbEntity
  8
Отметка
 62
1
100
AcDbPoint
 10
1188.967100000009
 20
385.45369999995455
 30
422.575
  0
POINT
  5
600
330
1F
100
AcDbEntity
  8
Отметка
 62
1
100
AcDbPoint
 10
1188.8326999999117
 20
382.0727000000188
 30
421.8379
  0
POINT
  5
601
330
1F
100
AcDbEntity
  8
Отметка
 62
1
100
AcDbPoint
 10
1189.4884999999776
 20
376.6202999999514
 30
421.7213
  0
POINT
  5
602
330
1F
100
AcDbEntity
  8
Отметка
 62
1
100
AcDbPoint
 10
1191.6333999999333
 20
374.05629999993835
 30
421.2942
  0
POINT
  5
603
330
1F
100
AcDbEntity
  8
Отметка
 62
1
100
AcDbPoint
 10
1196.7549000000581
 20
374.7025999999605
 30
421.3756
  0
POINT
  5
604
330
1F
100
AcDbEntity
  8
Отметка
 62
1
100
AcDbPoint
 10
1202.031299999915
 20
374.4590999999782
 30
421.4347
  0
POINT
  5
605
330
1F
100
AcDbEntity
  8
Отметка
 62
1
100
AcDbPoint
 10
1209.182499999879
 20
375.903699999908
 30
421.2568
  0
POINT
  5
606
330
1F
100
AcDbEntity
  8
Отметка
 62
1
100
AcDbPoint
 10
1209.0485000000335
 20
371.47589999996126
 30
421.2576
  0
POINT
  5
607
330
1F
100
AcDbEntity
  8
Отметка
 62
1
100
AcDbPoint
 10
1204.405000000028
 20
367.904499999946
 30
421.774
  0
POINT
  5
608
330
1F
100
AcDbEntity
  8
Отметка
 62
1
100
AcDbPoint
 10
1200.684099999955
 20
364.9221999999136
 30
421.4741
  0
POINT
  5
609
330
1F
100
AcDbEntity
  8
Отметка
 62
1
100
AcDbPoint
 10
1196.1628999998793
 20
362.20349999994505
 30
421.6957
  0
POINT
  5
60A
330
1F
100
AcDbEntity
  8
Отметка
 62
1
100
AcDbPoint
 10
1191.2700000000186
 20
357.49359999992885
 30
421.7905
  0
POINT
  5
60B
330
1F
100
AcDbEntity
  8
Отметка
 62
1
100
AcDbPoint
 10
1186.0119999998715
 20
347.52330000000075
 30
421.1379
  0
POINT
  5
60C
330
1F
100
AcDbEntity
  8
Отметка
 62
1
100
AcDbPoint
 10
1186.2404999998398
 20
342.5671999999322
 30
420.9636
  0
POINT
  5
60D
330
1F
100
AcDbEntity
  8
Отметка
 62
1
100
AcDbPoint
 10
1188.6783000000287
 20
335.9207999999635
 30
420.7045
  0
POINT
  5
60E
330
1F
100
AcDbEntity
  8
Отметка
 62
1
100
AcDbPoint
 10
1182.9013000000268
 20
334.54749999998603
 30
420.4052
  0
POINT
  5
60F
330
1F
100
AcDbEntity
  8
Отметка
 62
1
100
AcDbPoint
 10
1189.780099999858
 20
324.72549999994226
 30
420.0719
  0
POINT
  5
610
330
1F
100
AcDbEntity
  8
Отметка
 62
1
100
AcDbPoint
 10
1193.6115999999456
 20
325.51459999999497
 30
420.3454
  0
POINT
  5
611
330
1F
100
AcDbEntity
  8
Отметка
 62
1
100
AcDbPoint
 10
1197.8510000000242
 20
317.1860999999335
 30
419.8406
  0
POINT
  5
612
330
1F
100
AcDbEntity
  8
Отметка
 62
1
100
AcDbPoint
 10
1193.9919000000227
 20
315.73569999996107
 30
419.6278
  0
POINT
  5
613
330
1F
100
AcDbEntity
  8
Отметка
 62
1
100
AcDbPoint
 10
1189.310199999949
 20
313.01169999991544
 30
419.687
  0
POINT
  5
614
330
1F
100
AcDbEntity
  8
Отметка
 62
1
100
AcDbPoint
 10
1193.869999999879
 20
308.0705999999773
 30
419.2022
  0
POINT
  5
615
330
1F
100
AcDbEntity
  8
Отметка
 62
1
100
AcDbPoint
 10
1202.4259999999776
 20
311.33069999993313
 30
419.4894
  0
POINT
  5
616
330
1F
100
AcDbEntity
  8
Отметка
 62
1
100
AcDbPoint
 10
1210.1665000000503
 20
311.9458999999333
 30
419.3466
  0
POINT
  5
617
330
1F
100
AcDbEntity
  8
Отметка
 62
1
100
AcDbPoint
 10
1215.312200000044
 20
315.4576999999117
 30
419.855
  0
POINT
  5
618
330
1F
100
AcDbEntity
  8
Отметка
 62
1
100
AcDbPoint
 10
1222.5128999999724
 20
316.8024999999907
 30
419.981
  0
POINT
  5
619
330
1F
100
AcDbEntity
  8
Отметка
 62
1
100
AcDbPoint
 10
1218.2889999998733
 20
319.9295999999158
 30
420.0212
  0
POINT
  5
61A
330
1F
100
AcDbEntity
  8
Отметка
 62
1
100
AcDbPoint
 10
1216.4820999999065
 20
326.36839999991935
 30
420.2836
  0
POINT
  5
61B
330
1F
100
AcDbEntity
  8
Отметка
 62
1
100
AcDbPoint
 10
1213.4161000000313
 20
331.47080000001006
 30
420.4281
  0
POINT
  5
61C
330
1F
100
AcDbEntity
  8
Отметка
 62
1
100
AcDbPoint
 10
1218.0788000000175
 20
330.4616999999853
 30
420.6061
  0
POINT
  5
61D
330
1F
100
AcDbEntity
  8
Отметка
 62
1
100
AcDbPoint
 10
1226.0054999999702
 20
330.1259999999311
 30
420.236
  0
POINT
  5
61E
330
1F
100
AcDbEntity
  8
Отметка
 62
1
100
AcDbPoint
 10
1230.342299999902
 20
328.59379999991506
 30
420.2473
  0
POINT
  5
61F
330
1F
100
AcDbEntity
  8
Отметка
 62
1
100
AcDbPoint
 10
1231.0504999998957
 20
325.8810999999987
 30
420.1886
  0
POINT
  5
620
330
1F
100
AcDbEntity
  8
Отметка
 62
1
100
AcDbPoint
 10
1231.0508999999147
 20
325.88139999995474
 30
420.1868
  0
POINT
  5
621
330
1F
100
AcDbEntity
  8
Отметка
 62
1
100
AcDbPoint
 10
1230.8981999999378
 20
320.41929999995045
 30
420.0483
  0
POINT
  5
622
330
1F
100
AcDbEntity
  8
Отметка
 62
1
100
AcDbPoint
 10
1229.7834999999031
 20
312.844700000016
 30
419.9286
  0
POINT
  5
623
330
1F
100
AcDbEntity
  8
Отметка
 62
1
100
AcDbPoint
 10
1229.0703000000212
 20
308.49809999996796
 30
419.8475
  0
POINT
  5
624
330
1F
100
AcDbEntity
  8
Отметка
 62
1
100
AcDbPoint
 10
1225.7086999998428
 20
310.1597999999067
 30
419.8379
  0
POINT
  5
625
330
1F
100
AcDbEntity
  8
Отметка
 62
1
100
AcDbPoint
 10
1217.7531999999192
 20
308.23399999993853
 30
419.5827
  0
POINT
  5
626
330
1F
100
AcDbEntity
  8
Отметка
 62
1
100
AcDbPoint
 10
1212.5855999998748
 20
304.7942000000039
 30
419.2343
  0
POINT
  5
627
330
1F
100
AcDbEntity
  8
Отметка
 62
1
100
AcDbPoint
 10
1206.25
 20
303.3373999999603
 30
419.1638
  0
TEXT
  5
628
330
1F
100
AcDbEntity
  8
Отметка
 62
7
100
AcDbText
 10
1199.8629999998957
 20
442.2693999999901
 30
420.5769
 40
0.4
  1
420.58
  7
СПДС
100
AcDbText
  0
TEXT
  5
629
330
1F
100
AcDbEntity
  8
Отметка
 62
7
100
AcDbText
 10
1203.719299999997
 20
438.0720000000438
 30
420.5318
 40
0.4
  1
420.53
  7
СПДС
100
AcDbText
  0
TEXT
  5
62A
330
1F
100
AcDbEntity
  8
Отметка
 62
7
100
AcDbText
 10
1207.4886999998707
 20
437.06849999993574
 30
420.7041
 40
0.4
  1
420.7
  7
СПДС
100
AcDbText
  0
TEXT
  5
62B
330
1F
100
AcDbEntity
  8
Отметка
 62
7
100
AcDbText
 10
1210.6077999998815
 20
438.01150000002235
 30
420.9176
 40
0.4
  1
420.92
  7
СПДС
100
AcDbText
  0
TEXT
  5
62C
330
1F
100
AcDbEntity
  8
Отметка
 62
7
100
AcDbText
 10
1210.9209999998566
 20
435.50130000000354
 30
420.7038
 40
0.4
  1
420.7
  7
СПДС
100
AcDbText
  0
TEXT
  5
62D
330
1F
100
AcDbEntity
  8
Отметка
 62
7
100
AcDbText
 10
1210.8014999998268
 20
429.81729999999516
 30
420.746
 40
0.4
  1
420.75
  7
СПДС
100
AcDbText
  0
TEXT
  5
62E
330
1F
100
AcDbEntity
  8
Отметка
 62
7
100
AcDbText
 10
1210.622399999993
 20
422.93249999999534
 30
421.0857
 40
0.4
  1
421.09
  7
СПДС
100
AcDbText
  0
TEXT
  5
62F
330
1F
100
AcDbEntity
  8
Отметка
 62
7
100
AcDbText
 10
1210.284800000023
 20
418.0272999999579
 30
421.0086
 40
0.4
  1
421.01
  7
СПДС
100
AcDbText
  0
TEXT
  5
630
330
1F
100
AcDbEntity
  8
Отметка
 62
7
100
AcDbText
 10
1209.9460999998264
 20
413.26480000000447
 30
420.7298
 40
0.4
  1
420.73
  7
СПДС
100
AcDbText
  0
TEXT
  5
631
330
1F
100
AcDbEntity
  8
Отметка
 62
7
100
AcDbText
 10
1210.2047999999486
 20
408.4100000000326
 30
420.7611
 40
0.4
  1
420.76
  7
СПДС
100
AcDbText
  0
TEXT
  5
632
330
1F
100
AcDbEntity
  8
Отметка
 62
7
100
AcDbText
 10
1210.9557999998797
 20
402.0409000000218
 30
420.6741
 40
0.4
  1
420.67
  7
СПДС
100
AcDbText
  0
TEXT
  5
633
330
1F
100
AcDbEntity
  8
Отметка
 62
7
100
AcDbText
 10
1210.902599999914
 20
396.11639999994077
 30
420.4963
 40
0.4
  1
420.5
  7
СПДС
100
AcDbText
  0
TEXT
  5
634
330
1F
100
AcDbEntity
  8
Отметка
 62
7
100
AcDbText
 10
1210.5211000000127
 20
391.20329999993555
 30
420.7685
 40
0.4
  1
420.77
  7
СПДС
100
AcDbText
  0
TEXT
  5
635
330
1F
100
AcDbEntity
  8
Отметка
 62
7
100
AcDbText
 10
1211.5052999998443
 20
384.88549999997485
 30
421.0362
 40
0.4
  1
421.04
  7
СПДС
100
AcDbText
  0
TEXT
  5
636
330
1F
100
AcDbEntity
  8
Отметка
 62
7
100
AcDbText
 10
1207.6370999999344
 20
393.40810000000056
 30
421.0191
 40
0.4
  1
421.02
  7
СПДС
100
AcDbText
  0
TEXT
  5
637
330
1F
100
AcDbEntity
  8
Отметка
 62
7
100
AcDbText
 10
1203.9439999999013
 20
398.4311999999918
 30
420.9799
 40
0.4
  1
420.98
  7
СПДС
100
AcDbText
  0
TEXT
  5
638
330
1F
100
AcDbEntity
  8
Отметка
 62
7
100
AcDbText
 10
1201.2617999999784
 20
402.54509999998845
 30
420.9282
 40
0.4
  1
420.93
  7
СПДС
100
AcDbText
  0
TEXT
  5
639
330
1F
100
AcDbEntity
  8
Отметка
 62
7
100
AcDbText
 10
1196.9779000000563
 20
403.4865999999456
 30
420.8968
 40
0.4
  1
420.9
  7
СПДС
100
AcDbText
  0
TEXT
  5
63A
330
1F
100
AcDbEntity
  8
Отметка
 62
7
100
AcDbText
 10
1193.7330999998376
 20
402.6696000000229
 30
420.6343
 40
0.4
  1
420.63
  7
СПДС
100
AcDbText
  0
TEXT
  5
63B
330
1F
100
AcDbEntity
  8
Отметка
 62
7
100
AcDbText
 10
1189.500599999912
 20
401.187099999981
 30
420.3188
 40
0.4
  1
420.32
  7
СПДС
100
AcDbText
  0
TEXT
  5
63C
330
1F
100
AcDbEntity
  8
Отметка
 62
7
100
AcDbText
 10
1189.8891999998596
 20
396.18129999993835
 30
420.8196
 40
0.4
  1
420.82
  7
СПДС
100
AcDbText
  0
TEXT
  5
63D
330
1F
100
AcDbEntity
  8
Отметка
 62
7
100
AcDbText
 10
1192.404099999927
 20
396.09739999996964
 30
420.9638
 40
0.4
  1
420.96
  7
СПДС
100
AcDbText
  0
TEXT
  5
63E
330
1F
100
AcDbEntity
  8
Отметка
 62
7
100
AcDbText
 10
1195.251099999994
 20
395.6174999999348
 30
421.0182
 40
0.4
  1
421.02
  7
СПДС
100
AcDbText
  0
TEXT
  5
63F
330
1F
100
AcDbEntity
  8
Отметка
 62
7
100
AcDbText
 10
1198.0520999999717
 20
394.9131000000052
 30
421.1047
 40
0.4
  1
421.1
  7
СПДС
100
AcDbText
  0
TEXT
  5
640
330
1F
100
AcDbEntity
  8
Отметка
 62
7
100
AcDbText
 10
1200.058699999936
 20
393.48080000001937
 30
421.0846
 40
0.4
  1
421.08
  7
СПДС
100
AcDbText
  0
TEXT
  5
641
330
1F
100
AcDbEntity
  8
Отметка
 62
7
100
AcDbText
 10
1201.2302999999374
 20
390.83299999998417
 30
421.2131
 40
0.4
  1
421.21
  7
СПДС
100
AcDbText
  0
TEXT
  5
642
330
1F
100
AcDbEntity
  8
Отметка
 62
7
100
AcDbText
 10
1200.1291000000201
 20
387.5893999999389
 30
421.3469
 40
0.4
  1
421.35
  7
СПДС
100
AcDbText
  0
TEXT
  5
643
330
1F
100
AcDbEntity
  8
Отметка
 62
7
100
AcDbText
 10
1199.309899999993
 20
384.95039999997243
 30
421.5404
 40
0.4
  1
421.54
  7
СПДС
100
AcDbText
  0
TEXT
  5
644
330
1F
100
AcDbEntity
  8
Отметка
 62
7
100
AcDbText
 10
1201.4496999999974
 20
381.31180000002496
 30
421.4155
 40
0.4
  1
421.42
  7
СПДС
100
AcDbText
  0
TEXT
  5
645
330
1F
100
AcDbEntity
  8
Отметка
 62
7
100
AcDbText
 10
1205.1011999999173
 20
381.6198999999324
 30
421.4039
 40
0.4
  1
421.4
  7
СПДС
100
AcDbText
  0
TEXT
  5
646
330
1F
100
AcDbEntity
  8
Отметка
 62
7
100
AcDbText
 10
1209.905700000003
 20
380.2068000000436
 30
421.3034
 40
0.4
  1
421.3
  7
СПДС
100
AcDbText
  0
TEXT
  5
647
330
1F
100
AcDbEntity
  8
Отметка
 62
7
100
AcDbText
 10
1199.3040000000037
 20
371.03919999999925
 30
421.3618
 40
0.4
  1
421.36
  7
СПДС
100
AcDbText
  0
TEXT
  5
648
330
1F
100
AcDbEntity
  8
Отметка
 62
7
100
AcDbText
 10
1188.6643999998923
 20
365.325899999938
 30
421.4414
 40
0.4
  1
421.44
  7
СПДС
100
AcDbText
  0
TEXT
  5
649
330
1F
100
AcDbEntity
  8
Отметка
 62
7
100
AcDbText
 10
1192.220699999947
 20
366.6017999999458
 30
421.4698
 40
0.4
  1
421.47
  7
СПДС
100
AcDbText
  0
TEXT
  5
64A
330
1F
100
AcDbEntity
  8
Отметка
 62
7
100
AcDbText
 10
1198.0400000000373
 20
368.97909999999683
 30
421.3684
 40
0.4
  1
421.37
  7
СПДС
100
AcDbText
  0
TEXT
  5
64B
330
1F
100
AcDbEntity
  8
Отметка
 62
7
100
AcDbText
 10
1203.3818999999203
 20
370.57779999997
 30
421.3184
 40
0.4
  1
421.32
  7
СПДС
100
AcDbText
  0
TEXT
  5
64C
330
1F
100
AcDbEntity
  8
Отметка
 62
7
100
AcDbText
 10
1208.4088999999221
 20
366.18109999992885
 30
419.9861
 40
0.4
  1
419.99
  7
СПДС
100
AcDbText
  0
TEXT
  5
64D
330
1F
100
AcDbEntity
  8
Отметка
 62
7
100
AcDbText
 10
1208.1148999999277
 20
366.3157000000356
 30
420.0821
 40
0.4
  1
420.08
  7
СПДС
100
AcDbText
  0
TEXT
  5
64E
330
1F
100
AcDbEntity
  8
Отметка
 62
7
100
AcDbText
 10
1204.934399999911
 20
363.5095999999903
 30
420.0926
 40
0.4
  1
420.09
  7
СПДС
100
AcDbText
  0
TEXT
  5
64F
330
1F
100
AcDbEntity
  8
Отметка
 62
7
100
AcDbText
 10
1201.4553000000305
 20
360.5657999999821
 30
419.5309
 40
0.4
  1
419.53
  7
СПДС
100
AcDbText
  0
TEXT
  5
650
330
1F
100
AcDbEntity
  8
Отметка
 62
7
100
AcDbText
 10
1199.2911000000313
 20
359.85169999999925
 30
419.3727
 40
0.4
  1
419.37
  7
СПДС
100
AcDbText
  0
TEXT
  5
651
330
1F
100
AcDbEntity
  8
Отметка
 62
7
100
AcDbText
 10
1197.153399999952
 20
357.6666999999434
 30
419.1421
 40
0.4
  1
419.14
  7
СПДС
100
AcDbText
  0
TEXT
  5
652
330
1F
100
AcDbEntity
  8
Отметка
 62
7
100
AcDbText
 10
1194.1798999998719
 20
355.124599999981
 30
419.3757
 40
0.4
  1
419.38
  7
СПДС
100
AcDbText
  0
TEXT
  5
653
330
1F
100
AcDbEntity
  8
Отметка
 62
7
100
AcDbText
 10
1191.3026000000536
 20
351.33519999997225
 30
419.868
 40
0.4
  1
419.87
  7
СПДС
100
AcDbText
  0
TEXT
  5
654
330
1F
100
AcDbEntity
  8
Отметка
 62
7
100
AcDbText
 10
1188.1842000000179
 20
345.1735000000335
 30
419.0279
 40
0.4
  1
419.03
  7
СПДС
100
AcDbText
  0
TEXT
  5
655
330
1F
100
AcDbEntity
  8
Отметка
 62
7
100
AcDbText
 10
1188.6225000000559
 20
343.4492999999784
 30
418.7547
 40
0.4
  1
418.75
  7
СПДС
100
AcDbText
  0
TEXT
  5
656
330
1F
100
AcDbEntity
  8
Отметка
 62
7
100
AcDbText
 10
1192.8932000000495
 20
347.1369999999879
 30
419.9079
 40
0.4
  1
419.91
  7
СПДС
100
AcDbText
  0
TEXT
  5
657
330
1F
100
AcDbEntity
  8
Отметка
 62
7
100
AcDbText
 10
1196.5679999999702
 20
350.0655999999726
 30
419.9798
 40
0.4
  1
419.98
  7
СПДС
100
AcDbText
  0
TEXT
  5
658
330
1F
100
AcDbEntity
  8
Отметка
 62
7
100
AcDbText
 10
1198.2288999999873
 20
350.23540000000503
 30
419.9815
 40
0.4
  1
419.98
  7
СПДС
100
AcDbText
  0
TEXT
  5
659
330
1F
100
AcDbEntity
  8
Отметка
 62
7
100
AcDbText
 10
1199.6626999999862
 20
352.8678999999538
 30
419.8595
 40
0.4
  1
419.86
  7
СПДС
100
AcDbText
  0
TEXT
  5
65A
330
1F
100
AcDbEntity
  8
Отметка
 62
7
100
AcDbText
 10
1201.4191000000574
 20
355.46809999994
 30
419.5553
 40
0.4
  1
419.56
  7
СПДС
100
AcDbText
  0
TEXT
  5
65B
330
1F
100
AcDbEntity
  8
Отметка
 62
7
100
AcDbText
 10
1203.5737999998964
 20
354.6664999999339
 30
419.3205
 40
0.4
  1
419.32
  7
СПДС
100
AcDbText
  0
TEXT
  5
65C
330
1F
100
AcDbEntity
  8
Отметка
 62
7
100
AcDbText
 10
1205.8050999999978
 20
356.3027999999467
 30
419.1413
 40
0.4
  1
419.14
  7
СПДС
100
AcDbText
  0
TEXT
  5
65D
330
1F
100
AcDbEntity
  8
Отметка
 62
7
100
AcDbText
 10
1207.0986999999732
 20
360.86919999995735
 30
419.7533
 40
0.4
  1
419.75
  7
СПДС
100
AcDbText
  0
TEXT
  5
65E
330
1F
100
AcDbEntity
  8
Отметка
 62
7
100
AcDbText
 10
1208.7249999998603
 20
363.44169999996666
 30
419.7012
 40
0.4
  1
419.7
  7
СПДС
100
AcDbText
  0
TEXT
  5
65F
330
1F
100
AcDbEntity
  8
Отметка
 62
7
100
AcDbText
 10
1210.587799999863
 20
359.57709999999497
 30
420.1777
 40
0.4
  1
420.18
  7
СПДС
100
AcDbText
  0
TEXT
  5
660
330
1F
100
AcDbEntity
  8
Отметка
 62
7
100
AcDbText
 10
1209.970500000054
 20
357.825899999938
 30
419.5362
 40
0.4
  1
419.54
  7
СПДС
100
AcDbText
  0
TEXT
  5
661
330
1F
100
AcDbEntity
  8
Отметка
 62
7
100
AcDbText
 10
1209.2443999999668
 20
354.03059999994
 30
419.6588
 40
0.4
  1
419.66
  7
СПДС
100
AcDbText
  0
TEXT
  5
662
330
1F
100
AcDbEntity
  8
Отметка
 62
7
100
AcDbText
 10
1209.7044999999925
 20
349.8730000000214
 30
419.9157
 40
0.4
  1
419.92
  7
СПДС
100
AcDbText
  0
TEXT
  5
663
330
1F
100
AcDbEntity
  8
Отметка
 62
7
100
AcDbText
 10
1210.002600000007
 20
345.41419999999925
 30
421.4657
 40
0.4
  1
421.47
  7
СПДС
100
AcDbText
  0
TEXT
  5
664
330
1F
100
AcDbEntity
  8
Отметка
 62
7
100
AcDbText
 10
1210.6000999999233
 20
342.2704000000376
 30
421.784
 40
0.4
  1
421.78
  7
СПДС
100
AcDbText
  0
TEXT
  5
665
330
1F
100
AcDbEntity
  8
Отметка
 62
7
100
AcDbText
 10
1211.097300000023
 20
339.8405999999959
 30
420.2892
 40
0.4
  1
420.29
  7
СПДС
100
AcDbText
  0
TEXT
  5
666
330
1F
100
AcDbEntity
  8
Отметка
 62
7
100
AcDbText
 10
1211.064699999988
 20
336.266100000008
 30
420.2875
 40
0.4
  1
420.29
  7
СПДС
100
AcDbText
  0
TEXT
  5
667
330
1F
100
AcDbEntity
  8
Отметка
 62
7
100
AcDbText
 10
1212.3693999999668
 20
328.94799999997485
 30
421.7964
 40
0.4
  1
421.8
  7
СПДС
100
AcDbText
  0
TEXT
  5
668
330
1F
100
AcDbEntity
  8
Отметка
 62
7
100
AcDbText
 10
1212.4412999998312
 20
330.53799999994226
 30
421.9641
 40
0.4
  1
421.96
  7
СПДС
100
AcDbText
  0
TEXT
  5
669
330
1F
100
AcDbEntity
  8
Отметка
 62
7
100
AcDbText
 10
1212.060300000012
 20
332.0734999999404
 30
421.8717
 40
0.4
  1
421.87
  7
СПДС
100
AcDbText
  0
TEXT
  5
66A
330
1F
100
AcDbEntity
  8
Отметка
 62
7
100
AcDbText
 10
1210.4776999999303
 20
333.9686999999685
 30
421.6616
 40
0.4
  1
421.66
  7
СПДС
100
AcDbText
  0
TEXT
  5
66B
330
1F
100
AcDbEntity
  8
Отметка
 62
7
100
AcDbText
 10
1208.2723999998998
 20
333.63610000000335
 30
420.9782
 40
0.4
  1
420.98
  7
СПДС
100
AcDbText
  0
TEXT
  5
66C
330
1F
100
AcDbEntity
  8
Отметка
 62
7
100
AcDbText
 10
1207.180199999828
 20
337.05570000002626
 30
420.2049
 40
0.4
  1
420.2
  7
СПДС
100
AcDbText
  0
TEXT
  5
66D
330
1F
100
AcDbEntity
  8
Отметка
 62
7
100
AcDbText
 10
1205.5459000000264
 20
339.89809999999125
 30
420.161
 40
0.4
  1
420.16
  7
СПДС
100
AcDbText
  0
TEXT
  5
66E
330
1F
100
AcDbEntity
  8
Отметка
 62
7
100
AcDbText
 10
1202.150999999838
 20
341.0433999999659
 30
420.0452
 40
0.4
  1
420.05
  7
СПДС
100
AcDbText
  0
TEXT
  5
66F
330
1F
100
AcDbEntity
  8
Отметка
 62
7
100
AcDbText
 10
1200.5348999998532
 20
335.1877000000095
 30
419.6416
 40
0.4
  1
419.64
  7
СПДС
100
AcDbText
  0
TEXT
  5
670
330
1F
100
AcDbEntity
  8
Отметка
 62
7
100
AcDbText
 10
1197.0361999999732
 20
337.00359999993816
 30
419.5064
 40
0.4
  1
419.51
  7
СПДС
100
AcDbText
  0
TEXT
  5
671
330
1F
100
AcDbEntity
  8
Отметка
 62
7
100
AcDbText
 10
1193.6946000000462
 20
338.0888000000268
 30
419.0752
 40
0.4
  1
419.08
  7
СПДС
100
AcDbText
  0
TEXT
  5
672
330
1F
100
AcDbEntity
  8
Отметка
 62
7
100
AcDbText
 10
1190.4742999998853
 20
338.88769999996293
 30
418.8053
 40
0.4
  1
418.81
  7
СПДС
100
AcDbText
  0
TEXT
  5
673
330
1F
100
AcDbEntity
  8
Отметка
 62
7
100
AcDbText
 10
1192.8769999998622
 20
333.1056000000099
 30
418.9365
 40
0.4
  1
418.94
  7
СПДС
100
AcDbText
  0
TEXT
  5
674
330
1F
100
AcDbEntity
  8
Отметка
 62
7
100
AcDbText
 10
1198.6045999999624
 20
332.0866999999853
 30
419.3487
 40
0.4
  1
419.35
  7
СПДС
100
AcDbText
  0
TEXT
  5
675
330
1F
100
AcDbEntity
  8
Отметка
 62
7
100
AcDbText
 10
1201.1654000000563
 20
327.77939999999944
 30
418.9792
 40
0.4
  1
418.98
  7
СПДС
100
AcDbText
  0
TEXT
  5
676
330
1F
100
AcDbEntity
  8
Отметка
 62
7
100
AcDbText
 10
1195.7321999999695
 20
326.7532000000356
 30
419.0486
 40
0.4
  1
419.05
  7
СПДС
100
AcDbText
  0
TEXT
  5
677
330
1F
100
AcDbEntity
  8
Отметка
 62
7
100
AcDbText
 10
1198.0476999999955
 20
322.3375999999698
 30
418.3948
 40
0.4
  1
418.39
  7
СПДС
100
AcDbText
  0
TEXT
  5
678
330
1F
100
AcDbEntity
  8
Отметка
 62
7
100
AcDbText
 10
1200.1413000000175
 20
318.578199999989
 30
418.3922
 40
0.4
  1
418.39
  7
СПДС
100
AcDbText
  0
TEXT
  5
679
330
1F
100
AcDbEntity
  8
Отметка
 62
7
100
AcDbText
 10
1202.527499999851
 20
314.58849999995437
 30
418.5831
 40
0.4
  1
418.58
  7
СПДС
100
AcDbText
  0
TEXT
  5
67A
330
1F
100
AcDbEntity
  8
Отметка
 62
7
100
AcDbText
 10
1207.2017999999225
 20
311.219299999997
 30
419.3788
 40
0.4
  1
419.38
  7
СПДС
100
AcDbText
  0
TEXT
  5
67B
330
1F
100
AcDbEntity
  8
Отметка
 62
7
100
AcDbText
 10
1190.3225000000093
 20
391.56949999998324
 30
422.6933
 40
0.4
  1
422.69
  7
СПДС
100
AcDbText
  0
TEXT
  5
67C
330
1F
100
AcDbEntity
  8
Отметка
 62
7
100
AcDbText
 10
1192.4110999999102
 20
392.093200000003
 30
422.7018
 40
0.4
  1
422.7
  7
СПДС
100
AcDbText
  0
TEXT
  5
67D
330
1F
100
AcDbEntity
  8
Отметка
 62
7
100
AcDbText
 10
1195.5563000000548
 20
392.70550000004005
 30
422.9164
 40
0.4
  1
422.92
  7
СПДС
100
AcDbText
  0
TEXT
  5
67E
330
1F
100
AcDbEntity
  8
Отметка
 62
7
100
AcDbText
 10
1196.1650999998674
 20
389.92579999996815
 30
422.9631
 40
0.4
  1
422.96
  7
СПДС
100
AcDbText
  0
TEXT
  5
67F
330
1F
100
AcDbEntity
  8
Отметка
 62
7
100
AcDbText
 10
1194.9560999998357
 20
386.5350000000326
 30
423.0031
 40
0.4
  1
423
  7
СПДС
100
AcDbText
  0
TEXT
  5
680
330
1F
100
AcDbEntity
  8
Отметка
 62
7
100
AcDbText
 10
1191.7885999998543
 20
386.4551999999676
 30
422.698
 40
0.4
  1
422.7
  7
СПДС
100
AcDbText
  0
TEXT
  5
681
330
1F
100
AcDbEntity
  8
Отметка
 62
7
100
AcDbText
 10
1189.1402999998536
 20
385.35369999997783
 30
422.575
 40
0.4
  1
422.58
  7
СПДС
100
AcDbText
  0
TEXT
  5
682
330
1F
100
AcDbEntity
  8
Отметка
 62
7
100
AcDbText
 10
1189.0058999999892
 20
381.9727000000421
 30
421.8379
 40
0.4
  1
421.84
  7
СПДС
100
AcDbText
  0
TEXT
  5
683
330
1F
100
AcDbEntity
  8
Отметка
 62
7
100
AcDbText
 10
1189.6617000000551
 20
376.52029999997467
 30
421.7213
 40
0.4
  1
421.72
  7
СПДС
100
AcDbText
  0
TEXT
  5
684
330
1F
100
AcDbEntity
  8
Отметка
 62
7
100
AcDbText
 10
1191.8066000000108
 20
373.95629999996163
 30
421.2942
 40
0.4
  1
421.29
  7
СПДС
100
AcDbText
  0
TEXT
  5
685
330
1F
100
AcDbEntity
  8
Отметка
 62
7
100
AcDbText
 10
1196.9280999999028
 20
374.6025999999838
 30
421.3756
 40
0.4
  1
421.38
  7
СПДС
100
AcDbText
  0
TEXT
  5
686
330
1F
100
AcDbEntity
  8
Отметка
 62
7
100
AcDbText
 10
1202.2044999999925
 20
374.3591000000015
 30
421.4347
 40
0.4
  1
421.43
  7
СПДС
100
AcDbText
  0
TEXT
  5
687
330
1F
100
AcDbEntity
  8
Отметка
 62
7
100
AcDbText
 10
1209.3556999999564
 20
375.80369999993127
 30
421.2568
 40
0.4
  1
421.26
  7
СПДС
100
AcDbText
  0
TEXT
  5
688
330
1F
100
AcDbEntity
  8
Отметка
 62
7
100
AcDbText
 10
1209.2216999998782
 20
371.37589999998454
 30
421.2576
 40
0.4
  1
421.26
  7
СПДС
100
AcDbText
  0
TEXT
  5
689
330
1F
100
AcDbEntity
  8
Отметка
 62
7
100
AcDbText
 10
1204.5781999998726
 20
367.80449999996927
 30
421.774
 40
0.4
  1
421.77
  7
СПДС
100
AcDbText
  0
TEXT
  5
68A
330
1F
100
AcDbEntity
  8
Отметка
 62
7
100
AcDbText
 10
1200.8573000000324
 20
364.82219999993686
 30
421.4741
 40
0.4
  1
421.47
  7
СПДС
100
AcDbText
  0
TEXT
  5
68B
330
1F
100
AcDbEntity
  8
Отметка
 62
7
100
AcDbText
 10
1196.3360999999568
 20
362.10349999996834
 30
421.6957
 40
0.4
  1
421.7
  7
СПДС
100
AcDbText
  0
TEXT
  5
68C
330
1F
100
AcDbEntity
  8
Отметка
 62
7
100
AcDbText
 10
1191.4431999998633
 20
357.39359999995213
 30
421.7905
 40
0.4
  1
421.79
  7
СПДС
100
AcDbText
  0
TEXT
  5
68D
330
1F
100
AcDbEntity
  8
Отметка
 62
7
100
AcDbText
 10
1186.185199999949
 20
347.423300000024
 30
421.1379
 40
0.4
  1
421.14
  7
СПДС
100
AcDbText
  0
TEXT
  5
68E
330
1F
100
AcDbEntity
  8
Отметка
 62
7
100
AcDbText
 10
1186.4136999999173
 20
342.4671999999555
 30
420.9636
 40
0.4
  1
420.96
  7
СПДС
100
AcDbText
  0
TEXT
  5
68F
330
1F
100
AcDbEntity
  8
Отметка
 62
7
100
AcDbText
 10
1188.8514999998733
 20
335.8207999999868
 30
420.7045
 40
0.4
  1
420.7
  7
СПДС
100
AcDbText
  0
TEXT
  5
690
330
1F
100
AcDbEntity
  8
Отметка
 62
7
100
AcDbText
 10
1183.0744999998715
 20
334.4475000000093
 30
420.4052
 40
0.4
  1
420.41
  7
СПДС
100
AcDbText
  0
TEXT
  5
691
330
1F
100
AcDbEntity
  8
Отметка
 62
7
100
AcDbText
 10
1189.9532999999356
 20
324.62549999996554
 30
420.0719
 40
0.4
  1
420.07
  7
СПДС
100
AcDbText
  0
TEXT
  5
692
330
1F
100
AcDbEntity
  8
Отметка
 62
7
100
AcDbText
 10
1193.784800000023
 20
325.41460000001825
 30
420.3454
 40
0.4
  1
420.35
  7
СПДС
100
AcDbText
  0
TEXT
  5
693
330
1F
100
AcDbEntity
  8
Отметка
 62
7
100
AcDbText
 10
1198.0241999998689
 20
317.0860999999568
 30
419.8406
 40
0.4
  1
419.84
  7
СПДС
100
AcDbText
  0
TEXT
  5
694
330
1F
100
AcDbEntity
  8
Отметка
 62
7
100
AcDbText
 10
1194.1650999998674
 20
315.63569999998435
 30
419.6278
 40
0.4
  1
419.63
  7
СПДС
100
AcDbText
  0
TEXT
  5
695
330
1F
100
AcDbEntity
  8
Отметка
 62
7
100
AcDbText
 10
1189.4834000000264
 20
312.9116999999387
 30
419.687
 40
0.4
  1
419.69
  7
СПДС
100
AcDbText
  0
TEXT
  5
696
330
1F
100
AcDbEntity
  8
Отметка
 62
7
100
AcDbText
 10
1194.0431999999564
 20
307.97060000000056
 30
419.2022
 40
0.4
  1
419.2
  7
СПДС
100
AcDbText
  0
TEXT
  5
697
330
1F
100
AcDbEntity
  8
Отметка
 62
7
100
AcDbText
 10
1202.5992000000551
 20
311.2306999999564
 30
419.4894
 40
0.4
  1
419.49
  7
СПДС
100
AcDbText
  0
TEXT
  5
698
330
1F
100
AcDbEntity
  8
Отметка
 62
7
100
AcDbText
 10
1210.339699999895
 20
311.8458999999566
 30
419.3466
 40
0.4
  1
419.35
  7
СПДС
100
AcDbText
  0
TEXT
  5
699
330
1F
100
AcDbEntity
  8
Отметка
 62
7
100
AcDbText
 10
1215.4853999998886
 20
315.357699999935
 30
419.855
 40
0.4
  1
419.86
  7
СПДС
100
AcDbText
  0
TEXT
  5
69A
330
1F
100
AcDbEntity
  8
Отметка
 62
7
100
AcDbText
 10
1222.68610000005
 20
316.70250000001397
 30
419.981
 40
0.4
  1
419.98
  7
СПДС
100
AcDbText
  0
TEXT
  5
69B
330
1F
100
AcDbEntity
  8
Отметка
 62
7
100
AcDbText
 10
1218.4621999999508
 20
319.8295999999391
 30
420.0212
 40
0.4
  1
420.02
  7
СПДС
100
AcDbText
  0
TEXT
  5
69C
330
1F
100
AcDbEntity
  8
Отметка
 62
7
100
AcDbText
 10
1216.655299999984
 20
326.26839999994263
 30
420.2836
 40
0.4
  1
420.28
  7
СПДС
100
AcDbText
  0
TEXT
  5
69D
330
1F
100
AcDbEntity
  8
Отметка
 62
7
100
AcDbText
 10
1213.589299999876
 20
331.37080000003334
 30
420.4281
 40
0.4
  1
420.43
  7
СПДС
100
AcDbText
  0
TEXT
  5
69E
330
1F
100
AcDbEntity
  8
Отметка
 62
7
100
AcDbText
 10
1218.2519999998622
 20
330.36170000000857
 30
420.6061
 40
0.4
  1
420.61
  7
СПДС
100
AcDbText
  0
TEXT
  5
69F
330
1F
100
AcDbEntity
  8
Отметка
 62
7
100
AcDbText
 10
1226.1787000000477
 20
330.02599999995437
 30
420.236
 40
0.4
  1
420.24
  7
СПДС
100
AcDbText
  0
TEXT
  5
6A0
330
1F
100
AcDbEntity
  8
Отметка
 62
7
100
AcDbText
 10
1230.5154999999795
 20
328.49379999993835
 30
420.2473
 40
0.4
  1
420.25
  7
СПДС
100
AcDbText
  0
TEXT
  5
6A1
330
1F
100
AcDbEntity
  8
Отметка
 62
7
100
AcDbText
 10
1231.2236999999732
 20
325.781100000022
 30
420.1886
 40
0.4
  1
420.19
  7
СПДС
100
AcDbText
  0
TEXT
  5
6A2
330
1F
100
AcDbEntity
  8
Отметка
 62
7
100
AcDbText
 10
1231.2240999999922
 20
325.781399999978
 30
420.1868
 40
0.4
  1
420.19
  7
СПДС
100
AcDbText
  0
TEXT
  5
6A3
330
1F
100
AcDbEntity
  8
Отметка
 62
7
100
AcDbText
 10
1231.0714000000153
 20
320.31929999997374
 30
420.0483
 40
0.4
  1
420.05
  7
СПДС
100
AcDbText
  0
TEXT
  5
6A4
330
1F
100
AcDbEntity
  8
Отметка
 62
7
100
AcDbText
 10
1229.9566999999806
 20
312.7447000000393
 30
419.9286
 40
0.4
  1
419.93
  7
СПДС
100
AcDbText
  0
TEXT
  5
6A5
330
1F
100
AcDbEntity
  8
Отметка
 62
7
100
AcDbText
 10
1229.243499999866
 20
308.39809999999125
 30
419.8475
 40
0.4
  1
419.85
  7
СПДС
100
AcDbText
  0
TEXT
  5
6A6
330
1F
100
AcDbEntity
  8
Отметка
 62
7
100
AcDbText
 10
1225.8818999999203
 20
310.05979999992996
 30
419.8379
 40
0.4
  1
419.84
  7
СПДС
100
AcDbText
  0
TEXT
  5
6A7
330
1F
100
AcDbEntity
  8
Отметка
 62
7
100
AcDbText
 10
1217.9263999999966
 20
308.1339999999618
 30
419.5827
 40
0.4
  1
419.58
  7
СПДС
100
AcDbText
  0
TEXT
  5
6A8
330
1F
100
AcDbEntity
  8
Отметка
 62
7
100
AcDbText
 10
1212.7587999999523
 20
304.6942000000272
 30
419.2343
 40
0.4
  1
419.23
  7
СПДС
100
AcDbText
  0
TEXT
  5
6A9
330
1F
100
AcDbEntity
  8
Отметка
 62
7
100
AcDbText
 10
1206.4231999998447
 20
303.2373999999836
 30
419.1638
 40
0.4
  1
419.16
  7
СПДС
100
AcDbText
  0
POLYLINE
  5
6AA
330
1F
100
AcDbEntity
  8
Горизонт +410
100
AcDb3dPolyline
 66
1
 10
0.0
 20
0.0
 30
0.0
 70
8
  0
VERTEX
  5
6AB
330
6AA
100
AcDbEntity
  8
Горизонт +410
100
AcDbVertex
100
AcDb3dPolylineVertex
 10
1190.1492999999318
 20
391.66949999995995
 30
422.6933
 70
32
  0
VERTEX
  5
6AC
330
6AA
100
AcDbEntity
  8
Горизонт +410
100
AcDbVertex
100
AcDb3dPolylineVertex
 10
1192.2378999998327
 20
392.1931999999797
 30
422.7018
 70
32
  0
VERTEX
  5
6AD
330
6AA
100
AcDbEntity
  8
Горизонт +410
100
AcDbVertex
100
AcDb3dPolylineVertex
 10
1195.3830999999773
 20
392.80550000001676
 30
422.9164
 70
32
  0
VERTEX
  5
6AE
330
6AA
100
AcDbEntity
  8
Горизонт +410
100
AcDbVertex
100
AcDb3dPolylineVertex
 10
1195.9919000000227
 20
390.02579999994487
 30
422.9631
 70
32
  0
VERTEX
  5
6AF
330
6AA
100
AcDbEntity
  8
Горизонт +410
100
AcDbVertex
100
AcDb3dPolylineVertex
 10
1194.782899999991
 20
386.6350000000093
 30
423.0031
 70
32
  0
VERTEX
  5
6B0
330
6AA
100
AcDbEntity
  8
Горизонт +410
100
AcDbVertex
100
AcDb3dPolylineVertex
 10
1191.6154000000097
 20
386.5551999999443
 30
422.698
 70
32
  0
VERTEX
  5
6B1
330
6AA
100
AcDbEntity
  8
Горизонт +410
100
AcDbVertex
100
AcDb3dPolylineVertex
 10
1188.967100000009
 20
385.45369999995455
 30
422.575
 70
32
  0
SEQEND
  5
6B2
330
6AA
100
AcDbEntity
  8
Горизонт +410
  0
POLYLINE
  5
6B3
330
1F
100
AcDbEntity
  8
Горизонт +410
100
AcDb3dPolyline
 66
1
 10
0.0
 20
0.0
 30
0.0
 70
8
  0
VERTEX
  5
6B4
330
6B3
100
AcDbEntity
  8
Горизонт +410
100
AcDbVertex
100
AcDb3dPolylineVertex
 10
1199.1366999999154
 20
385.05039999994915
 30
421.5404
 70
32
  0
VERTEX
  5
6B5
330
6B3
100
AcDbEntity
  8
Горизонт +410
100
AcDbVertex
100
AcDb3dPolylineVertex
 10
1199.9558999999426
 20
387.6893999999156
 30
421.3469
 70
32
  0
VERTEX
  5
6B6
330
6B3
100
AcDbEntity
  8
Горизонт +410
100
AcDbVertex
100
AcDb3dPolylineVertex
 10
1201.05709999986
 20
390.9329999999609
 30
421.2131
 70
32
  0
VERTEX
  5
6B7
330
6B3
100
AcDbEntity
  8
Горизонт +410
100
AcDbVertex
100
AcDb3dPolylineVertex
 10
1199.8854999998584
 20
393.5807999999961
 30
421.0846
 70
32
  0
VERTEX
  5
6B8
330
6B3
100
AcDbEntity
  8
Горизонт +410
100
AcDbVertex
100
AcDb3dPolylineVertex
 10
1197.8788999998942
 20
395.01309999998193
 30
421.1047
 70
32
  0
VERTEX
  5
6B9
330
6B3
100
AcDbEntity
  8
Горизонт +410
100
AcDbVertex
100
AcDb3dPolylineVertex
 10
1195.0778999999166
 20
395.7174999999115
 30
421.0182
 70
32
  0
VERTEX
  5
6BA
330
6B3
100
AcDbEntity
  8
Горизонт +410
100
AcDbVertex
100
AcDb3dPolylineVertex
 10
1192.2308999998495
 20
396.19739999994636
 30
420.9638
 70
32
  0
VERTEX
  5
6BB
330
6B3
100
AcDbEntity
  8
Горизонт +410
100
AcDbVertex
100
AcDb3dPolylineVertex
 10
1189.716000000015
 20
396.28129999991506
 30
420.8196
 70
32
  0
VERTEX
  5
6BC
330
6B3
100
AcDbEntity
  8
Горизонт +410
100
AcDbVertex
100
AcDb3dPolylineVertex
 10
1189.3273999998346
 20
401.2870999999577
 30
420.3188
 70
32
  0
SEQEND
  5
6BD
330
6B3
100
AcDbEntity
  8
Горизонт +410
  0
POLYLINE
  5
6BE
330
1F
100
AcDbEntity
  8
Горизонт +410
100
AcDb3dPolyline
 66
1
 10
0.0
 20
0.0
 30
0.0
 70
8
  0
VERTEX
  5
6BF
330
6BE
100
AcDbEntity
  8
Горизонт +410
100
AcDbVertex
100
AcDb3dPolylineVertex
 10
1230.1687000000384
 20
317.8759999999311
 30
420.0201
 70
32
  0
VERTEX
  5
6C0
330
6BE
100
AcDbEntity
  8
Горизонт +410
100
AcDbVertex
100
AcDb3dPolylineVertex
 10
1229.7834999999031
 20
312.844700000016
 30
419.9286
 70
32
  0
VERTEX
  5
6C1
330
6BE
100
AcDbEntity
  8
Горизонт +410
100
AcDbVertex
100
AcDb3dPolylineVertex
 10
1229.0703000000212
 20
308.49809999996796
 30
419.8475
 70
32
  0
SEQEND
  5
6C2
330
6BE
100
AcDbEntity
  8
Горизонт +410
  0
POLYLINE
  5
6C3
330
1F
100
AcDbEntity
  8
Горизонт +410
100
AcDb3dPolyline
 66
1
 10
0.0
 20
0.0
 30
0.0
 70
8
  0
VERTEX
  5
6C4
330
6C3
100
AcDbEntity
  8
Горизонт +410
100
AcDbVertex
100
AcDb3dPolylineVertex
 10
1210.747800000012
 20
435.60129999998026
 30
420.7038
 70
32
  0
VERTEX
  5
6C5
330
6C3
100
AcDbEntity
  8
Горизонт +410
100
AcDbVertex
100
AcDb3dPolylineVertex
 10
1210.6282999999821
 20
429.9172999999719
 30
420.746
 70
32
  0
VERTEX
  5
6C6
330
6C3
100
AcDbEntity
  8
Горизонт +410
100
AcDbVertex
100
AcDb3dPolylineVertex
 10
1210.4491999999154
 20
423.03249999997206
 30
421.0857
 70
32
  0
VERTEX
  5
6C7
330
6C3
100
AcDbEntity
  8
Горизонт +410
100
AcDbVertex
100
AcDb3dPolylineVertex
 10
1210.1115999999456
 20
418.1272999999346
 30
421.0086
 70
32
  0
VERTEX
  5
6C8
330
6C3
100
AcDbEntity
  8
Горизонт +410
100
AcDbVertex
100
AcDb3dPolylineVertex
 10
1209.7728999999817
 20
413.3647999999812
 30
420.7298
 70
32
  0
VERTEX
  5
6C9
330
6C3
100
AcDbEntity
  8
Горизонт +410
100
AcDbVertex
100
AcDb3dPolylineVertex
 10
1210.031599999871
 20
408.5100000000093
 30
420.7611
 70
32
  0
VERTEX
  5
6CA
330
6C3
100
AcDbEntity
  8
Горизонт +410
100
AcDbVertex
100
AcDb3dPolylineVertex
 10
1210.782600000035
 20
402.1408999999985
 30
420.6741
 70
32
  0
VERTEX
  5
6CB
330
6C3
100
AcDbEntity
  8
Горизонт +410
100
AcDbVertex
100
AcDb3dPolylineVertex
 10
1210.7293999998365
 20
396.2163999999175
 30
420.4963
 70
32
  0
VERTEX
  5
6CC
330
6C3
100
AcDbEntity
  8
Горизонт +410
100
AcDbVertex
100
AcDb3dPolylineVertex
 10
1210.3478999999352
 20
391.30329999991227
 30
420.7685
 70
32
  0
VERTEX
  5
6CD
330
6C3
100
AcDbEntity
  8
Горизонт +410
100
AcDbVertex
100
AcDb3dPolylineVertex
 10
1211.3320999999996
 20
384.98549999995157
 30
421.0362
 70
32
  0
VERTEX
  5
6CE
330
6C3
100
AcDbEntity
  8
Горизонт +410
100
AcDbVertex
100
AcDb3dPolylineVertex
 10
1209.7324999999255
 20
380.3068000000203
 30
421.3034
 70
32
  0
VERTEX
  5
6CF
330
6C3
100
AcDbEntity
  8
Горизонт +410
100
AcDbVertex
100
AcDb3dPolylineVertex
 10
1209.182499999879
 20
375.903699999908
 30
421.2568
 70
32
  0
VERTEX
  5
6D0
330
6C3
100
AcDbEntity
  8
Горизонт +410
100
AcDbVertex
100
AcDb3dPolylineVertex
 10
1209.0485000000335
 20
371.47589999996126
 30
421.2576
 70
32
  0
VERTEX
  5
6D1
330
6C3
100
AcDbEntity
  8
Горизонт +410
100
AcDbVertex
100
AcDb3dPolylineVertex
 10
1208.2356999998447
 20
366.28109999990556
 30
419.9861
 70
32
  0
VERTEX
  5
6D2
330
6C3
100
AcDbEntity
  8
Горизонт +410
100
AcDbVertex
100
AcDb3dPolylineVertex
 10
1208.5518000000156
 20
363.5416999999434
 30
419.7012
 70
32
  0
VERTEX
  5
6D3
330
6C3
100
AcDbEntity
  8
Горизонт +410
100
AcDbVertex
100
AcDb3dPolylineVertex
 10
1210.4146000000183
 20
359.6770999999717
 30
420.1777
 70
32
  0
VERTEX
  5
6D4
330
6C3
100
AcDbEntity
  8
Горизонт +410
100
AcDbVertex
100
AcDb3dPolylineVertex
 10
1209.7972999999765
 20
357.9258999999147
 30
419.5362
 70
32
  0
VERTEX
  5
6D5
330
6C3
100
AcDbEntity
  8
Горизонт +410
100
AcDbVertex
100
AcDb3dPolylineVertex
 10
1209.0711999998894
 20
354.13059999991674
 30
419.6588
 70
32
  0
VERTEX
  5
6D6
330
6C3
100
AcDbEntity
  8
Горизонт +410
100
AcDbVertex
100
AcDb3dPolylineVertex
 10
1209.531299999915
 20
349.97299999999814
 30
419.9157
 70
32
  0
VERTEX
  5
6D7
330
6C3
100
AcDbEntity
  8
Горизонт +410
100
AcDbVertex
100
AcDb3dPolylineVertex
 10
1209.2112999998499
 20
348.10149999998976
 30
419.6687
 70
32
  0
VERTEX
  5
6D8
330
6C3
100
AcDbEntity
  8
Горизонт +410
100
AcDbVertex
100
AcDb3dPolylineVertex
 10
1210.9240999999456
 20
339.9405999999726
 30
420.2892
 70
32
  0
VERTEX
  5
6D9
330
6C3
100
AcDbEntity
  8
Горизонт +410
100
AcDbVertex
100
AcDb3dPolylineVertex
 10
1210.9240999999456
 20
339.9405999999726
 30
420.2892
 70
32
  0
VERTEX
  5
6DA
330
6C3
100
AcDbEntity
  8
Горизонт +410
100
AcDbVertex
100
AcDb3dPolylineVertex
 10
1210.8914999999106
 20
336.3660999999847
 30
420.2875
 70
32
  0
VERTEX
  5
6DB
330
6C3
100
AcDbEntity
  8
Горизонт +410
100
AcDbVertex
100
AcDb3dPolylineVertex
 10
1210.8914999999106
 20
336.3660999999847
 30
420.2875
 70
32
  0
VERTEX
  5
6DC
330
6C3
100
AcDbEntity
  8
Горизонт +410
100
AcDbVertex
100
AcDb3dPolylineVertex
 10
1213.4161000000313
 20
331.47080000001006
 30
420.4281
 70
32
  0
VERTEX
  5
6DD
330
6C3
100
AcDbEntity
  8
Горизонт +410
100
AcDbVertex
100
AcDb3dPolylineVertex
 10
1213.4161000000313
 20
331.47080000001006
 30
420.4281
 70
32
  0
VERTEX
  5
6DE
330
6C3
100
AcDbEntity
  8
Горизонт +410
100
AcDbVertex
100
AcDb3dPolylineVertex
 10
1218.0788000000175
 20
330.4616999999853
 30
420.6061
 70
32
  0
VERTEX
  5
6DF
330
6C3
100
AcDbEntity
  8
Горизонт +410
100
AcDbVertex
100
AcDb3dPolylineVertex
 10
1226.0054999999702
 20
330.1259999999311
 30
420.236
 70
32
  0
VERTEX
  5
6E0
330
6C3
100
AcDbEntity
  8
Горизонт +410
100
AcDbVertex
100
AcDb3dPolylineVertex
 10
1230.342299999902
 20
328.59379999991506
 30
420.2473
 70
32
  0
VERTEX
  5
6E1
330
6C3
100
AcDbEntity
  8
Горизонт +410
100
AcDbVertex
100
AcDb3dPolylineVertex
 10
1231.0504999998957
 20
325.8810999999987
 30
420.1886
 70
32
  0
VERTEX
  5
6E2
330
6C3
100
AcDbEntity
  8
Горизонт +410
100
AcDbVertex
100
AcDb3dPolylineVertex
 10
1230.8981999999378
 20
320.41929999995045
 30
420.0483
 70
32
  0
VERTEX
  5
6E3
330
6C3
100
AcDbEntity
  8
Горизонт +410
100
AcDbVertex
100
AcDb3dPolylineVertex
 10
1230.1687000000384
 20
317.8759999999311
 30
420.0201
 70
32
  0
SEQEND
  5
6E4
330
6C3
100
AcDbEntity
  8
Горизонт +410
  0
POLYLINE
  5
6E5
330
1F
100
AcDbEntity
  8
Горизонт +410
100
AcDb3dPolyline
 66
1
 10
0.0
 20
0.0
 30
0.0
 70
8
  0
VERTEX
  5
6E6
330
6E5
100
AcDbEntity
  8
Горизонт +410
100
AcDbVertex
100
AcDb3dPolylineVertex
 10
1191.2700000000186
 20
357.49359999992885
 30
421.7905
 70
32
  0
VERTEX
  5
6E7
330
6E5
100
AcDbEntity
  8
Горизонт +410
100
AcDbVertex
100
AcDb3dPolylineVertex
 10
1196.1628999998793
 20
362.20349999994505
 30
421.6957
 70
32
  0
VERTEX
  5
6E8
330
6E5
100
AcDbEntity
  8
Горизонт +410
100
AcDbVertex
100
AcDb3dPolylineVertex
 10
1200.684099999955
 20
364.9221999999136
 30
421.4741
 70
32
  0
VERTEX
  5
6E9
330
6E5
100
AcDbEntity
  8
Горизонт +410
100
AcDbVertex
100
AcDb3dPolylineVertex
 10
1204.405000000028
 20
367.904499999946
 30
421.774
 70
32
  0
SEQEND
  5
6EA
330
6E5
100
AcDbEntity
  8
Горизонт +410
  0
POLYLINE
  5
6EB
330
1F
100
AcDbEntity
  8
Горизонт +410
100
AcDb3dPolyline
 66
1
 10
0.0
 20
0.0
 30
0.0
 70
8
  0
VERTEX
  5
6EC
330
6EB
100
AcDbEntity
  8
Горизонт +410
100
AcDbVertex
100
AcDb3dPolylineVertex
 10
1211.8870999999344
 20
332.1734999999171
 30
421.8717
 70
32
  0
VERTEX
  5
6ED
330
6EB
100
AcDbEntity
  8
Горизонт +410
100
AcDbVertex
100
AcDb3dPolylineVertex
 10
1212.2680999999866
 20
330.637999999919
 30
421.9641
 70
32
  0
VERTEX
  5
6EE
330
6EB
100
AcDbEntity
  8
Горизонт +410
100
AcDbVertex
100
AcDb3dPolylineVertex
 10
1212.1961999998894
 20
329.04799999995157
 30
421.7964
 70
32
  0
SEQEND
  5
6EF
330
6EB
100
AcDbEntity
  8
Горизонт +410
  0
POLYLINE
  5
6F0
330
1F
100
AcDbEntity
  8
Горизонт +410
100
AcDb3dPolyline
 66
1
 10
0.0
 20
0.0
 30
0.0
 70
8
  0
VERTEX
  5
6F1
330
6F0
100
AcDbEntity
  8
Горизонт +410
100
AcDbVertex
100
AcDb3dPolylineVertex
 10
1186.0119999998715
 20
347.52330000000075
 30
421.1379
 70
32
  0
VERTEX
  5
6F2
330
6F0
100
AcDbEntity
  8
Горизонт +410
100
AcDbVertex
100
AcDb3dPolylineVertex
 10
1191.2700000000186
 20
357.49359999992885
 30
421.7905
 70
32
  0
SEQEND
  5
6F3
330
6F0
100
AcDbEntity
  8
Горизонт +410
  0
POLYLINE
  5
6F4
330
1F
100
AcDbEntity
  8
Горизонт +410
100
AcDb3dPolyline
 66
1
 10
0.0
 20
0.0
 30
0.0
 70
8
  0
VERTEX
  5
6F5
330
6F4
100
AcDbEntity
  8
Горизонт +410
100
AcDbVertex
100
AcDb3dPolylineVertex
 10
1186.2404999998398
 20
342.5671999999322
 30
420.9636
 70
32
  0
VERTEX
  5
6F6
330
6F4
100
AcDbEntity
  8
Горизонт +410
100
AcDbVertex
100
AcDb3dPolylineVertex
 10
1186.0119999998715
 20
347.52330000000075
 30
421.1379
 70
32
  0
SEQEND
  5
6F7
330
6F4
100
AcDbEntity
  8
Горизонт +410
  0
POLYLINE
  5
6F8
330
1F
100
AcDbEntity
  8
Горизонт +410
100
AcDb3dPolyline
 66
1
 10
0.0
 20
0.0
 30
0.0
 70
8
  0
VERTEX
  5
6F9
330
6F8
100
AcDbEntity
  8
Горизонт +410
100
AcDbVertex
100
AcDb3dPolylineVertex
 10
1188.4492999999784
 20
343.5492999999551
 30
418.7547
 70
32
  0
VERTEX
  5
6FA
330
6F8
100
AcDbEntity
  8
Горизонт +410
100
AcDbVertex
100
AcDb3dPolylineVertex
 10
1188.0109999999404
 20
345.27350000001024
 30
419.0279
 70
32
  0
VERTEX
  5
6FB
330
6F8
100
AcDbEntity
  8
Горизонт +410
100
AcDbVertex
100
AcDb3dPolylineVertex
 10
1191.1293999999762
 20
351.43519999994896
 30
419.868
 70
32
  0
VERTEX
  5
6FC
330
6F8
100
AcDbEntity
  8
Горизонт +410
100
AcDbVertex
100
AcDb3dPolylineVertex
 10
1194.0067000000272
 20
355.2245999999577
 30
419.3757
 70
32
  0
VERTEX
  5
6FD
330
6F8
100
AcDbEntity
  8
Горизонт +410
100
AcDbVertex
100
AcDb3dPolylineVertex
 10
1196.9801999998745
 20
357.7666999999201
 30
419.1421
 70
32
  0
VERTEX
  5
6FE
330
6F8
100
AcDbEntity
  8
Горизонт +410
100
AcDbVertex
100
AcDb3dPolylineVertex
 10
1199.1178999999538
 20
359.951699999976
 30
419.3727
 70
32
  0
VERTEX
  5
6FF
330
6F8
100
AcDbEntity
  8
Горизонт +410
100
AcDbVertex
100
AcDb3dPolylineVertex
 10
1201.282099999953
 20
360.66579999995884
 30
419.5309
 70
32
  0
VERTEX
  5
700
330
6F8
100
AcDbEntity
  8
Горизонт +410
100
AcDbVertex
100
AcDb3dPolylineVertex
 10
1204.7611999998335
 20
363.60959999996703
 30
420.0926
 70
32
  0
VERTEX
  5
701
330
6F8
100
AcDbEntity
  8
Горизонт +410
100
AcDbVertex
100
AcDb3dPolylineVertex
 10
1208.2356999998447
 20
366.28109999990556
 30
419.9861
 70
32
  0
SEQEND
  5
702
330
6F8
100
AcDbEntity
  8
Горизонт +410
  0
POLYLINE
  5
703
330
1F
100
AcDbEntity
  8
Горизонт +410
100
AcDb3dPolyline
 66
1
 10
0.0
 20
0.0
 30
0.0
 70
8
  0
VERTEX
  5
704
330
703
100
AcDbEntity
  8
Горизонт +410
100
AcDbVertex
100
AcDb3dPolylineVertex
 10
1204.405000000028
 20
367.904499999946
 30
421.774
 70
32
  0
VERTEX
  5
705
330
703
100
AcDbEntity
  8
Горизонт +410
100
AcDbVertex
100
AcDb3dPolylineVertex
 10
1209.0485000000335
 20
371.47589999996126
 30
421.2576
 70
32
  0
SEQEND
  5
706
330
703
100
AcDbEntity
  8
Горизонт +410
  0
POLYLINE
  5
707
330
1F
100
AcDbEntity
  8
Горизонт +410
100
AcDb3dPolyline
 66
1
 10
0.0
 20
0.0
 30
0.0
 70
8
  0
VERTEX
  5
708
330
707
100
AcDbEntity
  8
Горизонт +410
100
AcDbVertex
100
AcDb3dPolylineVertex
 10
1210.3044999998529
 20
334.06869999994524
 30
421.6616
 70
32
  0
VERTEX
  5
709
330
707
100
AcDbEntity
  8
Горизонт +410
100
AcDbVertex
100
AcDb3dPolylineVertex
 10
1208.2723999998998
 20
333.63610000000335
 30
420.9782
 70
32
  0
VERTEX
  5
70A
330
707
100
AcDbEntity
  8
Горизонт +410
100
AcDbVertex
100
AcDb3dPolylineVertex
 10
1205.7626999998465
 20
333.19899999990594
 30
419.7567
 70
32
  0
SEQEND
  5
70B
330
707
100
AcDbEntity
  8
Горизонт +410
  0
POLYLINE
  5
70C
330
1F
100
AcDbEntity
  8
Горизонт +410
100
AcDb3dPolyline
 66
1
 10
0.0
 20
0.0
 30
0.0
 70
8
  0
VERTEX
  5
70D
330
70C
100
AcDbEntity
  8
Горизонт +410
100
AcDbVertex
100
AcDb3dPolylineVertex
 10
1210.8914999999106
 20
336.3660999999847
 30
420.2875
 70
32
  0
VERTEX
  5
70E
330
70C
100
AcDbEntity
  8
Горизонт +410
100
AcDbVertex
100
AcDb3dPolylineVertex
 10
1209.3995999998879
 20
336.71549999993294
 30
420.0526
 70
32
  0
VERTEX
  5
70F
330
70C
100
AcDbEntity
  8
Горизонт +410
100
AcDbVertex
100
AcDb3dPolylineVertex
 10
1207.5204999998678
 20
336.2444999999134
 30
420.0935
 70
32
  0
VERTEX
  5
710
330
70C
100
AcDbEntity
  8
Горизонт +410
100
AcDbVertex
100
AcDb3dPolylineVertex
 10
1207.0069999999832
 20
337.155700000003
 30
420.2049
 70
32
  0
SEQEND
  5
711
330
70C
100
AcDbEntity
  8
Горизонт +410
  0
POLYLINE
  5
712
330
1F
100
AcDbEntity
  8
Горизонт +410
100
AcDb3dPolyline
 66
1
 10
0.0
 20
0.0
 30
0.0
 70
8
  0
VERTEX
  5
713
330
712
100
AcDbEntity
  8
Горизонт +410
100
AcDbVertex
100
AcDb3dPolylineVertex
 10
1210.8914999999106
 20
336.3660999999847
 30
420.2875
 70
32
  0
VERTEX
  5
714
330
712
100
AcDbEntity
  8
Горизонт +410
100
AcDbVertex
100
AcDb3dPolylineVertex
 10
1213.4161000000313
 20
331.47080000001006
 30
420.4281
 70
32
  0
SEQEND
  5
715
330
712
100
AcDbEntity
  8
Горизонт +410
  0
POLYLINE
  5
716
330
1F
100
AcDbEntity
  8
Горизонт +410
100
AcDb3dPolyline
 66
1
 10
0.0
 20
0.0
 30
0.0
 70
8
  0
VERTEX
  5
717
330
716
100
AcDbEntity
  8
Горизонт +410
100
AcDbVertex
100
AcDb3dPolylineVertex
 10
1211.8870999999344
 20
332.1734999999171
 30
421.8717
 70
32
  0
VERTEX
  5
718
330
716
100
AcDbEntity
  8
Горизонт +410
100
AcDbVertex
100
AcDb3dPolylineVertex
 10
1210.4776999999303
 20
333.9686999999685
 30
421.6616
 70
32
  0
SEQEND
  5
719
330
716
100
AcDbEntity
  8
Горизонт +410
  0
POLYLINE
  5
71A
330
1F
100
AcDbEntity
  8
Горизонт +410
100
AcDb3dPolyline
 66
1
 10
0.0
 20
0.0
 30
0.0
 70
8
  0
VERTEX
  5
71B
330
71A
100
AcDbEntity
  8
Горизонт +410
100
AcDbVertex
100
AcDb3dPolylineVertex
 10
1206.6602999998722
 20
326.8876000000164
 30
419.1998
 70
32
  0
VERTEX
  5
71C
330
71A
100
AcDbEntity
  8
Горизонт +410
100
AcDbVertex
100
AcDb3dPolylineVertex
 10
1212.1961999998894
 20
329.04799999995157
 30
421.7964
 70
32
  0
SEQEND
  5
71D
330
71A
100
AcDbEntity
  8
Горизонт +410
  0
POLYLINE
  5
71E
330
1F
100
AcDbEntity
  8
Горизонт +410
100
AcDb3dPolyline
 66
1
 10
0.0
 20
0.0
 30
0.0
 70
8
  0
VERTEX
  5
71F
330
71E
100
AcDbEntity
  8
Горизонт +410
100
AcDbVertex
100
AcDb3dPolylineVertex
 10
1206.6602999998722
 20
326.8876000000164
 30
419.1998
 70
32
  0
VERTEX
  5
720
330
71E
100
AcDbEntity
  8
Горизонт +410
100
AcDbVertex
100
AcDb3dPolylineVertex
 10
1216.4820999999065
 20
326.36839999991935
 30
420.2836
 70
32
  0
VERTEX
  5
721
330
71E
100
AcDbEntity
  8
Горизонт +410
100
AcDbVertex
100
AcDb3dPolylineVertex
 10
1213.4161000000313
 20
331.47080000001006
 30
420.4281
 70
32
  0
SEQEND
  5
722
330
71E
100
AcDbEntity
  8
Горизонт +410
  0
POLYLINE
  5
723
330
1F
100
AcDbEntity
  8
Горизонт +410
100
AcDb3dPolyline
 66
1
 10
0.0
 20
0.0
 30
0.0
 70
8
  0
VERTEX
  5
724
330
723
100
AcDbEntity
  8
Горизонт +410
100
AcDbVertex
100
AcDb3dPolylineVertex
 10
1221.995299999835
 20
304.6880999999121
 30
420.7316
 70
32
  0
VERTEX
  5
725
330
723
100
AcDbEntity
  8
Горизонт +410
100
AcDbVertex
100
AcDb3dPolylineVertex
 10
1222.6929999999702
 20
305.5424999999814
 30
420.9928
 70
32
  0
VERTEX
  5
726
330
723
100
AcDbEntity
  8
Горизонт +410
100
AcDbVertex
100
AcDb3dPolylineVertex
 10
1222.6613999998663
 20
306.23300000000745
 30
420.9952
 70
32
  0
VERTEX
  5
727
330
723
100
AcDbEntity
  8
Горизонт +410
100
AcDbVertex
100
AcDb3dPolylineVertex
 10
1222.342900000047
 20
306.52980000001844
 30
420.9039
 70
32
  0
SEQEND
  5
728
330
723
100
AcDbEntity
  8
Горизонт +410
  0
POLYLINE
  5
729
330
1F
100
AcDbEntity
  8
Горизонт +410
100
AcDb3dPolyline
 66
1
 10
0.0
 20
0.0
 30
0.0
 70
8
  0
VERTEX
  5
72A
330
729
100
AcDbEntity
  8
Горизонт +410
100
AcDbVertex
100
AcDb3dPolylineVertex
 10
1220.1062999998685
 20
301.4030999999959
 30
418.9188
 70
32
  0
VERTEX
  5
72B
330
729
100
AcDbEntity
  8
Горизонт +410
100
AcDbVertex
100
AcDb3dPolylineVertex
 10
1222.2016999998596
 20
302.92399999999907
 30
419.4082
 70
32
  0
VERTEX
  5
72C
330
729
100
AcDbEntity
  8
Горизонт +410
100
AcDbVertex
100
AcDb3dPolylineVertex
 10
1223.5973999998532
 20
305.2844000000041
 30
419.7335
 70
32
  0
SEQEND
  5
72D
330
729
100
AcDbEntity
  8
Горизонт +410
  0
POLYLINE
  5
72E
330
1F
100
AcDbEntity
  8
Горизонт +410
100
AcDb3dPolyline
 66
1
 10
0.0
 20
0.0
 30
0.0
 70
8
  0
VERTEX
  5
72F
330
72E
100
AcDbEntity
  8
Горизонт +410
100
AcDbVertex
100
AcDb3dPolylineVertex
 10
1228.3216999999713
 20
297.4305999999633
 30
419.1203
 70
32
  0
VERTEX
  5
730
330
72E
100
AcDbEntity
  8
Горизонт +410
100
AcDbVertex
100
AcDb3dPolylineVertex
 10
1228.4949000000488
 20
304.28590000001714
 30
419.4562
 70
32
  0
VERTEX
  5
731
330
72E
100
AcDbEntity
  8
Горизонт +410
100
AcDbVertex
100
AcDb3dPolylineVertex
 10
1229.0703000000212
 20
308.49809999996796
 30
419.8475
 70
32
  0
SEQEND
  5
732
330
72E
100
AcDbEntity
  8
Горизонт +410
  0
POLYLINE
  5
733
330
1F
100
AcDbEntity
  8
Горизонт +410
100
AcDb3dPolyline
 66
1
 10
0.0
 20
0.0
 30
0.0
 70
8
  0
VERTEX
  5
734
330
733
100
AcDbEntity
  8
Горизонт +410
100
AcDbVertex
100
AcDb3dPolylineVertex
 10
1228.03199999989
 20
393.1699999999255
 30
410.4
 70
32
  0
VERTEX
  5
735
330
733
100
AcDbEntity
  8
Горизонт +410
100
AcDbVertex
100
AcDb3dPolylineVertex
 10
1229.153199999826
 20
404.70959999994375
 30
410.722
 70
32
  0
VERTEX
  5
736
330
733
100
AcDbEntity
  8
Горизонт +410
100
AcDbVertex
100
AcDb3dPolylineVertex
 10
1229.4523999998346
 20
410.3717000000179
 30
410.5567
 70
32
  0
VERTEX
  5
737
330
733
100
AcDbEntity
  8
Горизонт +410
100
AcDbVertex
100
AcDb3dPolylineVertex
 10
1226.4479999998584
 20
417.7738999999128
 30
410.0317
 70
32
  0
VERTEX
  5
738
330
733
100
AcDbEntity
  8
Горизонт +410
100
AcDbVertex
100
AcDb3dPolylineVertex
 10
1225.5090999999084
 20
427.6493999999948
 30
411.5265
 70
32
  0
VERTEX
  5
739
330
733
100
AcDbEntity
  8
Горизонт +410
100
AcDbVertex
100
AcDb3dPolylineVertex
 10
1229.2247999999672
 20
433.8045999999158
 30
411.7291
 70
32
  0
SEQEND
  5
73A
330
733
100
AcDbEntity
  8
Горизонт +410
  0
POLYLINE
  5
73B
330
1F
100
AcDbEntity
  8
Горизонт +410
100
AcDb3dPolyline
 66
1
 10
0.0
 20
0.0
 30
0.0
 70
8
  0
VERTEX
  5
73C
330
73B
100
AcDbEntity
  8
Горизонт +410
100
AcDbVertex
100
AcDb3dPolylineVertex
 10
1229.2247999999672
 20
433.8045999999158
 30
411.7291
 70
32
  0
VERTEX
  5
73D
330
73B
100
AcDbEntity
  8
Горизонт +410
100
AcDbVertex
100
AcDb3dPolylineVertex
 10
1249.0489999998827
 20
431.8717999999644
 30
410.839
 70
32
  0
SEQEND
  5
73E
330
73B
100
AcDbEntity
  8
Горизонт +410
  0
TEXT
  5
73F
330
1F
100
AcDbEntity
  8
Горизонт +410
100
AcDbText
 10
1229.153199999826
 20
404.70959999994375
 30
410.722
 40
3.6
  1
410.722
 51
10.0
  7
eskd
 41
0.8
100
AcDbText
  0
TEXT
  5
740
330
1F
100
AcDbEntity
  8
Горизонт +410
100
AcDbText
 10
1229.2247999999672
 20
433.8045999999158
 30
411.7291
 40
3.6
  1
411.729
 51
10.0
  7
eskd
 41
0.8
100
AcDbText
  0
TEXT
  5
741
330
1F
100
AcDbEntity
  8
Горизонт +410
100
AcDbText
 10
1249.0489999998827
 20
431.8717999999644
 30
410.839
 40
3.6
  1
410.839
 51
10.0
  7
eskd
 41
0.8
100
AcDbText
  0
POLYLINE
  5
742
330
1F
100
AcDbEntity
  8
Отвал вскрышных пород
100
AcDb3dPolyline
 66
1
 10
0.0
 20
0.0
 30
0.0
 70
8
  0
VERTEX
  5
743
330
742
100
AcDbEntity
  8
Отвал вскрышных пород
100
AcDbVertex
100
AcDb3dPolylineVertex
 10
1188.8326999999117
 20
382.0727000000188
 30
421.8379
 70
32
  0
VERTEX
  5
744
330
742
100
AcDbEntity
  8
Отвал вскрышных пород
100
AcDbVertex
100
AcDb3dPolylineVertex
 10
1199.1366999999154
 20
385.05039999994915
 30
421.5404
 70
32
  0
SEQEND
  5
745
330
742
100
AcDbEntity
  8
Отвал вскрышных пород
  0
POLYLINE
  5
746
330
1F
100
AcDbEntity
  8
Отвал вскрышных пород
100
AcDb3dPolyline
 66
1
 10
0.0
 20
0.0
 30
0.0
 70
8
  0
VERTEX
  5
747
330
746
100
AcDbEntity
  8
Отвал вскрышных пород
100
AcDbVertex
100
AcDb3dPolylineVertex
 10
1221.9580999999307
 20
307.65949999995064
 30
419.7704
 70
32
  0
VERTEX
  5
748
330
746
100
AcDbEntity
  8
Отвал вскрышных пород
100
AcDbVertex
100
AcDb3dPolylineVertex
 10
1223.5973999998532
 20
305.2844000000041
 30
419.7335
 70
32
  0
SEQEND
  5
749
330
746
100
AcDbEntity
  8
Отвал вскрышных пород
  0
POINT
  5
74A
330
1F
100
AcDbEntity
  8
Горизонт +410
 62
7
100
AcDbPoint
 10
1233.6659999999683
 20
295.9179999999469
 30
410.5
  0
POINT
  5
74B
330
1F
100
AcDbEntity
  8
Горизонт +410
 62
7
100
AcDbPoint
 10
1233.7669999999925
 20
301.87799999990966
 30
410.03
  0
POINT
  5
74C
330
1F
100
AcDbEntity
  8
Горизонт +410
 62
7
100
AcDbPoint
 10
1232.9329999999609
 20
309.46899999992456
 30
410.4
  0
POINT
  5
74D
330
1F
100
AcDbEntity
  8
Горизонт +410
 62
7
100
AcDbPoint
 10
1234.1820000000298
 20
328.54200000001583
 30
411.03
  0
POINT
  5
74E
330
1F
100
AcDbEntity
  8
Горизонт +410
 62
7
100
AcDbPoint
 10
1229.4109999998473
 20
333.6570000000065
 30
410.92
  0
POINT
  5
74F
330
1F
100
AcDbEntity
  8
Горизонт +410
 62
7
100
AcDbPoint
 10
1213.1679999998305
 20
335.0690000000177
 30
411.95
  0
POINT
  5
750
330
1F
100
AcDbEntity
  8
Горизонт +410
 62
7
100
AcDbPoint
 10
1214.9590000000317
 20
368.33299999998417
 30
411.46
  0
POINT
  5
751
330
1F
100
AcDbEntity
  8
Горизонт +410
 62
7
100
AcDbPoint
 10
1223.180999999866
 20
380.7609999999404
 30
410.51
  0
POINT
  5
752
330
1F
100
AcDbEntity
  8
Горизонт +410
 62
7
100
AcDbPoint
 10
1228.03199999989
 20
393.1699999999255
 30
410.4
  0
POLYLINE
  5
753
330
1F
100
AcDbEntity
  8
Горизонт +410
 62
7
100
AcDb3dPolyline
 66
1
 10
0.0
 20
0.0
 30
0.0
 70
8
  0
VERTEX
  5
754
330
753
100
AcDbEntity
  8
Горизонт +410
 62
7
100
AcDbVertex
100
AcDb3dPolylineVertex
 10
1228.03199999989
 20
393.1699999999255
 30
410.4
 70
32
  0
VERTEX
  5
755
330
753
100
AcDbEntity
  8
Горизонт +410
 62
7
100
AcDbVertex
100
AcDb3dPolylineVertex
 10
1223.180999999866
 20
380.7609999999404
 30
410.51
 70
32
  0
VERTEX
  5
756
330
753
100
AcDbEntity
  8
Горизонт +410
 62
7
100
AcDbVertex
100
AcDb3dPolylineVertex
 10
1214.9590000000317
 20
368.33299999998417
 30
411.46
 70
32
  0
VERTEX
  5
757
330
753
100
AcDbEntity
  8
Горизонт +410
 62
7
100
AcDbVertex
100
AcDb3dPolylineVertex
 10
1213.1679999998305
 20
335.0690000000177
 30
411.95
 70
32
  0
VERTEX
  5
758
330
753
100
AcDbEntity
  8
Горизонт +410
 62
7
100
AcDbVertex
100
AcDb3dPolylineVertex
 10
1229.4109999998473
 20
333.6570000000065
 30
410.92
 70
32
  0
SEQEND
  5
759
330
753
100
AcDbEntity
  8
Горизонт +410
 62
7
  0
POLYLINE
  5
75A
330
1F
100
AcDbEntity
  8
Горизонт +410
 62
7
100
AcDb3dPolyline
 66
1
 10
0.0
 20
0.0
 30
0.0
 70
8
  0
VERTEX
  5
75B
330
75A
100
AcDbEntity
  8
Горизонт +410
 62
7
100
AcDbVertex
100
AcDb3dPolylineVertex
 10
1229.4109999998473
 20
333.6570000000065
 30
410.92
 70
32
  0
VERTEX
  5
75C
330
75A
100
AcDbEntity
  8
Горизонт +410
 62
7
100
AcDbVertex
100
AcDb3dPolylineVertex
 10
1234.1820000000298
 20
328.54200000001583
 30
411.03
 70
32
  0
VERTEX
  5
75D
330
75A
100
AcDbEntity
  8
Горизонт +410
 62
7
100
AcDbVertex
100
AcDb3dPolylineVertex
 10
1232.9329999999609
 20
309.46899999992456
 30
410.4
 70
32
  0
VERTEX
  5
75E
330
75A
100
AcDbEntity
  8
Горизонт +410
 62
7
100
AcDbVertex
100
AcDb3dPolylineVertex
 10
1233.7669999999925
 20
301.87799999990966
 30
410.03
 70
32
  0
VERTEX
  5
75F
330
75A
100
AcDbEntity
  8
Горизонт +410
 62
7
100
AcDbVertex
100
AcDb3dPolylineVertex
 10
1233.6659999999683
 20
295.9179999999469
 30
410.5
 70
32
  0
VERTEX
  5
760
330
75A
100
AcDbEntity
  8
Горизонт +410
 62
7
100
AcDbVertex
100
AcDb3dPolylineVertex
 10
1238.8889999999665
 20
291.0529999999562
 30
409.68
 70
32
  0
VERTEX
  5
761
330
75A
100
AcDbEntity
  8
Горизонт +410
 62
7
100
AcDbVertex
100
AcDb3dPolylineVertex
 10
1241.6040000000503
 20
281.0439999999944
 30
411.56
 70
32
  0
VERTEX
  5
762
330
75A
100
AcDbEntity
  8
Горизонт +410
 62
7
100
AcDbVertex
100
AcDb3dPolylineVertex
 10
1241.2009999998845
 20
274.06400000001304
 30
412.23
 70
32
  0
VERTEX
  5
763
330
75A
100
AcDbEntity
  8
Горизонт +410
 62
7
100
AcDbVertex
100
AcDb3dPolylineVertex
 10
1243.967999999877
 20
267.0709999999963
 30
411.25
 70
32
  0
VERTEX
  5
764
330
75A
100
AcDbEntity
  8
Горизонт +410
 62
7
100
AcDbVertex
100
AcDb3dPolylineVertex
 10
1248.128000000026
 20
261.6809999999823
 30
411.15
 70
32
  0
VERTEX
  5
765
330
75A
100
AcDbEntity
  8
Горизонт +410
 62
7
100
AcDbVertex
100
AcDb3dPolylineVertex
 10
1252.9109999998473
 20
256.94799999997485
 30
411.72
 70
32
  0
VERTEX
  5
766
330
75A
100
AcDbEntity
  8
Горизонт +410
 62
7
100
AcDbVertex
100
AcDb3dPolylineVertex
 10
1260.0429999998305
 20
257.17599999997765
 30
411.65
 70
32
  0
VERTEX
  5
767
330
75A
100
AcDbEntity
  8
Горизонт +410
 62
7
100
AcDbVertex
100
AcDb3dPolylineVertex
 10
1267.4159999999683
 20
256.33499999996275
 30
413.63
 70
32
  0
SEQEND
  5
768
330
75A
100
AcDbEntity
  8
Горизонт +410
 62
7
  0
LWPOLYLINE
  5
769
330
1F
100
AcDbEntity
  8
блок 66 вар 2
  6
ByBlock
 62
1
100
AcDbPolyline
 90
35
 70
0
 43
0.1
 38
419.8475
 10
1210.3044999998529
 20
334.06869999994524
 10
1211.8869999998715
 20
332.17399999999907
 10
1213.4161000000313
 20
331.47080000001006
 10
1218.0789999999106
 20
330.4619999999413
 10
1226.0054999999702
 20
330.1259999999311
 10
1230.341999999946
 20
328.59399999992456
 10
1231.0504999998957
 20
325.8810999999987
 10
1230.8981999999378
 20
320.41929999995045
 10
1230.1687000000384
 20
317.8759999999311
 10
1229.7834999999031
 20
312.844700000016
 10
1228.4949000000488
 20
304.28590000001714
 10
1228.4241132310126
 20
298.3389499094337
 10
1223.088667566888
 20
298.1939469698118
 10
1190.1291102690157
 20
339.19977345713414
 10
1190.3361327908933
 20
391.049176560482
 10
1190.5987263310235
 20
442.3564843911445
 10
1211.5586679088883
 20
439.34255189739633
 10
1210.7452148729935
 20
435.2554708166281
 10
1209.7703148729634
 20
413.018970816629
 10
1210.7800148730166
 20
401.79507081664633
 10
1210.7293999998365
 20
396.2163999999175
 10
1210.3453148729168
 20
390.9574708165601
 10
1211.3320999999996
 20
384.98549999995157
 10
1209.729914872907
 20
379.9609708166681
 10
1209.182499999879
 20
375.903699999908
 10
1209.0459148730151
 20
371.1300708166091
 10
1208.2356999998447
 20
366.28109999990556
 10
1208.5518000000156
 20
363.5416999999434
 10
1210.57541837194
 20
359.4196987719042
 10
1209.068614872871
 20
353.78477081656456
 10
1209.8268148729112
 20
345.1683708166238
 10
1210.9215148729272
 20
339.59477081662044
 10
1210.8889148728922
 20
336.02027081663255
 10
1210.3044999998529
 20
334.06869999994524
 10
1210.3044999998529
 20
334.06869999994524
  0
ENDSEC
  0
SECTION
  2
OBJECTS
  0
DICTIONARY
  5
C
330
0
100
AcDbDictionary
281
1
  3
ACAD_CIP_PREVIOUS_PRODUCT_INFO
350
216
  3
ACAD_COLOR
350
6B
  3
ACAD_DETAILVIEWSTYLE
350
21B
  3
ACAD_GROUP
350
D
  3
ACAD_LAYOUT
350
1A
  3
ACAD_MATERIAL
350
6A
  3
ACAD_MLEADERSTYLE
350
12D
  3
ACAD_MLINESTYLE
350
17
  3
ACAD_PLOTSETTINGS
350
19
  3
ACAD_PLOTSTYLENAME
350
E
  3
ACAD_SCALELIST
350
10C
  3
ACAD_SECTIONVIEWSTYLE
350
219
  3
ACAD_TABLESTYLE
350
7E
  3
ACAD_VISUALSTYLE
350
EF
  3
ACDBVARIABLEDICTIONARY
350
2AD
  3
AEC_PROPERTY_SET_DEFS
350
51A
  3
EZDXF_META
350
78A
  0
DICTIONARY
  5
D
102
{ACAD_REACTORS
330
C
102
}
330
C
100
AcDbDictionary
281
1
  0
ACDBDICTIONARYWDFLT
  5
E
102
{ACAD_REACTORS
330
C
102
}
330
C
100
AcDbDictionary
281
1
  3
Normal
350
F
100
AcDbDictionaryWithDefault
340
F
  0
ACDBPLACEHOLDER
  5
F
102
{ACAD_REACTORS
330
E
102
}
330
E
  0
DICTIONARY
  5
17
102
{ACAD_REACTORS
330
C
102
}
330
C
100
AcDbDictionary
281
1
  3
Standard
350
18
  0
MLINESTYLE
  5
18
102
{ACAD_REACTORS
330
17
102
}
330
17
100
AcDbMlineStyle
  2
STANDARD
 70
0
  3

 62
0
 51
90.0
 52
90.0
 71
2
 49
0.5
 62
0
  6
ByLayer
 49
-0.5
 62
0
  6
ByLayer
  0
DICTIONARY
  5
19
102
{ACAD_REACTORS
330
C
102
}
330
C
100
AcDbDictionary
281
1
  0
DICTIONARY
  5
1A
102
{ACAD_REACTORS
330
C
102
}
330
C
100
AcDbDictionary
281
1
  3
Model
350
22
  3
Лист1
350
D3
  3
Лист2
350
D7
  0
LAYOUT
  5
22
102
{ACAD_XDICTIONARY
360
205
102
}
102
{ACAD_REACTORS
330
1A
102
}
330
1A
100
AcDbPlotSettings
  1

  2
none_device
  4
ISO_A4_(210.00_x_297.00_MM)
  6

 40
7.5
 41
20.0
 42
7.5
 43
20.0
 44
210.0
 45
297.0
 46
11.54999923706055
 47
-13.65000009536743
 48
0.0
 49
0.0
140
0.0
141
0.0
142
1.0
143
8.704084754739808
 70
11952
 72
1
 73
0
 74
0
  7

 75
0
 76
0
 77
2
 78
300
147
0.1148885871608098
148
0.0
149
0.0
100
AcDbLayout
  1
Model
 70
1
 71
0
 10
0.0
 20
0.0
 11
12.0
 21
9.0
 12
0.0
 22
0.0
 32
0.0
 14
0.0
 24
0.0
 34
0.0
 15
0.0
 25
0.0
 35
0.0
146
0.0
 13
0.0
 23
0.0
 33
0.0
 16
1.0
 26
0.0
 36
0.0
 17
0.0
 27
1.0
 37
0.0
 76
0
330
1F
331
EA
1001
ACAD_PSEXT
1000
None
1000
None
1000
Not applicable
1000
The layout will not be plotted unless a new plotter configuration name is selected.
1070
0
  0
DICTIONARY
  5
6A
102
{ACAD_REACTORS
330
C
102
}
330
C
100
AcDbDictionary
281
1
  3
ByBlock
350
784
  3
ByLayer
350
785
  3
Global
350
786
  0
DICTIONARY
  5
6B
102
{ACAD_REACTORS
330
C
102
}
330
C
100
AcDbDictionary
281
1
  0
DICTIONARY
  5
7E
102
{ACAD_REACTORS
330
C
102
}
330
C
100
AcDbDictionary
281
1
  0
LAYOUT
  5
D3
102
{ACAD_REACTORS
330
1A
102
}
330
1A
100
AcDbPlotSettings
  1

  2
C:\Documents and Settings\basas\Application Data\Autodesk\AutoCAD 2005\R16.1\enu\plotters\Default Windows System Printer.pc3
  4

  6

 40
0.0
 41
0.0
 42
0.0
 43
0.0
 44
0.0
 45
0.0
 46
0.0
 47
0.0
 48
0.0
 49
0.0
140
0.0
141
0.0
142
1.0
143
1.0
 70
688
 72
0
 73
0
 74
5
  7

 75
16
 76
0
 77
2
 78
300
147
1.0
148
0.0
149
0.0
100
AcDbLayout
  1
Лист1
 70
1
 71
1
 10
0.0
 20
0.0
 11
12.0
 21
9.0
 12
0.0
 22
0.0
 32
0.0
 14
0.0
 24
0.0
 34
0.0
 15
0.0
 25
0.0
 35
0.0
146
0.0
 13
0.0
 23
0.0
 33
0.0
 16
1.0
 26
0.0
 36
0.0
 17
0.0
 27
1.0
 37
0.0
 76
0
330
D2
  0
LAYOUT
  5
D7
102
{ACAD_REACTORS
330
1A
102
}
330
1A
100
AcDbPlotSettings
  1

  2
C:\Documents and Settings\basas\Application Data\Autodesk\AutoCAD 2005\R16.1\enu\plotters\Default Windows System Printer.pc3
  4

  6

 40
0.0
 41
0.0
 42
0.0
 43
0.0
 44
0.0
 45
0.0
 46
0.0
 47
0.0
 48
0.0
 49
0.0
140
0.0
141
0.0
142
1.0
143
1.0
 70
688
 72
0
 73
0
 74
5
  7

 75
16
 76
0
 77
2
 78
300
147
1.0
148
0.0
149
0.0
100
AcDbLayout
  1
Лист2
 70
1
 71
2
 10
0.0
 20
0.0
 11
12.0
 21
9.0
 12
0.0
 22
0.0
 32
0.0
 14
0.0
 24
0.0
 34
0.0
 15
0.0
 25
0.0
 35
0.0
146
0.0
 13
0.0
 23
0.0
 33
0.0
 16
1.0
 26
0.0
 36
0.0
 17
0.0
 27
1.0
 37
0.0
 76
0
330
D6
  0
DICTIONARY
  5
EF
102
{ACAD_REACTORS
330
C
102
}
330
C
100
AcDbDictionary
281
1
  3
2dWireframe
350
F5
  3
Basic
350
F4
  3
Brighten
350
FB
  3
ColorChange
350
FF
  3
Conceptual
350
F8
  3
Dim
350
FA
  3
EdgeColorOff
350
1E6
  3
Facepattern
350
FE
  3
Flat
350
F0
  3
FlatWithEdges
350
F1
  3
Gouraud
350
F2
  3
GouraudWithEdges
350
F3
  3
Hidden
350
F7
  3
JitterOff
350
1E4
  3
Linepattern
350
FD
  3
OverhangOff
350
1E5
  3
Realistic
350
F9
  3
Shaded
350
1F3
  3
Shaded with edges
350
1F2
  3
Shades of Gray
350
1EF
  3
Sketchy
350
1F0
  3
Thicken
350
FC
  3
Wireframe
350
F6
  3
X-Ray
350
1F1
  0
VISUALSTYLE
  5
F0
102
{ACAD_REACTORS
330
EF
102
}
330
EF
100
AcDbVisualStyle
  2
Flat
 70
0
177
2
291
1
 70
58
 90
2
176
1
 90
1
176
1
 90
1
176
1
 90
2
176
1
 40
0.6
176
1
 40
30.0
176
1
 62
7
420
3271557119
176
1
 90
0
176
1
 90
0
176
1
 62
7
176
1
 62
257
176
1
 90
1
176
1
 90
1
176
1
 40
1.0
176
1
 90
8
176
1
 62
7
176
1
 40
1.0
176
1
 90
1
176
1
 90
6
176
1
 90
2
176
1
 62
7
176
1
 90
5
176
1
 90
0
176
1
 90
0
176
1
290
0
176
1
 90
13
176
1
 40
0.0
176
1
 90
0
176
1
290
0
176
1
290
1
176
1
290
1
176
1
290
0
290
0
176
1
290
0
290
0
176
1
290
0
176
1
290
0
176
1
 90
50
176
1
 40
0.0
176
1
 40
1.0
176
1
 90
0
176
1
 62
0
420
3254779904
176
1
 90
50
176
1
 90
3
176
1
 62
5
420
3254780159
176
1
290
0
176
1
 90
50
176
1
 90
50
176
1
 90
50
176
1
290
0
176
1
 90
50
176
1
 62
0
176
0
 40
1.0
176
0
 90
2
176
1
  1
strokes_ogs.tif
176
1
290
0
176
1
 40
1.0
176
1
 40
1.0
176
1
  0
VISUALSTYLE
  5
F1
102
{ACAD_REACTORS
330
EF
102
}
330
EF
100
AcDbVisualStyle
  2
FlatWithEdges
 70
1
177
2
291
1
 70
58
 90
2
176
1
 90
1
176
1
 90
1
176
1
 90
2
176
1
 40
0.6
176
1
 40
30.0
176
1
 62
7
420
3271557119
176
1
 90
1
176
1
 90
0
176
1
 62
7
176
1
 62
257
176
1
 90
1
176
1
 90
1
176
1
 40
1.0
176
1
 90
0
176
1
 62
257
176
1
 40
1.0
176
1
 90
1
176
1
 90
6
176
1
 90
2
176
1
 62
7
176
1
 90
5
176
1
 90
0
176
1
 90
0
176
1
290
0
176
1
 90
13
176
1
 40
0.0
176
1
 90
0
176
1
290
0
176
1
290
1
176
1
290
1
176
1
290
0
290
0
176
1
290
0
290
0
176
1
290
0
176
1
290
0
176
1
 90
50
176
1
 40
0.0
176
1
 40
1.0
176
1
 90
0
176
1
 62
0
420
3254779904
176
1
 90
50
176
1
 90
3
176
1
 62
5
420
3254780159
176
1
290
0
176
1
 90
50
176
1
 90
50
176
1
 90
50
176
1
290
0
176
1
 90
50
176
1
 62
0
176
0
 40
1.0
176
0
 90
2
176
1
  1
strokes_ogs.tif
176
1
290
0
176
1
 40
1.0
176
1
 40
1.0
176
1
  0
VISUALSTYLE
  5
F2
102
{ACAD_REACTORS
330
EF
102
}
330
EF
100
AcDbVisualStyle
  2
Gouraud
 70
2
177
2
291
1
 70
58
 90
2
176
1
 90
2
176
1
 90
1
176
1
 90
2
176
1
 40
0.6
176
1
 40
30.0
176
1
 62
7
420
3271557119
176
1
 90
0
176
1
 90
0
176
1
 62
7
176
1
 62
257
176
1
 90
1
176
1
 90
1
176
1
 40
1.0
176
1
 90
0
176
1
 62
7
176
1
 40
1.0
176
1
 90
1
176
1
 90
6
176
1
 90
2
176
1
 62
7
176
1
 90
5
176
1
 90
0
176
1
 90
0
176
1
290
0
176
1
 90
13
176
1
 40
0.0
176
1
 90
0
176
1
290
0
176
1
290
1
176
1
290
1
176
1
290
0
290
0
176
1
290
0
290
0
176
1
290
0
176
1
290
0
176
1
 90
50
176
1
 40
0.0
176
1
 40
1.0
176
1
 90
0
176
1
 62
0
420
3254779904
176
1
 90
50
176
1
 90
3
176
1
 62
5
420
3254780159
176
1
290
0
176
1
 90
50
176
1
 90
50
176
1
 90
50
176
1
290
0
176
1
 90
50
176
1
 62
0
176
0
 40
1.0
176
0
 90
2
176
1
  1
strokes_ogs.tif
176
1
290
0
176
1
 40
1.0
176
1
 40
1.0
176
1
  0
VISUALSTYLE
  5
F3
102
{ACAD_REACTORS
330
EF
102
}
330
EF
100
AcDbVisualStyle
  2
GouraudWithEdges
 70
3
177
2
291
1
 70
58
 90
2
176
1
 90
2
176
1
 90
1
176
1
 90
2
176
1
 40
0.6
176
1
 40
30.0
176
1
 62
7
420
3271557119
176
1
 90
1
176
1
 90
0
176
1
 62
7
176
1
 62
257
176
1
 90
1
176
1
 90
1
176
1
 40
1.0
176
1
 90
0
176
1
 62
257
176
1
 40
1.0
176
1
 90
1
176
1
 90
6
176
1
 90
2
176
1
 62
7
176
1
 90
5
176
1
 90
0
176
1
 90
0
176
1
290
0
176
1
 90
13
176
1
 40
0.0
176
1
 90
0
176
1
290
0
176
1
290
1
176
1
290
1
176
1
290
0
290
0
176
1
290
0
290
0
176
1
290
0
176
1
290
0
176
1
 90
50
176
1
 40
0.0
176
1
 40
1.0
176
1
 90
0
176
1
 62
0
420
3254779904
176
1
 90
50
176
1
 90
3
176
1
 62
5
420
3254780159
176
1
290
0
176
1
 90
50
176
1
 90
50
176
1
 90
50
176
1
290
0
176
1
 90
50
176
1
 62
0
176
0
 40
1.0
176
0
 90
2
176
1
  1
strokes_ogs.tif
176
1
290
0
176
1
 40
1.0
176
1
 40
1.0
176
1
  0
VISUALSTYLE
  5
F4
102
{ACAD_REACTORS
330
EF
102
}
330
EF
100
AcDbVisualStyle
  2
Basic
 70
7
177
2
291
1
 70
58
 90
1
176
1
 90
0
176
1
 90
1
176
1
 90
0
176
1
 40
0.6
176
1
 40
30.0
176
1
 62
7
420
3271557119
176
1
 90
0
176
1
 90
4
176
1
 62
7
176
1
 62
257
176
1
 90
1
176
1
 90
1
176
1
 40
1.0
176
1
 90
8
176
1
 62
7
176
1
 40
1.0
176
1
 90
1
176
1
 90
6
176
1
 90
2
176
1
 62
7
176
1
 90
5
176
1
 90
0
176
1
 90
0
176
1
290
0
176
1
 90
1
176
1
 40
0.0
176
1
 90
0
176
1
290
0
176
1
290
1
176
1
290
1
176
1
290
0
290
0
176
1
290
0
290
0
176
1
290
0
176
1
290
0
176
1
 90
50
176
1
 40
0.0
176
1
 40
1.0
176
1
 90
0
176
1
 62
0
420
3254779904
176
1
 90
50
176
1
 90
3
176
1
 62
5
420
3254780159
176
1
290
0
176
1
 90
50
176
1
 90
50
176
1
 90
50
176
1
290
0
176
1
 90
50
176
1
 62
0
176
0
 40
1.0
176
0
 90
2
176
1
  1
strokes_ogs.tif
176
1
290
0
176
1
 40
1.0
176
1
 40
1.0
176
1
  0
VISUALSTYLE
  5
F5
102
{ACAD_REACTORS
330
EF
102
}
330
EF
100
AcDbVisualStyle
  2
2dWireframe
 70
4
177
2
291
0
 70
58
 90
0
176
1
 90
2
176
1
 90
1
176
1
 90
0
176
1
 40
0.6
176
1
 40
30.0
176
1
 62
7
420
3271557119
176
1
 90
1
176
1
 90
4
176
1
 62
7
176
1
 62
257
176
1
 90
1
176
1
 90
1
176
1
 40
1.0
176
1
 90
0
176
1
 62
257
176
1
 40
1.0
176
1
 90
1
176
1
 90
6
176
1
 90
2
176
1
 62
7
176
1
 90
5
176
1
 90
0
176
1
 90
0
176
1
290
0
176
1
 90
1
176
1
 40
0.0
176
1
 90
0
176
1
290
1
176
1
290
1
176
1
290
0
176
1
290
0
290
0
176
1
290
0
290
0
176
1
290
0
176
1
290
0
176
1
 90
50
176
1
 40
0.0
176
1
 40
1.0
176
1
 90
0
176
1
 62
0
420
3254779904
176
1
 90
50
176
1
 90
3
176
1
 62
5
420
3254780159
176
1
290
0
176
1
 90
50
176
1
 90
50
176
1
 90
50
176
1
290
0
176
1
 90
50
176
1
 62
0
176
0
 40
1.0
176
0
 90
2
176
1
  1
strokes_ogs.tif
176
1
290
0
176
1
 40
1.0
176
1
 40
1.0
176
1
  0
VISUALSTYLE
  5
F6
102
{ACAD_REACTORS
330
EF
102
}
330
EF
100
AcDbVisualStyle
  2
Wireframe
 70
5
177
2
291
0
 70
58
 90
0
176
1
 90
2
176
1
 90
0
176
1
 90
0
176
1
 40
0.6
176
1
 40
30.0
176
1
 62
7
420
3271557119
176
1
 90
1
176
1
 90
4
176
1
 62
7
176
1
 62
257
176
1
 90
1
176
1
 90
1
176
1
 40
1.0
176
1
 90
0
176
1
 62
257
176
1
 40
1.0
176
1
 90
1
176
1
 90
6
176
1
 90
2
176
1
 62
7
176
1
 90
3
176
1
 90
0
176
1
 90
0
176
1
290
0
176
1
 90
1
176
1
 40
0.0
176
1
 90
0
176
1
290
0
176
1
290
1
176
1
290
1
176
1
290
0
290
0
176
1
290
0
290
0
176
1
290
0
176
1
290
0
176
1
 90
50
176
1
 40
0.0
176
1
 40
1.0
176
1
 90
0
176
1
 62
0
420
3254779904
176
1
 90
50
176
1
 90
3
176
1
 62
5
420
3254780159
176
1
290
0
176
1
 90
50
176
1
 90
50
176
1
 90
50
176
1
290
0
176
1
 90
50
176
1
 62
0
176
0
 40
1.0
176
0
 90
2
176
1
  1
strokes_ogs.tif
176
1
290
0
176
1
 40
1.0
176
1
 40
1.0
176
1
  0
VISUALSTYLE
  5
F7
102
{ACAD_REACTORS
330
EF
102
}
330
EF
100
AcDbVisualStyle
  2
Hidden
 70
6
177
2
291
0
 70
58
 90
1
176
1
 90
2
176
1
 90
2
176
1
 90
0
176
1
 40
0.6
176
1
 40
30.0
176
1
 62
7
420
3271557119
176
1
 90
2
176
1
 90
2
176
1
 62
7
176
1
 62
257
176
1
 90
2
176
1
 90
1
176
1
 40
40.0
176
1
 90
0
176
1
 62
257
176
1
 40
1.0
176
1
 90
1
176
1
 90
6
176
1
 90
2
176
1
 62
7
176
1
 90
3
176
1
 90
0
176
1
 90
0
176
1
290
0
176
1
 90
1
176
1
 40
0.0
176
1
 90
0
176
1
290
0
176
1
290
1
176
1
290
1
176
1
290
0
290
0
176
1
290
0
290
0
176
1
290
0
176
1
290
0
176
1
 90
50
176
1
 40
0.0
176
1
 40
1.0
176
1
 90
0
176
1
 62
0
420
3254779904
176
1
 90
50
176
1
 90
3
176
1
 62
5
420
3254780159
176
1
290
0
176
1
 90
50
176
1
 90
50
176
1
 90
50
176
1
290
0
176
1
 90
50
176
1
 62
0
176
0
 40
1.0
176
0
 90
2
176
1
  1
strokes_ogs.tif
176
1
290
0
176
1
 40
1.0
176
1
 40
1.0
176
1
  0
VISUALSTYLE
  5
F8
102
{ACAD_REACTORS
330
EF
102
}
330
EF
100
AcDbVisualStyle
  2
Conceptual
 70
9
177
2
291
0
 70
58
 90
3
176
1
 90
2
176
1
 90
1
176
1
 90
0
176
1
 40
0.6
176
1
 40
30.0
176
1
 62
7
420
3271557119
176
1
 90
2
176
1
 90
2
176
1
 62
7
176
1
 62
257
176
1
 90
1
176
1
 90
1
176
1
 40
40.0
176
1
 90
8
176
1
 62
7
176
1
 40
1.0
176
1
 90
1
176
1
 90
6
176
1
 90
2
176
1
 62
7
176
1
 90
3
176
1
 90
0
176
1
 90
0
176
1
290
0
176
1
 90
1
176
1
 40
0.0
176
1
 90
0
176
1
290
0
176
1
290
1
176
1
290
1
176
1
290
0
290
0
176
1
290
0
290
0
176
1
290
0
176
1
290
0
176
1
 90
50
176
1
 40
0.0
176
1
 40
1.0
176
1
 90
0
176
1
 62
0
420
3254779904
176
1
 90
50
176
1
 90
3
176
1
 62
5
420
3254780159
176
1
290
0
176
1
 90
50
176
1
 90
50
176
1
 90
50
176
1
290
0
176
1
 90
50
176
1
 62
0
176
0
 40
1.0
176
0
 90
2
176
1
  1
strokes_ogs.tif
176
1
290
0
176
1
 40
1.0
176
1
 40
1.0
176
1
  0
VISUALSTYLE
  5
F9
102
{ACAD_REACTORS
330
EF
102
}
330
EF
100
AcDbVisualStyle
  2
Realistic
 70
8
177
2
291
0
 70
58
 90
2
176
1
 90
3
176
1
 90
0
176
1
 90
2
176
1
 40
0.6
176
1
 40
30.0
176
1
 62
7
420
3271557119
176
1
 90
0
176
1
 90
0
176
1
 62
7
176
1
 62
257
176
1
 90
1
176
1
 90
1
176
1
 40
1.0
176
1
 90
8
176
1
 62
257
176
1
 40
1.0
176
1
 90
1
176
1
 90
6
176
1
 90
2
176
1
 62
7
176
1
 90
3
176
1
 90
0
176
1
 90
0
176
1
290
0
176
1
 90
13
176
1
 40
0.0
176
1
 90
0
176
1
290
0
176
1
290
1
176
1
290
1
176
1
290
0
290
0
176
1
290
0
290
0
176
1
290
0
176
1
290
0
176
1
 90
50
176
1
 40
0.0
176
1
 40
1.0
176
1
 90
0
176
1
 62
0
420
3254779904
176
1
 90
50
176
1
 90
3
176
1
 62
5
420
3254780159
176
1
290
0
176
1
 90
50
176
1
 90
50
176
1
 90
50
176
1
290
0
176
1
 90
50
176
1
 62
0
176
0
 40
1.0
176
0
 90
2
176
1
  1
strokes_ogs.tif
176
1
290
0
176
1
 40
1.0
176
1
 40
1.0
176
1
  0
VISUALSTYLE
  5
FA
102
{ACAD_REACTORS
330
EF
102
}
330
EF
100
AcDbVisualStyle
  2
Dim
 70
11
177
2
291
1
 70
58
 90
2
176
1
 90
2
176
1
 90
1
176
1
 90
0
176
1
 40
0.6
176
1
 40
30.0
176
1
 62
7
420
3271557119
176
1
 90
1
176
1
 90
4
176
1
 62
7
176
1
 62
257
176
1
 90
1
176
1
 90
1
176
1
 40
1.0
176
1
 90
8
176
1
 62
7
176
1
 40
1.0
176
1
 90
1
176
1
 90
6
176
1
 90
2
176
1
 62
7
176
1
 90
5
176
1
 90
0
176
1
 90
0
176
1
290
0
176
1
 90
1
176
1
 40
-50.0
176
1
 90
0
176
1
290
0
176
1
290
1
176
1
290
1
176
1
290
0
290
0
176
1
290
0
290
0
176
1
290
0
176
1
290
0
176
1
 90
50
176
1
 40
0.0
176
1
 40
1.0
176
1
 90
0
176
1
 62
0
420
3254779904
176
1
 90
50
176
1
 90
3
176
1
 62
5
420
3254780159
176
1
290
0
176
1
 90
50
176
1
 90
50
176
1
 90
50
176
1
290
0
176
1
 90
50
176
1
 62
0
176
0
 40
1.0
176
0
 90
2
176
1
  1
strokes_ogs.tif
176
1
290
0
176
1
 40
1.0
176
1
 40
1.0
176
1
  0
VISUALSTYLE
  5
FB
102
{ACAD_REACTORS
330
EF
102
}
330
EF
100
AcDbVisualStyle
  2
Brighten
 70
12
177
2
291
1
 70
58
 90
2
176
1
 90
2
176
1
 90
1
176
1
 90
0
176
1
 40
0.6
176
1
 40
30.0
176
1
 62
7
420
3271557119
176
1
 90
1
176
1
 90
4
176
1
 62
7
176
1
 62
257
176
1
 90
1
176
1
 90
1
176
1
 40
1.0
176
1
 90
8
176
1
 62
7
176
1
 40
1.0
176
1
 90
1
176
1
 90
6
176
1
 90
2
176
1
 62
7
176
1
 90
5
176
1
 90
0
176
1
 90
0
176
1
290
0
176
1
 90
1
176
1
 40
50.0
176
1
 90
0
176
1
290
0
176
1
290
1
176
1
290
1
176
1
290
0
290
0
176
1
290
0
290
0
176
1
290
0
176
1
290
0
176
1
 90
50
176
1
 40
0.0
176
1
 40
1.0
176
1
 90
0
176
1
 62
0
420
3254779904
176
1
 90
50
176
1
 90
3
176
1
 62
5
420
3254780159
176
1
290
0
176
1
 90
50
176
1
 90
50
176
1
 90
50
176
1
290
0
176
1
 90
50
176
1
 62
0
176
0
 40
1.0
176
0
 90
2
176
1
  1
strokes_ogs.tif
176
1
290
0
176
1
 40
1.0
176
1
 40
1.0
176
1
  0
VISUALSTYLE
  5
FC
102
{ACAD_REACTORS
330
EF
102
}
330
EF
100
AcDbVisualStyle
  2
Thicken
 70
13
177
2
291
1
 70
58
 90
2
176
1
 90
2
176
1
 90
1
176
1
 90
0
176
1
 40
0.6
176
1
 40
30.0
176
1
 62
7
420
3271557119
176
1
 90
1
176
1
 90
4
176
1
 62
7
176
1
 62
257
176
1
 90
1
176
1
 90
1
176
1
 40
1.0
176
1
 90
12
176
1
 62
7
176
1
 40
1.0
176
1
 90
1
176
1
 90
6
176
1
 90
2
176
1
 62
7
176
1
 90
5
176
1
 90
0
176
1
 90
0
176
1
290
0
176
1
 90
1
176
1
 40
0.0
176
1
 90
0
176
1
290
0
176
1
290
1
176
1
290
1
176
1
290
0
290
0
176
1
290
0
290
0
176
1
290
0
176
1
290
0
176
1
 90
50
176
1
 40
0.0
176
1
 40
1.0
176
1
 90
0
176
1
 62
0
420
3254779904
176
1
 90
50
176
1
 90
3
176
1
 62
5
420
3254780159
176
1
290
0
176
1
 90
50
176
1
 90
50
176
1
 90
50
176
1
290
0
176
1
 90
50
176
1
 62
0
176
0
 40
1.0
176
0
 90
2
176
1
  1
strokes_ogs.tif
176
1
290
0
176
1
 40
1.0
176
1
 40
1.0
176
1
  0
VISUALSTYLE
  5
FD
102
{ACAD_REACTORS
330
EF
102
}
330
EF
100
AcDbVisualStyle
  2
Linepattern
 70
14
177
2
291
1
 70
58
 90
2
176
1
 90
2
176
1
 90
1
176
1
 90
0
176
1
 40
0.6
176
1
 40
30.0
176
1
 62
7
420
3271557119
176
1
 90
1
176
1
 90
4
176
1
 62
7
176
1
 62
257
176
1
 90
7
176
1
 90
7
176
1
 40
1.0
176
1
 90
8
176
1
 62
7
176
1
 40
1.0
176
1
 90
1
176
1
 90
6
176
1
 90
2
176
1
 62
7
176
1
 90
5
176
1
 90
0
176
1
 90
0
176
1
290
0
176
1
 90
1
176
1
 40
0.0
176
1
 90
0
176
1
290
0
176
1
290
1
176
1
290
1
176
1
290
0
290
0
176
1
290
0
290
0
176
1
290
0
176
1
290
0
176
1
 90
50
176
1
 40
0.0
176
1
 40
1.0
176
1
 90
0
176
1
 62
0
420
3254779904
176
1
 90
50
176
1
 90
3
176
1
 62
5
420
3254780159
176
1
290
0
176
1
 90
50
176
1
 90
50
176
1
 90
50
176
1
290
0
176
1
 90
50
176
1
 62
0
176
0
 40
1.0
176
0
 90
2
176
1
  1
strokes_ogs.tif
176
1
290
0
176
1
 40
1.0
176
1
 40
1.0
176
1
  0
VISUALSTYLE
  5
FE
102
{ACAD_REACTORS
330
EF
102
}
330
EF
100
AcDbVisualStyle
  2
Facepattern
 70
15
177
2
291
1
 70
58
 90
2
176
1
 90
2
176
1
 90
1
176
1
 90
0
176
1
 40
0.6
176
1
 40
30.0
176
1
 62
7
420
3271557119
176
1
 90
1
176
1
 90
4
176
1
 62
7
176
1
 62
257
176
1
 90
1
176
1
 90
1
176
1
 40
1.0
176
1
 90
8
176
1
 62
7
176
1
 40
1.0
176
1
 90
1
176
1
 90
6
176
1
 90
2
176
1
 62
7
176
1
 90
5
176
1
 90
0
176
1
 90
0
176
1
290
0
176
1
 90
1
176
1
 40
0.0
176
1
 90
0
176
1
290
0
176
1
290
1
176
1
290
1
176
1
290
0
290
0
176
1
290
0
290
0
176
1
290
0
176
1
290
0
176
1
 90
50
176
1
 40
0.0
176
1
 40
1.0
176
1
 90
0
176
1
 62
0
420
3254779904
176
1
 90
50
176
1
 90
3
176
1
 62
5
420
3254780159
176
1
290
0
176
1
 90
50
176
1
 90
50
176
1
 90
50
176
1
290
0
176
1
 90
50
176
1
 62
0
176
0
 40
1.0
176
0
 90
2
176
1
  1
strokes_ogs.tif
176
1
290
0
176
1
 40
1.0
176
1
 40
1.0
176
1
  0
VISUALSTYLE
  5
FF
102
{ACAD_REACTORS
330
EF
102
}
330
EF
100
AcDbVisualStyle
  2
ColorChange
 70
16
177
2
291
1
 70
58
 90
2
176
1
 90
2
176
1
 90
3
176
1
 90
0
176
1
 40
0.6
176
1
 40
30.0
176
1
 62
9
420
3263201408
176
1
 90
1
176
1
 90
4
176
1
 62
7
176
1
 62
257
176
1
 90
1
176
1
 90
1
176
1
 40
1.0
176
1
 90
8
176
1
 62
9
420
3263201408
176
1
 40
1.0
176
1
 90
1
176
1
 90
6
176
1
 90
2
176
1
 62
7
176
1
 90
5
176
1
 90
0
176
1
 90
0
176
1
290
0
176
1
 90
1
176
1
 40
0.0
176
1
 90
0
176
1
290
0
176
1
290
1
176
1
290
1
176
1
290
0
290
0
176
1
290
0
290
0
176
1
290
0
176
1
290
0
176
1
 90
50
176
1
 40
0.0
176
1
 40
1.0
176
1
 90
0
176
1
 62
0
420
3254779904
176
1
 90
50
176
1
 90
3
176
1
 62
5
420
3254780159
176
1
290
0
176
1
 90
50
176
1
 90
50
176
1
 90
50
176
1
290
0
176
1
 90
50
176
1
 62
0
176
0
 40
1.0
176
0
 90
2
176
1
  1
strokes_ogs.tif
176
1
290
0
176
1
 40
1.0
176
1
 40
1.0
176
1
  0
DICTIONARY
  5
10C
102
{ACAD_REACTORS
330
C
102
}
330
C
100
AcDbDictionary
281
1
  3
A0
350
10D
  3
A1
350
1BE
  3
A2
350
1BF
  3
A3
350
1C0
  3
A4
350
1C1
  3
A5
350
1C2
  3
A6
350
1C3
  3
A7
350
1C4
  3
A8
350
1C5
  3
A9
350
1C6
  3
B0
350
1C7
  3
B1
350
1C8
  3
B2
350
1C9
  3
B3
350
1CA
  3
B4
350
1CB
  3
B5
350
1CC
  3
B6
350
1CD
  0
SCALE
  5
10D
102
{ACAD_REACTORS
330
10C
102
}
330
10C
100
AcDbScale
 70
0
300
1:1
140
1.0
141
1.0
290
1
  0
DICTIONARY
  5
12D
102
{ACAD_REACTORS
330
C
102
}
330
C
100
AcDbDictionary
281
1
  3
Standard
350
787
  0
DICTIONARY
  5
13C
330
10
100
AcDbDictionary
280
1
281
1
  0
SCALE
  5
1BE
102
{ACAD_REACTORS
330
10C
102
}
330
10C
100
AcDbScale
 70
0
300
1:2
140
1.0
141
2.0
290
0
  0
SCALE
  5
1BF
102
{ACAD_REACTORS
330
10C
102
}
330
10C
100
AcDbScale
 70
0
300
1:4
140
1.0
141
4.0
290
0
  0
SCALE
  5
1C0
102
{ACAD_REACTORS
330
10C
102
}
330
10C
100
AcDbScale
 70
0
300
1:5
140
1.0
141
5.0
290
0
  0
SCALE
  5
1C1
102
{ACAD_REACTORS
330
10C
102
}
330
10C
100
AcDbScale
 70
0
300
1:8
140
1.0
141
8.0
290
0
  0
SCALE
  5
1C2
102
{ACAD_REACTORS
330
10C
102
}
330
10C
100
AcDbScale
 70
0
300
1:10
140
1.0
141
10.0
290
0
  0
SCALE
  5
1C3
102
{ACAD_REACTORS
330
10C
102
}
330
10C
100
AcDbScale
 70
0
300
1:16
140
1.0
141
16.0
290
0
  0
SCALE
  5
1C4
102
{ACAD_REACTORS
330
10C
102
}
330
10C
100
AcDbScale
 70
0
300
1:20
140
1.0
141
20.0
290
0
  0
SCALE
  5
1C5
102
{ACAD_REACTORS
330
10C
102
}
330
10C
100
AcDbScale
 70
0
300
1:30
140
1.0
141
30.0
290
0
  0
SCALE
  5
1C6
102
{ACAD_REACTORS
330
10C
102
}
330
10C
100
AcDbScale
 70
0
300
1:40
140
1.0
141
40.0
290
0
  0
SCALE
  5
1C7
102
{ACAD_REACTORS
330
10C
102
}
330
10C
100
AcDbScale
 70
0
300
1:50
140
1.0
141
50.0
290
0
  0
SCALE
  5
1C8
102
{ACAD_REACTORS
330
10C
102
}
330
10C
100
AcDbScale
 70
0
300
1:100
140
1.0
141
100.0
290
0
  0
SCALE
  5
1C9
102
{ACAD_REACTORS
330
10C
102
}
330
10C
100
AcDbScale
 70
0
300
2:1
140
2.0
141
1.0
290
0
  0
SCALE
  5
1CA
102
{ACAD_REACTORS
330
10C
102
}
330
10C
100
AcDbScale
 70
0
300
4:1
140
4.0
141
1.0
290
0
  0
SCALE
  5
1CB
102
{ACAD_REACTORS
330
10C
102
}
330
10C
100
AcDbScale
 70
0
300
8:1
140
8.0
141
1.0
290
0
  0
SCALE
  5
1CC
102
{ACAD_REACTORS
330
10C
102
}
330
10C
100
AcDbScale
 70
0
300
10:1
140
10.0
141
1.0
290
0
  0
SCALE
  5
1CD
102
{ACAD_REACTORS
330
10C
102
}
330
10C
100
AcDbScale
 70
0
300
100:1
140
100.0
141
1.0
290
0
  0
DICTIONARY
  5
1CE
330
1F
100
AcDbDictionary
280
1
281
1
  0
VISUALSTYLE
  5
1E4
102
{ACAD_REACTORS
330
EF
102
}
330
EF
100
AcDbVisualStyle
  2
JitterOff
 70
20
177
2
291
1
 70
58
 90
2
176
0
 90
2
176
0
 90
0
176
0
 90
0
176
0
 40
0.6
176
0
 40
30.0
176
0
 62
7
420
3271557119
176
0
 90
1
176
0
 90
4
176
0
 62
7
176
0
 62
257
176
0
 90
1
176
0
 90
1
176
0
 40
1.0
176
0
 90
10
176
2
 62
7
176
0
 40
1.0
176
0
 90
1
176
0
 90
6
176
0
 90
2
176
0
 62
7
176
0
 90
5
176
0
 90
0
176
0
 90
0
176
0
290
0
176
0
 90
1
176
0
 40
0.0
176
0
 90
0
176
0
290
0
176
1
290
1
176
1
290
1
176
1
290
0
290
0
176
1
290
0
290
0
176
1
290
0
176
1
290
0
176
1
 90
50
176
1
 40
0.0
176
1
 40
1.0
176
1
 90
0
176
1
 62
0
420
3254779904
176
1
 90
50
176
1
 90
3
176
1
 62
5
420
3254780159
176
1
290
0
176
1
 90
50
176
1
 90
50
176
1
 90
50
176
1
290
0
176
1
 90
50
176
1
 62
0
176
0
 40
1.0
176
0
 90
2
176
1
  1
strokes_ogs.tif
176
1
290
0
176
1
 40
1.0
176
1
 40
1.0
176
1
  0
VISUALSTYLE
  5
1E5
102
{ACAD_REACTORS
330
EF
102
}
330
EF
100
AcDbVisualStyle
  2
OverhangOff
 70
21
177
2
291
1
 70
58
 90
2
176
0
 90
2
176
0
 90
0
176
0
 90
0
176
0
 40
0.6
176
0
 40
30.0
176
0
 62
7
420
3271557119
176
0
 90
1
176
0
 90
4
176
0
 62
7
176
0
 62
257
176
0
 90
1
176
0
 90
1
176
0
 40
1.0
176
0
 90
9
176
2
 62
7
176
0
 40
1.0
176
0
 90
1
176
0
 90
6
176
0
 90
2
176
0
 62
7
176
0
 90
5
176
0
 90
0
176
0
 90
0
176
0
290
0
176
0
 90
1
176
0
 40
0.0
176
0
 90
0
176
0
290
0
176
1
290
1
176
1
290
1
176
1
290
0
290
0
176
1
290
0
290
0
176
1
290
0
176
1
290
0
176
1
 90
50
176
1
 40
0.0
176
1
 40
1.0
176
1
 90
0
176
1
 62
0
420
3254779904
176
1
 90
50
176
1
 90
3
176
1
 62
5
420
3254780159
176
1
290
0
176
1
 90
50
176
1
 90
50
176
1
 90
50
176
1
290
0
176
1
 90
50
176
1
 62
0
176
0
 40
1.0
176
0
 90
2
176
1
  1
strokes_ogs.tif
176
1
290
0
176
1
 40
1.0
176
1
 40
1.0
176
1
  0
VISUALSTYLE
  5
1E6
102
{ACAD_REACTORS
330
EF
102
}
330
EF
100
AcDbVisualStyle
  2
EdgeColorOff
 70
22
177
2
291
1
 70
58
 90
2
176
0
 90
2
176
0
 90
0
176
0
 90
0
176
0
 40
0.6
176
0
 40
30.0
176
0
 62
7
420
3271557119
176
0
 90
1
176
0
 90
4
176
0
 62
7
176
0
 62
257
176
0
 90
1
176
0
 90
1
176
0
 40
1.0
176
0
 90
8
176
2
 62
7
176
0
 40
1.0
176
0
 90
1
176
0
 90
6
176
0
 90
2
176
0
 62
7
176
0
 90
5
176
0
 90
0
176
0
 90
0
176
0
290
0
176
0
 90
1
176
0
 40
0.0
176
0
 90
0
176
0
290
0
176
1
290
1
176
1
290
1
176
1
290
0
290
0
176
1
290
0
290
0
176
1
290
0
176
1
290
0
176
1
 90
50
176
1
 40
0.0
176
1
 40
1.0
176
1
 90
0
176
1
 62
0
420
3254779904
176
1
 90
50
176
1
 90
3
176
1
 62
5
420
3254780159
176
1
290
0
176
1
 90
50
176
1
 90
50
176
1
 90
50
176
1
290
0
176
1
 90
50
176
1
 62
0
176
0
 40
1.0
176
0
 90
2
176
1
  1
strokes_ogs.tif
176
1
290
0
176
1
 40
1.0
176
1
 40
1.0
176
1
  0
VISUALSTYLE
  5
1EF
102
{ACAD_REACTORS
330
EF
102
}
330
EF
100
AcDbVisualStyle
  2
Shades of Gray
 70
23
177
2
291
0
 70
58
 90
2
176
1
 90
2
176
1
 90
3
176
1
 90
0
176
1
 40
0.6
176
1
 40
30.0
176
1
 62
7
420
3271557119
176
1
 90
2
176
1
 90
2
176
1
 62
7
176
1
 62
7
176
1
 90
1
176
1
 90
1
176
1
 40
40.0
176
1
 90
8
176
1
 62
7
176
1
 40
1.0
176
1
 90
1
176
1
 90
6
176
1
 90
2
176
1
 62
7
176
1
 90
3
176
1
 90
0
176
1
 90
0
176
1
290
0
176
1
 90
1
176
1
 40
0.0
176
1
 90
0
176
1
290
0
176
1
290
1
176
1
290
1
176
1
290
0
290
0
176
1
290
0
290
0
176
1
290
0
176
1
290
0
176
1
 90
50
176
1
 40
0.0
176
1
 40
1.0
176
1
 90
0
176
1
 62
0
420
3254779904
176
1
 90
50
176
1
 90
3
176
1
 62
5
420
3254780159
176
1
290
0
176
1
 90
50
176
1
 90
50
176
1
 90
50
176
1
290
0
176
1
 90
50
176
1
 62
0
176
0
 40
1.0
176
0
 90
2
176
1
  1
strokes_ogs.tif
176
1
290
0
176
1
 40
1.0
176
1
 40
1.0
176
1
  0
VISUALSTYLE
  5
1F0
102
{ACAD_REACTORS
330
EF
102
}
330
EF
100
AcDbVisualStyle
  2
Sketchy
 70
24
177
2
291
0
 70
58
 90
1
176
1
 90
2
176
1
 90
2
176
1
 90
0
176
1
 40
0.6
176
1
 40
30.0
176
1
 62
7
420
3271557119
176
1
 90
2
176
1
 90
2
176
1
 62
7
176
1
 62
7
176
1
 90
1
176
1
 90
1
176
1
 40
40.0
176
1
 90
11
176
1
 62
7
176
1
 40
1.0
176
1
 90
1
176
1
 90
6
176
1
 90
2
176
1
 62
7
176
1
 90
6
176
1
 90
0
176
1
 90
0
176
1
290
0
176
1
 90
1
176
1
 40
0.0
176
1
 90
0
176
1
290
0
176
1
290
1
176
1
290
1
176
1
290
0
290
0
176
1
290
0
290
0
176
1
290
0
176
1
290
0
176
1
 90
50
176
1
 40
0.0
176
1
 40
1.0
176
1
 90
0
176
1
 62
0
420
3254779904
176
1
 90
50
176
1
 90
3
176
1
 62
5
420
3254780159
176
1
290
0
176
1
 90
50
176
1
 90
50
176
1
 90
50
176
1
290
0
176
1
 90
50
176
1
 62
0
176
0
 40
1.0
176
0
 90
2
176
1
  1
strokes_ogs.tif
176
1
290
0
176
1
 40
1.0
176
1
 40
1.0
176
1
  0
VISUALSTYLE
  5
1F1
102
{ACAD_REACTORS
330
EF
102
}
330
EF
100
AcDbVisualStyle
  2
X-Ray
 70
25
177
2
291
0
 70
58
 90
2
176
1
 90
2
176
1
 90
1
176
1
 90
1
176
1
 40
0.5
176
1
 40
30.0
176
1
 62
7
420
3271557119
176
1
 90
1
176
1
 90
0
176
1
 62
7
176
1
 62
257
176
1
 90
1
176
1
 90
1
176
1
 40
1.0
176
1
 90
8
176
1
 62
7
176
1
 40
1.0
176
1
 90
1
176
1
 90
6
176
1
 90
2
176
1
 62
7
176
1
 90
3
176
1
 90
0
176
1
 90
0
176
1
290
0
176
1
 90
13
176
1
 40
0.0
176
1
 90
0
176
1
290
0
176
1
290
1
176
1
290
1
176
1
290
0
290
0
176
1
290
0
290
0
176
1
290
0
176
1
290
0
176
1
 90
50
176
1
 40
0.0
176
1
 40
1.0
176
1
 90
0
176
1
 62
0
420
3254779904
176
1
 90
50
176
1
 90
3
176
1
 62
5
420
3254780159
176
1
290
0
176
1
 90
50
176
1
 90
50
176
1
 90
50
176
1
290
0
176
1
 90
50
176
1
 62
0
176
0
 40
1.0
176
0
 90
2
176
1
  1
strokes_ogs.tif
176
1
290
0
176
1
 40
1.0
176
1
 40
1.0
176
1
  0
VISUALSTYLE
  5
1F2
102
{ACAD_REACTORS
330
EF
102
}
330
EF
100
AcDbVisualStyle
  2
Shaded with edges
 70
26
177
2
291
0
 70
58
 90
2
176
1
 90
2
176
1
 90
1
176
1
 90
2
176
1
 40
0.6
176
1
 40
30.0
176
1
 62
7
420
3271557119
176
1
 90
1
176
1
 90
2
176
1
 62
7
176
1
 62
257
176
1
 90
2
176
1
 90
1
176
1
 40
1.0
176
1
 90
8
176
1
 62
257
176
1
 40
1.0
176
1
 90
1
176
1
 90
6
176
1
 90
2
176
1
 62
7
176
1
 90
3
176
1
 90
0
176
1
 90
0
176
1
290
0
176
1
 90
5
176
1
 40
0.0
176
1
 90
0
176
1
290
0
176
1
290
1
176
1
290
1
176
1
290
0
290
0
176
1
290
0
290
0
176
1
290
0
176
1
290
0
176
1
 90
50
176
1
 40
0.0
176
1
 40
1.0
176
1
 90
0
176
1
 62
0
420
3254779904
176
1
 90
50
176
1
 90
3
176
1
 62
5
420
3254780159
176
1
290
0
176
1
 90
50
176
1
 90
50
176
1
 90
50
176
1
290
0
176
1
 90
50
176
1
 62
0
176
0
 40
1.0
176
0
 90
2
176
1
  1
strokes_ogs.tif
176
1
290
0
176
1
 40
1.0
176
1
 40
1.0
176
1
  0
VISUALSTYLE
  5
1F3
102
{ACAD_REACTORS
330
EF
102
}
330
EF
100
AcDbVisualStyle
  2
Shaded
 70
27
177
2
291
0
 70
58
 90
2
176
1
 90
2
176
1
 90
1
176
1
 90
2
176
1
 40
0.6
176
1
 40
30.0
176
1
 62
7
420
3271557119
176
1
 90
0
176
1
 90
4
176
1
 62
7
176
1
 62
257
176
1
 90
1
176
1
 90
1
176
1
 40
1.0
176
1
 90
8
176
1
 62
257
176
1
 40
1.0
176
1
 90
1
176
1
 90
6
176
1
 90
2
176
1
 62
256
420
3262675064
176
1
 90
3
176
1
 90
0
176
1
 90
0
176
1
290
0
176
1
 90
5
176
1
 40
0.0
176
1
 90
0
176
1
290
0
176
1
290
1
176
1
290
1
176
1
290
0
290
0
176
1
290
0
290
0
176
1
290
0
176
1
290
0
176
1
 90
50
176
1
 40
0.0
176
1
 40
1.0
176
1
 90
0
176
1
 62
0
420
3254779904
176
1
 90
50
176
1
 90
3
176
1
 62
5
420
3254780159
176
1
290
0
176
1
 90
50
176
1
 90
50
176
1
 90
50
176
1
290
0
176
1
 90
50
176
1
 62
0
176
0
 40
1.0
176
0
 90
2
176
1
  1
strokes_ogs.tif
176
1
290
0
176
1
 40
1.0
176
1
 40
1.0
176
1
  0
DICTIONARY
  5
1FF
330
2
100
AcDbDictionary
280
1
281
1
  3
ACAD_LAYERSTATES
360
200
  0
DICTIONARY
  5
200
102
{ACAD_REACTORS
330
1FF
102
}
330
1FF
100
AcDbDictionary
281
1
  0
DICTIONARY
  5
205
330
22
100
AcDbDictionary
280
1
281
1
  0
XRECORD
  5
216
102
{ACAD_REACTORS
330
C
102
}
330
C
100
AcDbXrecord
280
1
300
ACD
300
2022
300

  0
DICTIONARY
  5
219
102
{ACAD_REACTORS
330
C
102
}
330
C
100
AcDbDictionary
281
1
  3
Metric50
350
21A
  0
ACDBSECTIONVIEWSTYLE
  5
21A
102
{ACAD_REACTORS
330
219
102
}
330
219
100
AcDbModelDocViewStyle
 70
0
  3
Metric50
290
0
300
Metric50
 90
0
100
AcDbSectionViewStyle
 70
0
 71
0
 90
102
 71
1
340
11
 62
0
 40
5.0
340
0
340
0
 62
0
 40
5.0
300
I, O, Q, S, X, Z
 40
10.0
 90
0
 40
2.5
 90
0
 71
2
340
16
 90
25
 62
0
340
16
 90
50
 62
0
 40
5.0
 40
2.5
 40
5.0
 71
3
340
11
 62
0
 40
5.0
 90
0
 40
15.0
 90
1
300
%<\AcVar ViewSectionStartId>%-%<\AcVar ViewSectionEndId>% (%<\AcVar ViewScale \f "%sn">%)
 71
4
 62
0
 62
257
300
ANSI31
 40
1.0
 90
0
290
0
290
0
 90
6
 40
0.0
 40
1.570796326794897
 40
0.2617993877991494
 40
1.308996938995747
 40
-0.2617993877991494
 40
1.832595714594046
  0
DICTIONARY
  5
21B
102
{ACAD_REACTORS
330
C
102
}
330
C
100
AcDbDictionary
281
1
  3
Metric50
350
21C
  0
ACDBDETAILVIEWSTYLE
  5
21C
102
{ACAD_REACTORS
330
21B
102
}
330
21B
100
AcDbModelDocViewStyle
 70
0
  3
Metric50
290
0
300
Metric50
 90
0
100
AcDbDetailViewStyle
 70
0
 71
0
 90
3
 71
1
340
11
 62
0
 40
5.0
340
0
 62
0
 40
5.0
300

 40
0.0
280
1
 71
2
340
16
 90
25
 62
0
 71
3
340
11
 62
0
 40
5.0
 90
0
 40
15.0
 90
1
300
%<\AcVar ViewDetailId>% (%<\AcVar ViewScale \f "%sn">%)
 71
4
340
16
 90
25
 62
0
340
16
 90
25
 62
0
280
0
  0
DICTIONARY
  5
2A3
330
2A2
100
AcDbDictionary
280
1
281
1
  0
DICTIONARY
  5
2A5
330
2A4
100
AcDbDictionary
280
1
281
1
  0
DICTIONARY
  5
2A7
330
2A6
100
AcDbDictionary
280
1
281
1
  0
DICTIONARY
  5
2AD
102
{ACAD_REACTORS
330
C
102
}
330
C
100
AcDbDictionary
281
2
  3
#REVCLOUDAPPROXARCLEN
350
2AE
  3
ANNOALLVISIBLE
350
2AF
  3
CANNOSCALE
350
2B0
  3
CMLEADERSTYLE
350
2B1
  3
CTABLESTYLE
350
2B2
  3
CVIEWDETAILSTYLE
350
2B3
  3
CVIEWSECTIONSTYLE
350
2B4
  3
DGNFRAME
350
2B5
  3
DIMADEC
350
2B6
  3
DIMLAYER
350
2B7
  3
GEOMARKERVISIBILITY
350
2B8
  3
HPCOLOR
350
2B9
  3
HPORIGIN
350
2BA
  3
HPTRANSPARENCY
350
2BB
  3
LAYEREVAL
350
2BC
  3
LAYERNOTIFY
350
2BD
  3
LIGHTINGUNITS
350
2BE
  3
MARKUPASSISTMODE
350
2BF
  3
MSLTSCALE
350
2C0
  3
OLEFRAME
350
2C1
  3
PDFFRAME
350
2C2
  3
POINTCLOUDCLIPFRAME
350
2C3
  3
SOLIDHIST
350
2C4
  3
WIPEOUTFRAME
350
2C5
  0
DICTIONARYVAR
  5
2AE
102
{ACAD_REACTORS
330
2AD
102
}
330
2AD
100
DictionaryVariables
280
0
  1
500.000000
  0
DICTIONARYVAR
  5
2AF
102
{ACAD_REACTORS
330
2AD
102
}
330
2AD
100
DictionaryVariables
280
0
  1
1
  0
DICTIONARYVAR
  5
2B0
102
{ACAD_REACTORS
330
2AD
102
}
330
2AD
100
DictionaryVariables
280
0
  1
1:1
  0
DICTIONARYVAR
  5
2B1
102
{ACAD_REACTORS
330
2AD
102
}
330
2AD
100
DictionaryVariables
280
0
  1
STANDARD
  0
DICTIONARYVAR
  5
2B2
102
{ACAD_REACTORS
330
2AD
102
}
330
2AD
100
DictionaryVariables
280
0
  1
STANDARD
  0
DICTIONARYVAR
  5
2B3
102
{ACAD_REACTORS
330
2AD
102
}
330
2AD
100
DictionaryVariables
280
0
  1
Metric50
  0
DICTIONARYVAR
  5
2B4
102
{ACAD_REACTORS
330
2AD
102
}
330
2AD
100
DictionaryVariables
280
0
  1
Metric50
  0
DICTIONARYVAR
  5
2B5
102
{ACAD_REACTORS
330
2AD
102
}
330
2AD
100
DictionaryVariables
280
0
  1
0
  0
DICTIONARYVAR
  5
2B6
102
{ACAD_REACTORS
330
2AD
102
}
330
2AD
100
DictionaryVariables
280
0
  1
0
  0
DICTIONARYVAR
  5
2B7
102
{ACAD_REACTORS
330
2AD
102
}
330
2AD
100
DictionaryVariables
280
0
  1
0_ANNOT_Dimensions
  0
DICTIONARYVAR
  5
2B8
102
{ACAD_REACTORS
330
2AD
102
}
330
2AD
100
DictionaryVariables
280
0
  1
1
  0
DICTIONARYVAR
  5
2B9
102
{ACAD_REACTORS
330
2AD
102
}
330
2AD
100
DictionaryVariables
280
0
  1
1
  0
DICTIONARYVAR
  5
2BA
102
{ACAD_REACTORS
330
2AD
102
}
330
2AD
100
DictionaryVariables
280
0
  1
0.000000;0.000000
  0
DICTIONARYVAR
  5
2BB
102
{ACAD_REACTORS
330
2AD
102
}
330
2AD
100
DictionaryVariables
280
0
  1
ByLayer
  0
DICTIONARYVAR
  5
2BC
102
{ACAD_REACTORS
330
2AD
102
}
330
2AD
100
DictionaryVariables
280
0
  1
0
  0
DICTIONARYVAR
  5
2BD
102
{ACAD_REACTORS
330
2AD
102
}
330
2AD
100
DictionaryVariables
280
0
  1
0
  0
DICTIONARYVAR
  5
2BE
102
{ACAD_REACTORS
330
2AD
102
}
330
2AD
100
DictionaryVariables
280
0
  1
2
  0
DICTIONARYVAR
  5
2BF
102
{ACAD_REACTORS
330
2AD
102
}
330
2AD
100
DictionaryVariables
280
0
  1
0
  0
DICTIONARYVAR
  5
2C0
102
{ACAD_REACTORS
330
2AD
102
}
330
2AD
100
DictionaryVariables
280
0
  1
1
  0
DICTIONARYVAR
  5
2C1
102
{ACAD_REACTORS
330
2AD
102
}
330
2AD
100
DictionaryVariables
280
0
  1
2
  0
DICTIONARYVAR
  5
2C2
102
{ACAD_REACTORS
330
2AD
102
}
330
2AD
100
DictionaryVariables
280
0
  1
1
  0
DICTIONARYVAR
  5
2C3
102
{ACAD_REACTORS
330
2AD
102
}
330
2AD
100
DictionaryVariables
280
0
  1
0
  0
DICTIONARYVAR
  5
2C4
102
{ACAD_REACTORS
330
2AD
102
}
330
2AD
100
DictionaryVariables
280
0
  1
0
  0
DICTIONARYVAR
  5
2C5
102
{ACAD_REACTORS
330
2AD
102
}
330
2AD
100
DictionaryVariables
280
0
  1
0
  0
DICTIONARY
  5
51A
102
{ACAD_REACTORS
330
C
102
}
330
C
100
AcDbDictionary
281
1
  0
MATERIAL
  5
784
102
{ACAD_REACTORS
330
6A
102
}
330
6A
100
AcDbMaterial
  1
ByBlock
  2

 70
0
 40
1.0
 71
1
 41
1.0
 91
-1023410177
 42
1.0
 72
1
  3

 73
1
 74
1
 75
1
 44
0.5
 73
0
 45
1.0
 46
1.0
 77
1
  4

 78
1
 79
1
170
1
 48
1.0
171
1
  6

172
1
173
1
174
1
140
1.0
141
1.0
175
1
  7

176
1
177
1
178
1
143
1.0
179
1
  8

270
1
271
1
272
1
145
1.0
146
1.0
273
1
  9

274
1
275
1
276
1
 42
1.0
 72
1
  3

 73
1
 74
1
 75
1
 94
63
  0
MATERIAL
  5
785
102
{ACAD_REACTORS
330
6A
102
}
330
6A
100
AcDbMaterial
  1
ByLayer
  2

 70
0
 40
1.0
 71
1
 41
1.0
 91
-1023410177
 42
1.0
 72
1
  3

 73
1
 74
1
 75
1
 44
0.5
 73
0
 45
1.0
 46
1.0
 77
1
  4

 78
1
 79
1
170
1
 48
1.0
171
1
  6

172
1
173
1
174
1
140
1.0
141
1.0
175
1
  7

176
1
177
1
178
1
143
1.0
179
1
  8

270
1
271
1
272
1
145
1.0
146
1.0
273
1
  9

274
1
275
1
276
1
 42
1.0
 72
1
  3

 73
1
 74
1
 75
1
 94
63
  0
MATERIAL
  5
786
102
{ACAD_REACTORS
330
6A
102
}
330
6A
100
AcDbMaterial
  1
Global
  2

 70
0
 40
1.0
 71
1
 41
1.0
 91
-1023410177
 42
1.0
 72
1
  3

 73
1
 74
1
 75
1
 44
0.5
 73
0
 45
1.0
 46
1.0
 77
1
  4

 78
1
 79
1
170
1
 48
1.0
171
1
  6

172
1
173
1
174
1
140
1.0
141
1.0
175
1
  7

176
1
177
1
178
1
143
1.0
179
1
  8

270
1
271
1
272
1
145
1.0
146
1.0
273
1
  9

274
1
275
1
276
1
 42
1.0
 72
1
  3

 73
1
 74
1
 75
1
 94
63
  0
MLEADERSTYLE
  5
787
102
{ACAD_REACTORS
330
12D
102
}
330
12D
100
AcDbMLeaderStyle
179
2
170
2
171
1
172
0
 90
2
 40
0.0
 41
0.0
173
1
 91
-1056964608
 92
-2
290
1
 42
2.0
291
1
 43
8.0
  3
Standard
 44
4.0
300

342
11
174
1
175
1
176
0
178
1
 93
-1056964608
 45
4.0
292
0
297
0
 46
4.0
 94
-1056964608
 47
1.0
 49
1.0
140
1.0
294
1
141
0.0
177
0
142
1.0
295
0
296
0
143
3.75
271
0
272
9
273
9
  0
DICTIONARY
  5
78A
330
C
100
AcDbDictionary
280
1
281
1
  3
WRITTEN_BY_EZDXF
350
78B
  0
DICTIONARYVAR
  5
78B
330
78A
100
DictionaryVariables
280
0
  1
1.4.4 @ 2026-09-30T10:55:04.153267+00:00
  0
ENDSEC
  0
EOF
